<?xml version="1.0" encoding="utf-8"?>
<!-- Generator: Adobe Illustrator 18.1.1, SVG Export Plug-In . SVG Version: 6.00 Build 0)  -->
<svg version="1.1" id="Layer_1" xmlns="http://www.w3.org/2000/svg" xmlns:xlink="http://www.w3.org/1999/xlink" x="0px" y="0px"
	 viewBox="0 0 391.9 64.8" enable-background="new 0 0 391.9 64.8" xml:space="preserve">
<g>
	<g>
		<g>
			<rect x="20" y="0" fill="#FFFFFF" width="207.5" height="64.8"/>
			<path fill="#FFFFFF" d="M123.8,32.4"/>
		</g>
	</g>
	<g>
		<path fill="#F37920" d="M20,64.8v-8.7c0,0-2.4,0.7-6.5,0.7c-4.2,0-9.3-1.4-12.2-7.8c6.8,4.5,13.7,5.3,23.5,5.2
			c21.7-0.2,34.1-8.8,54.9-8.6c24.5,0.1,39.7,10.8,47.8,19.2H20z"/>
		<path fill="#F37920" d="M20,52.2V0c0,0,143,0,152.7,0c-27.4,3.3-43.5,23.7-51.5,45.7l8.2,12.3c15.1-21.8,29.1-38,64-38.4
			c22.1-0.3,51.9,8.7,51.6,36.6c-4.2-10.2-7.6-17.5-17.5-25.4v34.1h-97.2c0,0-19.1-34.3-51.6-34.8C55.3,29.7,37.8,50.7,20,52.2z"/>
		<path fill="#F37920" d="M227.5,0v24.9c0,0-17.2-22.3-43.6-24.9H227.5z"/>
	</g>
	<polygon fill="#F37920" points="327.1,0 327.1,6.1 312.7,6.1 312.7,40.1 305.9,40.1 305.9,6.1 293.7,6.1 298.5,0 	"/>
	<path fill="#F37920" d="M379.4,6.5c-1.1,0.2-2.4,0.6-3.7,1.2c-1.3,0.6-2.4,1.4-3.4,2.3c-2.7,2.5-4.1,5.8-4.1,9.8
		c0,4.1,1.3,7.5,4,10.1c0.8,0.8,1.7,1.5,2.7,2.1c1,0.5,2.2,1,3.7,1.4c1.5,0.4,3.6,0.5,6.3,0.5h6.9V40h-6.5c-3.5,0-5.9-0.1-7.1-0.3
		c-1.3-0.2-2.6-0.6-4.1-1.2c-2.6-1-4.8-2.4-6.8-4.3c-3.8-3.7-6-8.8-6-14.1c0-3.7,0.9-7.2,2.8-10.4c1.9-3.2,4.4-5.6,7.6-7.2
		c3.2-1.6,7.5-2.5,12.8-2.5h7.3v6.1h-6.8C382.5,6.2,380.6,6.3,379.4,6.5z"/>
	<polygon fill="#58595B" points="270.7,40.1 270.7,22.9 256.8,22.9 256.8,40.1 250.2,40.1 250.2,0 256.8,0 256.8,16.8 270.7,16.8 
		270.7,0 277.4,0 277.4,40.1 	"/>
	<path fill-rule="evenodd" clip-rule="evenodd" fill="#F37920" d="M326.7,0h13.7c5.3,0,9.6,0.8,12.8,2.5c3.2,1.6,5.7,4,7.6,7.2
		c1.9,3.2,2.8,6.6,2.8,10.4c0,2.7-0.5,5.2-1.5,7.7c-1,2.4-2.5,4.6-4.4,6.4c-1.9,1.9-4.2,3.4-6.8,4.3c-1.5,0.6-2.9,1-4.1,1.2
		c-1.2,0.2-3.6,0.3-7.1,0.3h-12.9V0z M333.4,6.1v27.8h6.6c2.8,0,4.9-0.2,6.3-0.5c1.5-0.4,2.7-0.8,3.7-1.4c1-0.6,1.9-1.3,2.7-2.1
		c2.6-2.7,4-6,4-10.1c0-4-1.4-7.3-4-9.8c-1-0.9-2.1-1.7-3.4-2.3c-3.2-1.5-5.8-1.5-9.4-1.5H333.4z"/>
	<polygon fill="#58595B" points="275.1,19.9 291.4,0 299.6,0 283.9,19.8 300.1,40.1 291.7,40.1 	"/>
	<path fill="#58595B" d="M387.2,59.3c0,1.2-0.9,2.1-2.1,2.2h-7.5v-5.9h9.5L387.2,59.3z M385.2,58.7v-1.2h-5.5v2l4.6,0
		C384.8,59.6,385.2,59.2,385.2,58.7z M389.1,46.7h-13.2v1.9h12.4c0.5,0,0.9-0.4,0.9-0.9L389.1,46.7z M375.9,50.6v1.7h15.9
		c0,6.4-0.5,10.1-1.3,11c-0.4,0.8-1.9,1.2-4.8,1.2l0-2.1c0,0,1.3,0,1.7,0c0.7,0,1.2-0.3,1.6-0.8c0.3-0.5,0.5-3,0.6-7.5h-13.8
		c-0.1,1.3-0.2,2.7-0.4,4.1c-0.4,2.2-1,4.3-1.9,6.4l-1.7-1.6c0.8-1.7,1.4-3.5,1.7-5.4c0.2-2,0.4-3.8,0.4-5.4v-7.3h17.2v3.6
		c0,1.2-1,2.2-2.2,2.2L375.9,50.6z"/>
	<path fill="#58595B" d="M349.9,53.9c0,1.2-0.9,2.1-2.1,2.2l-2.2,0l-0.2,1.7h4.7c-0.1,2.8-0.3,4.5-0.6,5.3c-0.4,0.9-1.3,1.3-2.6,1.3
		H343l0-1.9c0,0,3,0,3.9,0c0.4,0,0.7-0.2,0.9-0.5c0.2-0.4,0.3-1.2,0.3-2.5h-5l0.6-5.1h3.3c0.5,0,0.8-0.4,0.8-0.9l0-0.9h-4.1v-0.9
		c-0.6,0.2-1.1,0.4-1.7,0.6l-1.1-2c1.3-0.3,2.4-0.6,3.4-0.9c-0.5-0.5-1-1-1.7-1.6l1.5-1c0.9,0.7,1.7,1.3,2.3,1.8l0.4-0.2
		c1.1-0.5,1.9-1.1,2.6-1.9h-6.1v-1.8h8.5c0.5,0.6,1.1,1.1,1.9,1.6c0.4-0.2,0.8-0.5,1.2-0.9c0.4-0.4,0.9-0.9,1.3-1.5l1.7,1
		c-0.5,0.8-1,1.4-1.5,1.9c-0.2,0.2-0.5,0.5-0.8,0.7c0.4,0.2,0.8,0.4,1.3,0.7c0.4-0.3,0.9-0.6,1.3-1c0.5-0.4,0.9-1,1.4-1.7l1.7,1
		c-0.6,0.9-1.1,1.6-1.6,2.1c-0.2,0.2-0.4,0.4-0.6,0.6c1,0.4,2.1,0.8,3.3,1.2l-1.2,1.7c-0.9-0.3-1.8-0.6-2.5-1v2.3
		c0,0.5,0.2,0.7,0.7,0.7h2v1.7h-2.4c-0.7,0-1.3-0.2-1.6-0.5c-0.4-0.3-0.6-0.9-0.6-1.6v-1.1h-2.1c-0.1,0.9-0.2,1.5-0.4,1.8
		c-0.2,0.5-0.9,1.1-2,1.7l-1.5-1.2c0.9-0.6,1.5-1.1,1.7-1.5c0.2-0.3,0.3-1.2,0.3-2.6h5.7c-1.2-0.5-2.3-1-3.2-1.5
		c-1.4-0.8-2.6-1.6-3.6-2.5c-0.6,0.9-1.3,1.7-2.2,2.3c-0.7,0.5-1.8,1.1-3.4,1.8h4.2V53.9z M351.5,56.4h7.9v1.5
		c-0.7,1.3-1.5,2.5-2.6,3.5c1.3,0.5,2.9,0.9,4.9,1.3l-1.2,1.7c-2.3-0.5-4.1-1.1-5.3-1.7c-1.2,0.8-2.5,1.4-4,1.8l-0.9-1.8
		c1.2-0.3,2.2-0.6,3-1.1c-1-0.7-1.8-1.4-2.4-2.2l1.7-1c0.7,0.8,1.5,1.5,2.4,2c0.7-0.7,1.4-1.5,1.9-2.4h-5.4V56.4z"/>
	<path fill="#58595B" d="M313.2,51.6h15.9l0,7.5c0,1.2-1,2.2-2.2,2.2l-13.8,0V51.6z M327,58.9v-0.5h-11.7v1.3h10.9
		C326.6,59.6,326.9,59.3,327,58.9z M315.3,56.9H327v-1.2h-11.7V56.9z M315.3,54.4H327v-1.2h-11.7V54.4z M317.8,48.6
		c-0.2-0.4-0.4-0.8-0.6-1.2l1.7-0.5c0.6,1.1,1.2,2.3,1.7,3.7l-1.8,0.4c-0.1-0.3-0.2-0.6-0.3-0.8c-2,0.5-4.2,0.9-6.8,1.4l0-6.5
		c2.3-0.1,5.2-0.6,7.8-1.3l0.7,1.7c-1.2,0.3-3.5,0.7-6.4,1l0,2.8C314.9,49.2,316.6,48.8,317.8,48.6z M321,44.8h9.6
		c0,3.3-0.4,4.9-1,5.4c-0.3,0.4-1.5,0.6-3.5,0.6l-0.3-1.9c0.6,0.1,1,0.2,1.4,0.2c0.4,0,0.8-0.1,1-0.3c0.2-0.2,0.3-1,0.4-2.5h-2.8
		c-0.1,1.2-0.5,2.1-0.9,2.8c-0.6,0.8-1.6,1.5-3.1,2.1l-1.3-1.7c1.3-0.4,2.2-0.9,2.6-1.4c0.4-0.4,0.6-1,0.8-1.8H321V44.8z
		 M318.3,61.4l1,1.4c-1.2,0.5-2.3,0.8-3.2,1c-1.1,0.3-2.5,0.5-4.1,0.8l-1.1-1.8c1.6-0.2,3.1-0.4,4.3-0.6
		C316.4,61.9,317.4,61.7,318.3,61.4z M323.5,61.4c2.5,0.3,5,0.8,7.7,1.4l-0.7,1.8c-2.5-0.7-5.1-1.3-7.8-1.7L323.5,61.4z"/>
	<path fill="#58595B" d="M282.5,44.2c1.2,0.6,2.4,1.2,3.4,2l-1.3,2c-1-1-2.1-1.8-3.2-2.4L282.5,44.2z M281.6,49.5
		c1.3,0.6,2.5,1.3,3.6,2.2l-1.3,2c-1.1-1.1-2.2-1.9-3.4-2.5L281.6,49.5z M283.6,54.9l1.1,0.8c1.6-0.8,2.7-1.5,3.4-2.2
		c0.4-0.3,0.7-0.7,1-1.2h-3.5v-1.8h3.2v-2.2H286v-1.8h2.7v-2.3h2.1v2.3h4.1v-2.3h2v2.3h3.4v1.8h-3.4v2.2h3.9v1.8h-4.2
		c0.5,0.6,1,1.1,1.4,1.4c0.7,0.6,1.7,1.1,3,1.6l-0.9,1.9c-1.3-0.7-2.4-1.3-3.1-1.9l0,2.3c0,1.2-1,2.2-2.2,2.2h-5v1.9
		c0,0.5,0.3,0.7,0.8,0.7h6.2c0.4,0,0.7-0.1,0.9-0.3c0.2-0.2,0.4-0.5,0.5-2.2l1.9,0c-0.2,2.1-0.5,3.4-0.9,3.8
		c-0.4,0.4-1.1,0.6-2.1,0.6H290c-0.6,0-1.1-0.2-1.5-0.5c-0.4-0.4-0.5-0.8-0.5-1.4v-6.3c-0.7,0.5-1.5,1.1-2.4,1.6l-0.4-0.8
		c-0.8,3-1.8,5.5-2.8,7.7l-1.7-1.7C281.6,61,282.6,58.3,283.6,54.9z M289.9,54.2h5.9c-0.5-0.5-0.9-1.1-1.4-1.9h-3.3
		C290.7,53,290.3,53.7,289.9,54.2z M290.8,50.5h4.1v-2.2h-4.1V50.5z M290,56v2.2l4.3,0c0.5,0,0.9-0.4,0.9-0.9l0-1.3H290z"/>
	<path fill="#58595B" d="M267.8,44.5l1.1,1.8c-2.1,0.4-4.6,0.6-7.4,0.8v2.4h9.3v1.8h-6.8c0.8,0.7,1.6,1.4,2.3,1.7
		c1.1,0.6,2.6,1.2,4.6,1.7l-1,2c-0.7-0.3-1.3-0.5-1.9-0.8v6.3c0,1.2-1,2.2-2.2,2.2l-12.6,0v-8.4c-0.6,0.3-1.2,0.5-1.8,0.8l-1.2-2
		c2.5-0.8,4.3-1.6,5.3-2.3c0.5-0.3,1-0.8,1.5-1.3h-6.5v-1.8h9v-2.3c-2.2,0.1-4.6,0.1-7.1,0.1l-0.6-1.9
		C258,45.5,263.4,45.2,267.8,44.5z M255.1,62.8h10c0.4,0,0.8-0.4,0.8-0.8v-1h-10.8V62.8z M255.1,59.1h10.8v-1.6h-10.8V59.1z
		 M254.3,55.6h5v-4h-0.2c-0.6,0.9-1.4,1.7-2.2,2.4C256.2,54.5,255.3,55,254.3,55.6z M261.4,55.6h5.3c-0.9-0.4-1.7-0.9-2.2-1.3
		c-0.9-0.6-1.9-1.5-2.8-2.7h-0.2V55.6z"/>
</g>
</svg>
