<?xml version="1.0" encoding="utf-8"?>
<!-- Generator: Adobe Illustrator 19.0.1, SVG Export Plug-In . SVG Version: 6.00 Build 0)  -->
<svg version="1.1" id="Layer_1" xmlns="http://www.w3.org/2000/svg" xmlns:xlink="http://www.w3.org/1999/xlink" x="0px" y="0px"
	 viewBox="0 0 1024 1024" style="enable-background:new 0 0 1024 1024;" xml:space="preserve">
<path fill="#666" d="M406.7,336.6c0.6,0,1.2,0,1.7,0c24.8,0,48.2,9.3,68.8,17.5c15.4,6.1,28.8,11.4,39.1,11.4
	c9.1,0,22.4-5.2,37.7-11.3c22.2-8.8,49.9-19.7,78.8-19.7c3.7,0,7.4,0.2,11,0.5c24.6,1,85.7,9.9,125.6,68.2c0.8,1.2,1.2,2.8,0.9,4.2
	c-0.3,1.5-1.2,2.7-2.4,3.5l-0.5,0.3c-11.6,7.2-69.3,46.7-68.6,121.4c0.8,91.9,76.8,125.6,85.5,129.2c0.1,0,0.3,0.1,0.4,0.2
	c2.6,1.2,3.8,4.1,2.9,6.8l-0.2,0.6c-4.7,15.1-18.7,54.6-46.5,95.2c-26.7,38.9-56.9,83-106.1,84c-23,0.4-38.6-6.3-53.7-12.9
	c-15.3-6.6-31.2-13.5-56-13.5c-26.1,0-42.8,7.1-58.9,14c-14.4,6.1-29.2,12.4-49.7,13.2c-0.9,0-1.7,0-2.5,0
	c-43.7,0-75.6-40.9-107.1-86.4c-63.1-91.1-99.4-241.4-42.3-340.4C294.7,370.4,349.1,337.5,406.7,336.6z M643.9,174.5
	c-34.9,1.4-76.7,22.9-101.7,52.2c-21.3,24.6-42,65.7-36.5,107.1c0.3,2.6,2.4,4.6,5,4.8c2.4,0.2,4.8,0.3,7.2,0.3
	c34.1,0,70.9-18.9,96-49.3c26.5-32.1,39.8-73.3,35.8-110.1C649.3,176.5,646.8,174.4,643.9,174.5z"/>
</svg>
