<?xml version="1.0" encoding="utf-8"?>
<!-- Generator: Adobe Illustrator 21.0.0, SVG Export Plug-In . SVG Version: 6.00 Build 0)  -->
<svg version="1.1" id="Layer_1" xmlns="http://www.w3.org/2000/svg" xmlns:xlink="http://www.w3.org/1999/xlink" x="0px" y="0px"
	 viewBox="0 0 1024 1024" style="enable-background:new 0 0 1024 1024;" xml:space="preserve">
<style type="text/css">
	.st0{fill:#005F9F;}
</style>
<path class="st0" d="M172.6,580V422.5c0-102.7,42-196,109.6-263.7l0.2-0.1l0.7-0.7C350.7,90.8,443.7,49,546,49
	c102.6,0,196,42.1,263.7,109.8l0.1-0.1c67.7,67.6,109.7,161,109.7,263.8V580c10.9,0.4,21.5,2.8,31.4,6.8l0.1,0.1l0.1-0.1
	c11,4.5,20.8,11.2,28.9,19.3c8,8.1,14.7,17.9,19.3,28.9l1,2.7c3.8,9.9,5.9,20.6,5.9,31.4v78.5v78.5c0,11.8-2.5,23.3-6.8,34l-0.1,0.1
	h0.1c-4.5,11-11.2,20.8-19.3,28.9c-8.1,8.1-17.9,14.7-28.9,19.4l-2.8,1c-9.9,3.7-20.6,5.9-31.4,5.9h-37.4h-37.4
	c-11.8,0-23.3-2.5-34-6.8l-0.1-0.1v0.1c-11-4.6-20.9-11.3-28.9-19.4c-16.2-16.1-26.2-38.4-26.2-63v-78.5v-78.5
	c0-11.7,2.5-23.2,6.8-33.9l0.1-0.1l-0.1-0.1c4.6-11,11.3-20.8,19.4-28.9c15.5-15.5,36.9-25.4,60.4-26.1v-139
	c-15.4-45.9-41.4-87.2-74.9-120.7l0.1-0.1h-0.1c-56-56-133.5-90.9-218.6-90.9c-85,0-162.5,34.9-218.6,91
	c-33.5,33.5-59.4,74.7-74.9,120.6v139c10.9,0.4,21.6,2.8,31.4,6.8l0.1,0.1l0.1-0.1c11,4.5,20.8,11.2,28.9,19.3s14.7,17.9,19.3,28.9
	l1.1,2.7c3.8,9.9,5.9,20.6,5.9,31.4v78.5v78.5c0,11.8-2.5,23.3-6.9,34v0.1l0,0c-4.5,11-11.2,20.8-19.3,28.9
	c-8.1,8.1-17.9,14.7-28.9,19.4l-2.7,1c-9.9,3.7-20.6,5.9-31.4,5.9h-37.4h-37.4c-11.8,0-23.3-2.5-34-6.8l-0.1-0.1l-0.1,0.1
	c-10.9-4.6-20.8-11.3-28.9-19.4C96,873,86,850.6,86,826.1v-78.5v-78.5c0-11.7,2.5-23.2,6.8-33.9l0.1-0.1l-0.1-0.1
	c4.5-11,11.3-20.8,19.3-28.9C127.6,590.6,149,580.7,172.6,580L172.6,580z M212.5,659.9h-37.4c-2.5,0-4.9,1.1-6.5,2.8
	c-1,1-1.7,2-2.2,3l0,0c-0.3,0.9-0.6,2.1-0.6,3.5v78.5v78.5c0,2.5,1.1,4.8,2.8,6.5c1,1,2,1.7,3,2.1l0,0c0.9,0.4,2.1,0.6,3.6,0.6h37.4
	H250c1.1,0,2-0.1,2.9-0.3l0.6-0.3c1-0.4,2.1-1.2,3.1-2.1c1-1,1.7-2.1,2.1-3.1v0.1c0.4-1,0.6-2.2,0.6-3.6v-78.5v-78.5
	c0-1.1-0.1-2-0.4-2.9l-0.2-0.6c-0.4-1-1.3-2-2.1-3c-1-1-2.1-1.7-3.1-2.2l0,0c-0.9-0.4-2.1-0.6-3.5-0.6L212.5,659.9L212.5,659.9z
	 M879.4,659.9H842c-2.5,0-4.8,1.1-6.5,2.8c-1,1-1.7,2-2.1,3h-0.1c-0.3,0.9-0.6,2.1-0.6,3.5v78.5v78.5c0,2.5,1.2,4.8,2.8,6.5
	c1,1,2,1.7,3.1,2.1h-0.1c1,0.4,2.2,0.6,3.6,0.6h37.4h37.4c1.2,0,2.1-0.1,2.9-0.3l0.6-0.3c1.1-0.4,2.1-1.2,3.1-2.1
	c1-1,1.7-2.1,2.1-3.1l0.1,0.1c0.3-1,0.5-2.2,0.5-3.6v-78.5v-78.5c0-1.1-0.1-2-0.3-2.9l-0.3-0.6c-0.4-1-1.2-2-2.1-3
	c-1-1-2-1.7-3.1-2.2h0.1c-0.9-0.4-2.1-0.6-3.6-0.6L879.4,659.9L879.4,659.9z M813.9,302.9c-14.8-32.8-35.4-62.5-60.7-87.6l0.2-0.1
	l-0.2-0.1C700.1,162,626.7,129,545.9,129c-80.7,0-154.1,33-207.3,86.2c-25.1,25.2-45.7,55-60.6,87.8c5-5.6,10.1-11.2,15.5-16.5
	c64.7-64.8,154.2-105,252.4-105s187.6,40.2,252.4,105.1l0.1-0.1C803.8,291.8,808.9,297.3,813.9,302.9z"/>
</svg>
