<?xml version="1.0" encoding="utf-8"?>
<!-- Generator: Adobe Illustrator 19.0.1, SVG Export Plug-In . SVG Version: 6.00 Build 0)  -->
<svg version="1.1" xmlns="http://www.w3.org/2000/svg" xmlns:xlink="http://www.w3.org/1999/xlink" x="0px" y="0px"
	 viewBox="0 0 1024 1024" style="enable-background:new 0 0 1024 1024;" xml:space="preserve">
<path fill="#fff" class="st0" d="M276.5,977c-57,0-103.3-46.4-103.3-103.3c0-57,46.4-103.3,103.3-103.3s103.3,46.4,103.3,103.3
	C379.9,930.7,333.5,977,276.5,977 M276.5,817.2c-31.1,0-56.4,25.3-56.4,56.4c0,31.1,25.3,56.4,56.4,56.4s56.4-25.3,56.4-56.4
	C332.9,842.5,307.6,817.2,276.5,817.2 M861.3,977c-57,0-103.3-46.4-103.3-103.3c0-57,46.4-103.3,103.3-103.3
	c57,0,103.3,46.4,103.3,103.3C964.8,930.7,918.3,977,861.3,977 M861.3,817.2c-31.1,0-56.4,25.3-56.4,56.4
	c0,31.1,25.3,56.4,56.4,56.4c31.1,0,56.4-25.3,56.4-56.4S892.5,817.2,861.3,817.2 M1001,154.9H176.1L151.3,47H23v47h91l14,61h-1.1
	l104.7,456.2h1.4l24.9,108h603.6v-47H295.2l-14-61h615.2L1001,154.9z M270.4,564.2L187,202H942l-83.2,362.3H270.4z"/>
</svg>
