<?xml version="1.0" encoding="utf-8"?>
<!-- Generator: Adobe Illustrator 18.1.1, SVG Export Plug-In . SVG Version: 6.00 Build 0)  -->
<svg version="1.1" id="Layer_1" xmlns="http://www.w3.org/2000/svg" xmlns:xlink="http://www.w3.org/1999/xlink" x="0px" y="0px"
	 viewBox="0 0 66.1 66.1" enable-background="new 0 0 66.1 66.1" xml:space="preserve">
<g fill="#666">
	<path d="M33.1,66.1C14.8,66.1,0,51.3,0,33.1S14.8,0,33.1,0s33.1,14.8,33.1,33.1S51.3,66.1,33.1,66.1 M33.1,4C17,4,4,17,4,33.1
		s13,29.1,29.1,29.1s29.1-13,29.1-29.1S49.1,4,33.1,4"/>
	<rect x="31.1" y="18" transform="matrix(0.7071 0.7071 -0.7071 0.7071 33.0676 -13.698)" width="4" height="30.1"/>
	<rect x="18" y="31.1" transform="matrix(0.7071 0.7071 -0.7071 0.7071 33.0673 -13.6974)" width="30.1" height="4"/>
</g>
</svg>
