<?xml version="1.0" encoding="utf-8"?>
<!-- Generator: Adobe Illustrator 19.0.1, SVG Export Plug-In . SVG Version: 6.00 Build 0)  -->
<svg version="1.1" xmlns="http://www.w3.org/2000/svg" xmlns:xlink="http://www.w3.org/1999/xlink" x="0px" y="0px"
	 viewBox="0 0 1024 1024" style="enable-background:new 0 0 1024 1024;" xml:space="preserve">
<path fill="#005f9f" d="M990.5,383.1v56.8H856.3v134.2h-56.8V439.9H665.2v-56.8h134.2V248.8h56.8v134.2H990.5z M543.2,419.8
	c87,95.7,142.1,250,142.1,402.6c0,128.1-169.4,186.4-326.8,186.4c-82.3,0-159.4-15-217.2-42.2C70.6,933.4,31.7,882.2,31.7,822.4
	c0-152.6,55.1-306.9,142-402.6c-38.8-43.7-62.4-101.1-62.4-163.9c0-136.3,110.9-247.1,247.1-247.1c136.3,0,247.1,110.9,247.1,247.1
	C605.6,318.8,582,376.2,543.2,419.8z M168.2,255.9c0,104.9,85.4,190.3,190.3,190.3c104.9,0,190.3-85.4,190.3-190.3
	c0-104.9-85.4-190.3-190.3-190.3C253.5,65.6,168.2,151,168.2,255.9z M628.4,822.4c0-137.1-50.6-280-127.6-364.7
	c-40.3,28.5-89.4,45.3-142.4,45.3c-53,0-102.1-16.8-142.4-45.3c-77,84.8-127.6,227.6-127.6,364.7c0,64.4,92.7,129.6,269.9,129.6
	C535.7,952,628.4,886.8,628.4,822.4z"/>
</svg>
