<?xml version="1.0" encoding="utf-8"?>
<!-- Generator: Adobe Illustrator 22.0.1, SVG Export Plug-In . SVG Version: 6.00 Build 0)  -->
<svg version="1.1" id="Layer_1" xmlns="http://www.w3.org/2000/svg" xmlns:xlink="http://www.w3.org/1999/xlink" x="0px" y="0px"
	 viewBox="0 0 333 333" style="enable-background:new 0 0 333 333;" xml:space="preserve">
<style type="text/css">
	.st0{fill:#fc5004;}
</style>
<g>
	<path class="st0" d="M166.5,0C74.7,0,0,74.7,0,166.5C0,258.3,74.7,333,166.5,333c91.8,0,166.5-74.7,166.5-166.5
		C333,74.7,258.3,0,166.5,0L166.5,0z M308.4,147.9h-53.9c-3.6-43.4-20.2-85.6-49.9-119.3C259.2,43.7,300.9,90.5,308.4,147.9
		L308.4,147.9z M154.8,147.9h-52.5c4.4-41.1,22-81.3,52.5-112.7V147.9z M154.8,171.3v128.9c-0.4-0.6-0.8-1.1-1.3-1.6
		c-34.4-34.4-51.7-80.5-52.3-127.3H154.8z M178.2,171.3h53.6c-1.3,46.4-19.2,92.8-53.6,128.2V171.3z M178.2,147.9V34.5
		c0.4,0.6,0.8,1.1,1.3,1.6c30.6,30.6,47.7,70.5,51.5,111.8H178.2z M129.4,28.3C99.9,62.7,83,104.8,78.9,147.9H24.7
		C32.2,90.2,74.3,43.1,129.4,28.3L129.4,28.3z M23.5,171.3h54.4c0.5,47.9,16.7,95.2,48.7,132.6C68.6,287,25.6,234.3,23.5,171.3
		L23.5,171.3z M205.5,304.2c31.8-38.1,48.4-85.4,49.6-132.9h54.4C307.4,234.6,264,287.6,205.5,304.2L205.5,304.2z M205.5,304.2"/>
</g>
</svg>
