<?xml version="1.0" encoding="utf-8"?>
<!-- Generator: Adobe Illustrator 21.0.0, SVG Export Plug-In . SVG Version: 6.00 Build 0)  -->
<svg version="1.1" id="Layer_1" xmlns="http://www.w3.org/2000/svg" xmlns:xlink="http://www.w3.org/1999/xlink" x="0px" y="0px"
	 viewBox="0 0 1024 1024" style="enable-background:new 0 0 1024 1024;" xml:space="preserve">
<style type="text/css">
	.st0{fill:#005F9F;}
</style>
<g>
	<g>
		<polygon class="st0" points="81.7,1000.3 127.9,662.9 160.1,667.3 119.7,962.3 414.7,921.9 419.1,954.1 		"/>
	</g>
	<g>
		<path class="st0" d="M903.5,419.8l-23-23l14.2-14.2c16.2-16.2,16.2-42.7,0-58.9L758.3,187.2c-16.2-16.2-42.7-16.2-58.9,0
			l-14.2,14.2l-23-23l14.2-14.2c28.9-28.9,75.9-28.9,104.8,0l136.4,136.4c28.9,28.9,28.9,75.9,0,104.8L903.5,419.8z"/>
	</g>
	<g>
		<path class="st0" d="M864.7,513.1L568.9,217.3l77.5-77.5l295.8,295.8L864.7,513.1z M614.8,217.3l249.9,249.9l31.6-31.6
			L646.4,185.7L614.8,217.3z"/>
	</g>
	<g>
		<path class="st0" d="M416.7,961.1L120.9,665.3l471-471l295.8,295.8L416.7,961.1z M166.8,665.3l249.9,249.9l425.1-425.1
			L591.9,240.2L166.8,665.3z"/>
	</g>
	<g>
		
			<rect x="100" y="474" transform="matrix(0.7071 -0.7071 0.7071 0.7071 -224.5639 438.3051)" class="st0" width="633.6" height="32.5"/>
	</g>
	<g>
		
			<rect x="144.2" y="518.2" transform="matrix(0.7071 -0.7071 0.7071 0.7071 -242.8633 482.4863)" class="st0" width="633.6" height="32.5"/>
	</g>
	<g>
		
			<rect x="187.5" y="561.5" transform="matrix(0.7071 -0.7071 0.7071 0.7071 -260.8024 525.7951)" class="st0" width="633.6" height="32.5"/>
	</g>
	<g>
		
			<rect x="230.8" y="604.8" transform="matrix(0.7071 -0.7071 0.7071 0.7071 -278.7408 569.1057)" class="st0" width="633.6" height="32.5"/>
	</g>
	<g>
		
			<rect x="275" y="649" transform="matrix(0.7071 -0.7071 0.7071 0.7071 -297.0374 613.2828)" class="st0" width="633.6" height="32.5"/>
	</g>
	<g>
		
			<rect x="149.4" y="846.9" transform="matrix(0.7071 -0.7071 0.7071 0.7071 -599.3809 385.5008)" class="st0" width="32.5" height="138.9"/>
	</g>
</g>
</svg>
