<?xml version="1.0" encoding="utf-8"?>
<!-- Generator: Adobe Illustrator 21.0.0, SVG Export Plug-In . SVG Version: 6.00 Build 0)  -->
<svg version="1.1" id="Layer_3" xmlns="http://www.w3.org/2000/svg" width="64" height="4736" xmlns:xlink="http://www.w3.org/1999/xlink" x="0px" y="0px"
	 viewBox="0 0 64 4736" style="enable-background:new 0 0 64 4736;" xml:space="preserve">
<style type="text/css">
	.st0{fill:#666666;}
	.st1{fill:#005F9F;}
	.st2{fill:#FFFFFF;}
	.st3{fill:#CCCCCC;}
	.st4{fill:none;stroke:#333333;stroke-linecap:round;stroke-linejoin:round;stroke-miterlimit:10;}
	.st5{fill:#F26739;}
	.st6{fill:#231F20;}
	.st7{fill:#ED2A26;}
	.st8{fill:#FF6600;}
	.st9{fill:#0096DB;}
	.st10{fill:#00A653;}
	.st11{fill:#ED1C24;}
	.st12{fill:#005BAA;}
	.st13{fill:#333333;}
	.st14{fill-rule:evenodd;clip-rule:evenodd;fill:#333333;}
	.st15{fill:#FF0049;}
</style>
<path class="st0" d="M19.2,91.2v10.9c0,1.4-1.1,2.5-2.5,2.5h-0.1c-1.4,0-2.5-1.1-2.5-2.5V91.2c0-1.4,1.1-2.5,2.5-2.5h0.1
	C18.1,88.7,19.2,89.8,19.2,91.2z M20.4,106.3c0,1.3,1,2.3,2.3,2.3h2.5v5.9c0,1.4,1.1,2.5,2.5,2.5h0.1c1.4,0,2.5-1.1,2.5-2.5v-5.9
	h3.4v5.9c0,1.4,1.1,2.5,2.5,2.5h0.1c1.4,0,2.5-1.1,2.5-2.5v-5.9h2.5c1.3,0,2.3-1,2.3-2.3V89.1H20.4V106.3z M43.6,87.4
	c0,0.2,0,0.5,0,0.7H20.4c0-0.2,0-0.4,0-0.7c0-3.7,2.4-7,5.9-8.7l-2-3c-0.1-0.2-0.1-0.5,0.1-0.6s0.5-0.1,0.6,0.1l2,3.1
	c1.5-0.6,3.2-1,5-1s3.5,0.4,5,1l2-3.1c0.1-0.2,0.4-0.3,0.6-0.1c0.2,0.1,0.3,0.4,0.1,0.6l-2,3C41.3,80.4,43.6,83.7,43.6,87.4z
	 M27.7,83c0-0.6-0.5-1.1-1.1-1.1s-1.1,0.5-1.1,1.1s0.5,1.1,1.1,1.1S27.7,83.6,27.7,83z M38.5,83c0-0.6-0.5-1.1-1.1-1.1
	s-1.1,0.5-1.1,1.1s0.5,1.1,1.1,1.1S38.5,83.6,38.5,83z M47.4,88.7L47.4,88.7c-1.5,0-2.6,1.1-2.6,2.5v10.9c0,1.4,1.1,2.5,2.5,2.5h0.1
	c1.4,0,2.5-1.1,2.5-2.5V91.2C49.9,89.8,48.7,88.7,47.4,88.7z"/>
<path class="st0" d="M25.4,149h0.1c1.5,0,3,0.6,4.3,1.1c1,0.4,1.8,0.7,2.4,0.7c0.6,0,1.4-0.3,2.4-0.7c1.4-0.6,3.1-1.2,4.9-1.2
	c0.2,0,0.5,0,0.7,0c1.5,0.1,5.4,0.6,7.8,4.3c0,0.1,0.1,0.2,0.1,0.3s-0.1,0.2-0.2,0.2l0,0c-0.7,0.4-4.3,2.9-4.3,7.6
	c0,5.7,4.8,7.8,5.3,8.1l0,0c0.2,0.1,0.2,0.3,0.2,0.4l0,0c-0.3,0.9-1.2,3.4-2.9,6c-1.7,2.4-3.6,5.2-6.6,5.3c-1.4,0-2.4-0.4-3.4-0.8
	c-1-0.4-2-0.8-3.5-0.8c-1.6,0-2.7,0.4-3.7,0.9c-0.9,0.4-1.8,0.8-3.1,0.8h-0.2c-2.7,0-4.7-2.6-6.7-5.4c-3.9-5.7-6.2-15.1-2.6-21.3
	C18.4,151.1,21.8,149.1,25.4,149z M40.2,138.9c-2.2,0.1-4.8,1.4-6.4,3.3c-1.3,1.5-2.6,4.1-2.3,6.7c0,0.2,0.1,0.3,0.3,0.3
	c0.2,0,0.3,0,0.5,0c2.1,0,4.4-1.2,6-3.1c1.7-2,2.5-4.6,2.2-6.9C40.6,139,40.4,138.9,40.2,138.9z"/>
<path d="M33.2,240.1l29.5-29.5c0.7-0.7,0.7-1.8,0-2.5s-1.8-0.7-2.5,0l0,0L32,236.3L3.8,208.1c-0.7-0.7-1.8-0.7-2.5,0l0,0
	c-0.3,0.3-0.5,0.8-0.5,1.2s0.2,0.9,0.5,1.2L30.8,240C31.4,240.7,32.6,240.7,33.2,240.1z"/>
<path d="M16,286.8l29.5-29.5c0.7-0.7,1.8-0.7,2.5,0s0.7,1.8,0,2.5L19.8,288L48,316.3c0.7,0.7,0.7,1.8,0,2.5
	c-0.3,0.3-0.8,0.5-1.2,0.5s-0.9-0.2-1.2-0.5L16,289.3C15.3,288.6,15.3,287.5,16,286.8z"/>
<path d="M48,350.8l-29.5-29.5c-0.7-0.7-1.8-0.7-2.5,0l0,0c-0.7,0.7-0.7,1.8,0,2.5l0,0L44.2,352L16,380.3c-0.7,0.7-0.7,1.8,0,2.5l0,0
	c0.3,0.3,0.8,0.5,1.2,0.5s0.9-0.2,1.2-0.5L48,353.3C48.7,352.6,48.7,351.5,48,350.8z"/>
<path class="st1" d="M16,414.8l29.5-29.5c0.7-0.7,1.8-0.7,2.5,0s0.7,1.8,0,2.5L19.8,416L48,444.3c0.7,0.7,0.7,1.8,0,2.5
	c-0.3,0.3-0.8,0.5-1.2,0.5s-0.9-0.2-1.2-0.5L16,417.3C15.3,416.6,15.3,415.5,16,414.8z"/>
<path class="st1" d="M48,478.8l-29.5-29.5c-0.7-0.7-1.8-0.7-2.5,0l0,0c-0.7,0.7-0.7,1.8,0,2.5l0,0L44.2,480L16,508.3
	c-0.7,0.7-0.7,1.8,0,2.5l0,0c0.3,0.3,0.8,0.5,1.2,0.5s0.9-0.2,1.2-0.5L48,481.3C48.7,480.6,48.7,479.5,48,478.8z"/>
<path class="st2" d="M60.4,532.6l-2.8-2.8L32,555.4L6.4,529.8l-2.8,2.8L32,560.9L60.4,532.6z"/>
<path class="st3" d="M16,606.8l29.5-29.5c0.7-0.7,1.8-0.7,2.5,0s0.7,1.8,0,2.5L19.8,608L48,636.3c0.7,0.7,0.7,1.8,0,2.5
	c-0.3,0.3-0.8,0.5-1.2,0.5s-0.9-0.2-1.2-0.5L16,609.3C15.3,608.6,15.3,607.5,16,606.8z"/>
<path class="st3" d="M48,670.8l-29.5-29.5c-0.7-0.7-1.8-0.7-2.5,0l0,0c-0.7,0.7-0.7,1.8,0,2.5l0,0L44.2,672L16,700.3
	c-0.7,0.7-0.7,1.8,0,2.5l0,0c0.3,0.3,0.8,0.5,1.2,0.5s0.9-0.2,1.2-0.5L48,673.3C48.7,672.6,48.7,671.5,48,670.8z"/>
<path class="st1" d="M25.7,747.5l-3,3L6.5,734.3L22.7,718l3,3l-11.1,11.1h42.9v4.3H14.6L25.7,747.5z"/>
<path class="st1" d="M49.4,800.4H6.5v-4.3h42.9L38.3,785l3-3l16.3,16.3l-16.3,16.2l-3-3L49.4,800.4z"/>
<path class="st2" d="M60.4,878.2l-2.8,2.8L32,855.3L6.4,880.9l-2.8-2.8L32,849.8L60.4,878.2z"/>
<path class="st2" d="M33.2,944.1l29.5-29.5c0.7-0.7,0.7-1.8,0-2.5s-1.8-0.7-2.5,0l0,0L32,940.3L3.8,912.1c-0.7-0.7-1.8-0.7-2.5,0
	l0,0c-0.3,0.3-0.5,0.8-0.5,1.2s0.2,0.9,0.5,1.2L30.8,944C31.4,944.7,32.6,944.7,33.2,944.1z"/>
<path class="st2" d="M48,990.8l-29.5-29.5c-0.7-0.7-1.8-0.7-2.5,0l0,0c-0.7,0.7-0.7,1.8,0,2.5l0,0L44.2,992L16,1020.3
	c-0.7,0.7-0.7,1.8,0,2.5l0,0c0.3,0.3,0.8,0.5,1.2,0.5s0.9-0.2,1.2-0.5L48,993.3C48.7,992.6,48.7,991.5,48,990.8z"/>
<path class="st1" d="M10.8,1063.1v-9.8c0-6.4,2.6-12.3,6.9-16.5l0,0l0,0c4.2-4.2,10-6.8,16.4-6.8s12.3,2.6,16.5,6.9l0,0
	c4.2,4.2,6.9,10.1,6.9,16.5v9.8c0.7,0,1.3,0.2,2,0.4l0,0l0,0c0.7,0.3,1.3,0.7,1.8,1.2s0.9,1.1,1.2,1.8l0.1,0.2
	c0.2,0.6,0.4,1.3,0.4,2v9.8c0,0.7-0.2,1.5-0.4,2.1l0,0l0,0c-0.3,0.7-0.7,1.3-1.2,1.8s-1.1,0.9-1.8,1.2l-0.2,0.1
	c-0.6,0.2-1.3,0.4-2,0.4h-4.7c-0.7,0-1.5-0.2-2.1-0.4l0,0l0,0c-0.7-0.3-1.3-0.7-1.8-1.2c-1-1-1.6-2.4-1.6-3.9v-9.8
	c0-0.7,0.2-1.4,0.4-2.1l0,0l0,0c0.3-0.7,0.7-1.3,1.2-1.8c1-1,2.3-1.6,3.8-1.6v-8.7c-1-2.9-2.6-5.4-4.7-7.5l0,0l0,0
	c-3.5-3.5-8.3-5.7-13.7-5.7c-5.3,0-10.2,2.2-13.7,5.7c-2.1,2.1-3.7,4.7-4.7,7.5v8.7c0.7,0,1.4,0.2,2,0.4l0,0l0,0
	c0.7,0.3,1.3,0.7,1.8,1.2s0.9,1.1,1.2,1.8l0.1,0.2c0.2,0.6,0.4,1.3,0.4,2v9.8c0,0.7-0.2,1.5-0.4,2.1l0,0c-0.3,0.7-0.7,1.3-1.2,1.8
	s-1.1,0.9-1.8,1.2l-0.2,0.1c-0.6,0.2-1.3,0.4-2,0.4H11c-0.7,0-1.5-0.2-2.1-0.4l0,0l0,0c-0.7-0.3-1.3-0.7-1.8-1.2
	c-1-1-1.6-2.4-1.6-3.9v-9.8c0-0.7,0.2-1.4,0.4-2.1l0,0l0,0c0.3-0.7,0.7-1.3,1.2-1.8C8,1063.8,9.3,1063.2,10.8,1063.1z M13.3,1068.1
	H11c-0.2,0-0.3,0.1-0.4,0.2c-0.1,0.1-0.1,0.1-0.1,0.2s0,0.1,0,0.2v9.8c0,0.2,0.1,0.3,0.2,0.4c0.1,0.1,0.1,0.1,0.2,0.1
	c0.1,0,0.1,0,0.2,0h4.7c0.1,0,0.1,0,0.2,0l0,0c0.1,0,0.1-0.1,0.2-0.1c0.1-0.1,0.1-0.1,0.1-0.2l0,0c0-0.1,0-0.1,0-0.2v-9.8
	c0-0.1,0-0.1,0-0.2l0,0c0-0.1-0.1-0.1-0.1-0.2c-0.1-0.1-0.1-0.1-0.2-0.1c-0.1,0-0.1,0-0.2,0L13.3,1068.1L13.3,1068.1z M55,1068.1
	h-2.3c-0.2,0-0.3,0.1-0.4,0.2c-0.1,0.1-0.1,0.1-0.1,0.2l0,0c0,0.1,0,0.1,0,0.2v9.8c0,0.2,0.1,0.3,0.2,0.4c0.1,0.1,0.1,0.1,0.2,0.1
	l0,0c0.1,0,0.1,0,0.2,0h4.7c0.1,0,0.1,0,0.2,0l0,0c0.1,0,0.1-0.1,0.2-0.1c0.1-0.1,0.1-0.1,0.1-0.2l0,0c0-0.1,0-0.1,0-0.2v-9.8
	c0-0.1,0-0.1,0-0.2l0,0c0-0.1-0.1-0.1-0.1-0.2c-0.1-0.1-0.1-0.1-0.2-0.1l0,0c-0.1,0-0.1,0-0.2,0L55,1068.1L55,1068.1z M50.9,1045.8
	c-0.9-2.1-2.2-3.9-3.8-5.5l0,0l0,0c-3.3-3.3-7.9-5.4-13-5.4c-5,0-9.6,2.1-13,5.4c-1.6,1.6-2.9,3.4-3.8,5.5c0.3-0.3,0.6-0.7,1-1
	c4-4.1,9.6-6.6,15.8-6.6s11.7,2.5,15.8,6.6l0,0C50.2,1045.1,50.6,1045.5,50.9,1045.8z"/>
<g>
	<path class="st0" d="M32,1280c-17.7,0-32-14.3-32-32c0-17.6,14.3-32,32-32s32,14.3,32,32C64.1,1265.8,49.7,1280,32,1280 M32,1219.9
		c-15.6,0-28.2,12.6-28.2,28.2s12.6,28.2,28.2,28.2s28.2-12.6,28.2-28.2S47.5,1219.9,32,1219.9"/>
	<path class="st0" d="M41,1236.4l2.7,2.7l-20.6,20.6l-2.7-2.7L41,1236.4z"/>
	<path class="st0" d="M23,1236.4l20.6,20.6l-2.7,2.7l-20.6-20.6L23,1236.4z"/>
</g>
<path class="st2" d="M13.2,1336.8v-28h37.4v28H13.2z M15.9,1334.1h32v-22.5h-32C15.9,1311.6,15.9,1334.1,15.9,1334.1z M24.3,1302.3
	V1287h15.2v15.2C39.5,1302.3,24.3,1302.3,24.3,1302.3z M27.1,1299.5h9.8v-9.8h-9.8C27.1,1289.8,27.1,1299.5,27.1,1299.5z"/>
<path class="st2" d="M61.9,1367.9v3.6h-8.4v8.4H50v-8.4h-8.4v-3.6H50v-8.4h3.5v8.4H61.9L61.9,1367.9z M34,1370.2
	c5.4,6,8.9,15.6,8.9,25.2c0,8-10.6,11.7-20.4,11.7c-5.1,0-10-0.9-13.6-2.6c-4.4-2.1-6.8-5.3-6.8-9c0-9.5,3.4-19.2,8.9-25.2
	c-2.4-2.7-3.9-6.3-3.9-10.2c0-8.5,6.9-15.4,15.4-15.4s15.4,6.9,15.4,15.4C37.9,1363.9,36.4,1367.5,34,1370.2z M10.5,1360
	c0,6.6,5.3,11.9,11.9,11.9s11.9-5.3,11.9-11.9s-5.3-11.9-11.9-11.9S10.5,1353.4,10.5,1360z M39.3,1395.4c0-8.6-3.2-17.5-8-22.8
	c-2.5,1.8-5.6,2.8-8.9,2.8s-6.4-1.1-8.9-2.8c-4.8,5.3-8,14.2-8,22.8c0,4,5.8,8.1,16.9,8.1S39.3,1399.4,39.3,1395.4z"/>
<path class="st1" d="M61.9,1431.9v3.6h-8.4v8.4H50v-8.4h-8.4v-3.6H50v-8.4h3.5v8.4H61.9L61.9,1431.9z M34,1434.2
	c5.4,6,8.9,15.6,8.9,25.2c0,8-10.6,11.7-20.4,11.7c-5.1,0-10-0.9-13.6-2.6c-4.4-2.1-6.8-5.3-6.8-9c0-9.5,3.4-19.2,8.9-25.2
	c-2.4-2.7-3.9-6.3-3.9-10.2c0-8.5,6.9-15.4,15.4-15.4s15.4,6.9,15.4,15.4C37.9,1427.9,36.4,1431.5,34,1434.2z M10.5,1424
	c0,6.6,5.3,11.9,11.9,11.9s11.9-5.3,11.9-11.9s-5.3-11.9-11.9-11.9S10.5,1417.4,10.5,1424z M39.3,1459.4c0-8.6-3.2-17.5-8-22.8
	c-2.5,1.8-5.6,2.8-8.9,2.8s-6.4-1.1-8.9-2.8c-4.8,5.3-8,14.2-8,22.8c0,4,5.8,8.1,16.9,8.1S39.3,1463.4,39.3,1459.4z"/>
<path class="st0" d="M58.6,1544.2l-2.8-2.8L32,1565.2l-23.8-23.8l-2.8,2.8l23.8,23.8l-23.8,23.8l2.8,2.8l23.8-23.8l23.8,23.8
	l2.8-2.8L34.8,1568L58.6,1544.2z"/>
<path class="st2" d="M32,1642.3l-27.4-19.4l27.4-19.4l27.4,19.4L32,1642.3z M8.3,1622.9l23.7,16.8l23.7-16.8L32,1606.2L8.3,1622.9z
	 M58.2,1632.9l-1.2-1.7l-25,17.7l-25-17.7l-1.2,1.7l26.2,18.5L58.2,1632.9z M58.2,1641.9l-1.2-1.7l-25,17.7l-25-17.7l-1.2,1.7
	l26.2,18.5L58.2,1641.9z"/>
<path class="st4" d="M9.1,1690.1l19.7,17.2c0.8,0.7,2.2,0.7,3,0l19.7-17.2"/>
<path class="st3" d="M32.3,1855.4c-17.3,0-31.4-14.1-31.4-31.4s14.1-31.4,31.4-31.4s31.4,14.1,31.4,31.4
	C63.8,1841.3,49.6,1855.4,32.3,1855.4z M32.3,1795.7c-15.6,0-28.3,12.7-28.3,28.3s12.7,28.3,28.3,28.3s28.3-12.7,28.3-28.3
	S47.9,1795.7,32.3,1795.7z"/>
<path class="st3" d="M29.8,1834.5c0-2.2,0.3-3.9,0.9-5.3c0.6-1.3,1.7-2.9,3.6-4.7c1.8-1.8,3-3.1,3.5-3.8c0.5-0.7,0.9-1.6,1.2-2.5
	s0.4-1.9,0.4-3.1c0-2.3-0.6-4.1-1.8-5.4s-2.9-2-5.1-2c-2.2,0-4,0.6-5.4,1.9s-2.1,3-2.1,5.1h-3.3c0-3,1.1-5.5,3.1-7.3
	s4.6-2.7,7.7-2.7c3.2,0,5.7,0.9,7.5,2.8s2.8,4.4,2.8,7.5c0,2-0.5,3.9-1.4,5.6s-2.6,3.8-5.2,6.1c-2.1,1.8-3.1,4.3-3.1,7.6h-3.3
	L29.8,1834.5z M29.4,1840.2c0-0.6,0.2-1.2,0.6-1.6s1-0.7,1.7-0.7s1.3,0.2,1.7,0.7c0.4,0.4,0.6,1,0.6,1.6s-0.2,1.1-0.6,1.5
	c-0.4,0.4-1,0.6-1.7,0.6s-1.3-0.2-1.7-0.6C29.6,1841.3,29.4,1840.8,29.4,1840.2z"/>
<path d="M3.8,2180.3h6.3v6.3H3.8V2180.3z M3.8,2192.8h6.3v6.3H3.8V2192.8z M3.8,2205.4h6.3v6.3H3.8V2205.4z M3.8,2217.9h6.3v6.3H3.8
	V2217.9z M3.8,2230.5h6.3v6.3H3.8V2230.5z M16.3,2180.3h6.3v6.3h-6.3V2180.3z M16.3,2192.8h6.3v6.3h-6.3V2192.8z M16.3,2205.4h6.3
	v6.3h-6.3V2205.4z M16.3,2217.9h6.3v6.3h-6.3V2217.9z M16.3,2230.5h6.3v6.3h-6.3V2230.5z M28.9,2180.3h6.3v6.3h-6.3L28.9,2180.3z
	 M28.9,2192.8h6.3v6.3h-6.3L28.9,2192.8z M28.9,2205.4h6.3v6.3h-6.3L28.9,2205.4z M28.9,2217.9h6.3v6.3h-6.3L28.9,2217.9z
	 M28.9,2230.5h6.3v6.3h-6.3L28.9,2230.5z M41.4,2180.3h6.3v6.3h-6.3V2180.3z M41.4,2192.8h6.3v6.3h-6.3V2192.8z M41.4,2205.4h6.3
	v6.3h-6.3V2205.4z M41.4,2217.9h6.3v6.3h-6.3V2217.9z M41.4,2230.5h6.3v6.3h-6.3V2230.5z M54,2180.3h6.3v6.3H54V2180.3z M54,2192.8
	h6.3v6.3H54V2192.8z M54,2205.4h6.3v6.3H54V2205.4z M54,2217.9h6.3v6.3H54V2217.9z M54,2230.5h6.3v6.3H54V2230.5z"/>
<path class="st1" d="M3.8,2244.3h6.3v6.3H3.8V2244.3z M3.8,2256.8h6.3v6.3H3.8V2256.8z M3.8,2269.4h6.3v6.3H3.8V2269.4z M3.8,2281.9
	h6.3v6.3H3.8V2281.9z M3.8,2294.5h6.3v6.3H3.8V2294.5z M16.3,2244.3h6.3v6.3h-6.3V2244.3z M16.3,2256.8h6.3v6.3h-6.3V2256.8z
	 M16.3,2269.4h6.3v6.3h-6.3V2269.4z M16.3,2281.9h6.3v6.3h-6.3V2281.9z M16.3,2294.5h6.3v6.3h-6.3V2294.5z M28.9,2244.3h6.3v6.3
	h-6.3L28.9,2244.3z M28.9,2256.8h6.3v6.3h-6.3L28.9,2256.8z M28.9,2269.4h6.3v6.3h-6.3L28.9,2269.4z M28.9,2281.9h6.3v6.3h-6.3
	L28.9,2281.9z M28.9,2294.5h6.3v6.3h-6.3L28.9,2294.5z M41.4,2244.3h6.3v6.3h-6.3V2244.3z M41.4,2256.8h6.3v6.3h-6.3V2256.8z
	 M41.4,2269.4h6.3v6.3h-6.3V2269.4z M41.4,2281.9h6.3v6.3h-6.3V2281.9z M41.4,2294.5h6.3v6.3h-6.3V2294.5z M54,2244.3h6.3v6.3H54
	V2244.3z M54,2256.8h6.3v6.3H54V2256.8z M54,2269.4h6.3v6.3H54V2269.4z M54,2281.9h6.3v6.3H54V2281.9z M54,2294.5h6.3v6.3H54V2294.5
	z"/>
<path class="st2" d="M3.8,2308.3h6.3v6.3H3.8V2308.3z M3.8,2320.8h6.3v6.3H3.8V2320.8z M3.8,2333.4h6.3v6.3H3.8V2333.4z M3.8,2345.9
	h6.3v6.3H3.8V2345.9z M3.8,2358.5h6.3v6.3H3.8V2358.5z M16.3,2308.3h6.3v6.3h-6.3V2308.3z M16.3,2320.8h6.3v6.3h-6.3V2320.8z
	 M16.3,2333.4h6.3v6.3h-6.3V2333.4z M16.3,2345.9h6.3v6.3h-6.3V2345.9z M16.3,2358.5h6.3v6.3h-6.3V2358.5z M28.9,2308.3h6.3v6.3
	h-6.3L28.9,2308.3z M28.9,2320.8h6.3v6.3h-6.3L28.9,2320.8z M28.9,2333.4h6.3v6.3h-6.3L28.9,2333.4z M28.9,2345.9h6.3v6.3h-6.3
	L28.9,2345.9z M28.9,2358.5h6.3v6.3h-6.3L28.9,2358.5z M41.4,2308.3h6.3v6.3h-6.3V2308.3z M41.4,2320.8h6.3v6.3h-6.3V2320.8z
	 M41.4,2333.4h6.3v6.3h-6.3V2333.4z M41.4,2345.9h6.3v6.3h-6.3V2345.9z M41.4,2358.5h6.3v6.3h-6.3V2358.5z M54,2308.3h6.3v6.3H54
	V2308.3z M54,2320.8h6.3v6.3H54V2320.8z M54,2333.4h6.3v6.3H54V2333.4z M54,2345.9h6.3v6.3H54V2345.9z M54,2358.5h6.3v6.3H54V2358.5
	z"/>
<path class="st0" d="M3.8,2372.3h6.3v6.3H3.8V2372.3z M3.8,2384.8h6.3v6.3H3.8V2384.8z M3.8,2397.4h6.3v6.3H3.8V2397.4z M3.8,2409.9
	h6.3v6.3H3.8V2409.9z M3.8,2422.5h6.3v6.3H3.8V2422.5z M16.3,2372.3h6.3v6.3h-6.3V2372.3z M16.3,2384.8h6.3v6.3h-6.3V2384.8z
	 M16.3,2397.4h6.3v6.3h-6.3V2397.4z M16.3,2409.9h6.3v6.3h-6.3V2409.9z M16.3,2422.5h6.3v6.3h-6.3V2422.5z M28.9,2372.3h6.3v6.3
	h-6.3L28.9,2372.3z M28.9,2384.8h6.3v6.3h-6.3L28.9,2384.8z M28.9,2397.4h6.3v6.3h-6.3L28.9,2397.4z M28.9,2409.9h6.3v6.3h-6.3
	L28.9,2409.9z M28.9,2422.5h6.3v6.3h-6.3L28.9,2422.5z M41.4,2372.3h6.3v6.3h-6.3V2372.3z M41.4,2384.8h6.3v6.3h-6.3V2384.8z
	 M41.4,2397.4h6.3v6.3h-6.3V2397.4z M41.4,2409.9h6.3v6.3h-6.3V2409.9z M41.4,2422.5h6.3v6.3h-6.3V2422.5z M54,2372.3h6.3v6.3H54
	V2372.3z M54,2384.8h6.3v6.3H54V2384.8z M54,2397.4h6.3v6.3H54V2397.4z M54,2409.9h6.3v6.3H54V2409.9z M54,2422.5h6.3v6.3H54V2422.5
	z"/>
<path class="st5" d="M64.1,2528.5c0,17.6-14.2,31.8-31.8,31.8s-31.8-14.2-31.8-31.8s14.2-31.8,31.8-31.8S64.1,2510.9,64.1,2528.5z
	 M28.9,2546.8c1,0.9,2.2,1.3,3.7,1.3c1.5,0,2.7-0.4,3.7-1.3c1-0.9,1.5-2,1.5-3.3s-0.5-2.5-1.5-3.3c-1-0.9-2.2-1.3-3.7-1.3
	s-2.7,0.4-3.7,1.3c-1,0.9-1.5,2-1.5,3.3S27.9,2545.9,28.9,2546.8z M37.5,2507.7h-9.8l1.1,27.3h7.5L37.5,2507.7z"/>
<path class="st6" d="M18.8,2585l-9.2,5.3c1.1-11.2,10.6-20.1,22.1-20.1c5.9,0,11.5,2.3,15.7,6.5l1.7-1.7c-4.7-4.7-10.9-7.2-17.5-7.2
	c-12.3,0-22.5,9-24.4,20.7l-4.6-7.9l-2.1,1.2l7.2,12.4l12.2-7.1C19.9,2587.1,18.8,2585,18.8,2585z M62.9,2603.2l-7.2-12.4l-12.2,7.1
	l1.2,2.1l9.2-5.3c-0.5,5.1-2.7,9.9-6.4,13.5c-8.7,8.7-22.8,8.7-31.5,0l-1.7,1.8c4.8,4.8,11.1,7.2,17.5,7.2c6.3,0,12.7-2.4,17.5-7.2
	c3.7-3.7,6.1-8.4,6.9-13.5l4.6,7.9C60.8,2604.4,62.9,2603.2,62.9,2603.2z"/>
<path class="st7" d="M12.3,2951h40.3c2.7,0,4.8,2.2,4.8,4.8v40.3c0,2.7-2.2,4.8-4.8,4.8H12.3c-2.7,0-4.8-2.2-4.8-4.8v-40.3
	C7.5,2953.2,9.7,2951,12.3,2951z"/>
<path class="st2" d="M38.2,2975.6l-9.2,5v-9.9l4.2,2.3L38.2,2975.6z M49.2,2968.9c0,0-0.3-2.4-1.4-3.5c-1.3-1.4-2.7-1.4-3.4-1.5
	c-4.8-0.4-11.9-0.4-11.9-0.4s-7.2,0-11.9,0.4c-0.7,0.1-2.1,0.1-3.4,1.5c-1,1.1-1.4,3.5-1.4,3.5s-0.3,2.9-0.3,5.8v2.6
	c0,2.9,0.3,5.8,0.3,5.8s0.3,2.4,1.4,3.5c1.3,1.4,3,1.4,3.8,1.5c2.7,0.3,11.6,0.4,11.6,0.4s7.2,0,11.9-0.4c0.7-0.1,2.1-0.1,3.4-1.5
	c1-1.1,1.4-3.5,1.4-3.5s0.3-2.9,0.3-5.8v-2.7C49.5,2971.8,49.2,2968.9,49.2,2968.9z"/>
<path class="st1" d="M56.2,3135.2h-49v-57.8h42.5l6.5,6.5V3135.2z M9.4,3133H54v-48.2l-5.2-5.2H9.4V3133z"/>
<path class="st1" d="M55.1,3085.5h-6.9v-6.9h2.2v4.8h4.8L55.1,3085.5L55.1,3085.5z M14.1,3083.3h11.7v2.2H14.1V3083.3z M50.3,3108.9
	H13v-19.7h37.3V3108.9z M15.2,3107.5h32.9v-17H15.2V3107.5z"/>
<path class="st1" d="M18.9,3090.2h2.2v18.6h-2.2V3090.2z M24.7,3090.2h2.2v18.6h-2.2V3090.2z M30.6,3090.2h2.2v18.6h-2.2
	L30.6,3090.2z M36.4,3090.2h2.2v18.6h-2.2V3090.2z M42.3,3090.2h2.2v18.6h-2.2V3090.2z"/>
<path class="st1" d="M14.1,3106.7h35.1v2.2H14.1V3106.7z M14.1,3100.8h35.1v2.2H14.1V3100.8z M14.1,3095h35.1v2.2H14.1V3095z
	 M24.2,3118.2c0,0.6-0.1,1.1-0.3,1.6s-0.5,1-0.8,1.3c-0.5,0.5-1,0.9-1.7,1.1s-1.4,0.4-2.3,0.4h-2v4.1h-3.2v-12.5h5.3
	c0.8,0,1.5,0.1,2,0.2s1,0.3,1.5,0.6s0.9,0.8,1.2,1.3C24.1,3116.9,24.2,3117.5,24.2,3118.2z M20.9,3118.3c0-0.3-0.1-0.7-0.3-0.9
	c-0.2-0.3-0.4-0.4-0.7-0.5c-0.3-0.1-0.7-0.2-1-0.2s-0.7,0-1.3,0H17v3.7h1c0.5,0,1,0,1.4-0.1s0.6-0.2,0.9-0.4
	c0.2-0.2,0.4-0.4,0.5-0.6C20.8,3119,20.9,3118.7,20.9,3118.3z M38.3,3120.6c0,1.2-0.3,2.2-0.8,3.1s-1.2,1.6-2,2.1
	c-0.6,0.4-1.3,0.6-2,0.8c-0.7,0.1-1.6,0.2-2.6,0.2h-4.4v-12.5H31c1,0,1.9,0.1,2.6,0.3s1.4,0.4,1.9,0.7c0.9,0.5,1.5,1.2,2,2.1
	C38.1,3118.3,38.3,3119.3,38.3,3120.6z M35,3120.5c0-0.8-0.2-1.5-0.5-2.1s-0.8-1-1.4-1.4c-0.3-0.2-0.7-0.3-1-0.3
	c-0.3-0.1-0.9-0.1-1.6-0.1h-0.8v7.8h0.8c0.8,0,1.3,0,1.7-0.1c0.4-0.1,0.7-0.2,1-0.4c0.6-0.3,1-0.8,1.3-1.3
	C34.8,3122,35,3121.4,35,3120.5z M49.7,3116.7H44v2.3h5.3v2.4H44v5.3h-3.2v-12.5h9L49.7,3116.7L49.7,3116.7z"/>
<path class="st1" d="M5.1,3198.5l2.9-21.1l2,0.3l-2.5,18.4l18.4-2.5l0.3,2L5.1,3198.5z M56.5,3162.2l-1.4-1.4l0.9-0.9
	c1-1,1-2.7,0-3.7l-8.5-8.5c-1-1-2.7-1-3.7,0l-0.9,0.9l-1.4-1.4l0.9-0.9c1.8-1.8,4.7-1.8,6.5,0l8.5,8.5c1.8,1.8,1.8,4.7,0,6.5
	C57.3,3161.3,56.5,3162.2,56.5,3162.2z"/>
<path class="st1" d="M54,3168.1l-18.5-18.5l4.8-4.8l18.5,18.5L54,3168.1z M38.4,3149.6l15.6,15.6l2-2l-15.6-15.6L38.4,3149.6z"/>
<path class="st1" d="M26,3196.1l-18.5-18.5l29.4-29.4l18.5,18.5L26,3196.1z M10.4,3177.6l15.6,15.6l26.6-26.6L37,3151L10.4,3177.6z"
	/>
<path class="st1" d="M11.3,3179.9l28-28l1.4,1.4l-28,28L11.3,3179.9z"/>
<path class="st1" d="M14.1,3182.7l28-28l1.4,1.4l-28,28L14.1,3182.7z"/>
<path class="st1" d="M16.8,3185.4l28-28l1.4,1.4l-28,28L16.8,3185.4z"/>
<path class="st1" d="M19.5,3188.1l28-28l1.4,1.4l-28,28L19.5,3188.1z"/>
<path class="st1" d="M22.3,3190.9l28-28l1.4,1.4l-28,28L22.3,3190.9z"/>
<path class="st1" d="M6.6,3190.9l1.4-1.4l6.1,6.1l-1.4,1.4L6.6,3190.9z"/>
<path class="st2" d="M61.4,3212.4l-29.3,18.5l-29.3-18.5H61.4z M62.7,3250.1v-33.7l-19.2,12.1C43.5,3228.5,62.7,3250.1,62.7,3250.1z
	 M4.1,3251.6h56l-19.6-22l-8.4,5.3l-8.4-5.3L4.1,3251.6z M20.7,3228.5l-19.2-12.1v33.7C1.4,3250.1,20.7,3228.5,20.7,3228.5z"/>
<path class="st1" d="M61.4,3276.4l-29.3,18.5l-29.3-18.5H61.4z M62.7,3314.1v-33.7l-19.2,12.1C43.5,3292.5,62.7,3314.1,62.7,3314.1z
	 M4.1,3315.6h56l-19.6-22l-8.4,5.3l-8.4-5.3L4.1,3315.6z M20.7,3292.5l-19.2-12.1v33.7C1.4,3314.1,20.7,3292.5,20.7,3292.5z"/>
<path class="st1" d="M58.6,3336.2l-2.8-2.8L32,3357.2l-23.8-23.8l-2.8,2.8l23.8,23.8l-23.8,23.8l2.8,2.8l23.8-23.8l23.8,23.8
	l2.8-2.8L34.8,3360L58.6,3336.2z"/>
<path class="st2" d="M58.6,3400.2l-2.8-2.8L32,3421.2l-23.8-23.8l-2.8,2.8l23.8,23.8l-23.8,23.8l2.8,2.8l23.8-23.8l23.8,23.8
	l2.8-2.8L34.8,3424L58.6,3400.2z"/>
<path class="st2" d="M3.8,3471.1h56.4v3.8H3.8V3471.1z M3.8,3502.4H32v3.8H3.8V3502.4z M3.8,3486.8h56.4v3.8H3.8V3486.8z"/>
<path class="st1" d="M56.2,3532H8c-1.1,0-2,0.9-2,2v4c0,1.1,0.9,2,2,2h48.2c1.1,0,2-0.9,2-2v-4C58.2,3532.9,57.3,3532,56.2,3532z
	 M56.2,3548.1H8c-1.1,0-2,0.9-2,2v4c0,1.1,0.9,2,2,2h48.2c1.1,0,2-0.9,2-2v-4C58.2,3549,57.3,3548.1,56.2,3548.1z M56.2,3564.2H8
	c-1.1,0-2,0.9-2,2v4c0,1.1,0.9,2,2,2h48.2c1.1,0,2-0.9,2-2v-4C58.2,3565.1,57.3,3564.2,56.2,3564.2z"/>
<path class="st2" d="M58.6,3592.2l-2.8-2.8L32,3613.2l-23.8-23.8l-2.8,2.8l23.8,23.8l-23.8,23.8l2.8,2.8l23.8-23.8l23.8,23.8
	l2.8-2.8L34.8,3616L58.6,3592.2z"/>
<path class="st1" d="M34.5,3767.6l-14.6-33.2c-0.8-1.9-1.2-3.9-1.2-5.9c0-8.7,7.1-15.9,15.9-15.9s15.9,7.1,15.9,15.9
	c0,2-0.4,4-1.1,5.9L34.5,3767.6z M34.6,3714.6c-7.6,0-13.8,6.2-13.8,13.8c0,1.8,0.3,3.5,1,5.2l12.7,29l13-29c0.7-1.6,1-3.4,1-5.1
	C48.5,3720.8,42.3,3714.6,34.6,3714.6z M34.6,3735.9c-4.1,0-7.5-3.4-7.5-7.5s3.4-7.5,7.5-7.5s7.5,3.4,7.5,7.5
	C42.1,3732.6,38.8,3735.9,34.6,3735.9z M34.6,3723c-3,0-5.5,2.4-5.5,5.5c0,3,2.5,5.5,5.5,5.5s5.5-2.5,5.5-5.5
	C40.1,3725.4,37.6,3723,34.6,3723z"/>
<path class="st1" d="M58.2,3752.6H40.7c-0.2,0.4-0.3,0.8-0.5,1.3h17l4.3,16.6h-53l4.1-16.6h16l-0.5-1.3H11.6l-4.7,19.1h56.2
	L58.2,3752.6z"/>
<path class="st1" d="M58.2,3752.6v-0.3H40.5l-0.1,0.2c-0.2,0.4-0.3,0.8-0.5,1.3l-0.2,0.4H57l4.1,16H8.9l3.9-16h16.3l-0.8-1.9H11.4
	l-4.9,19.8h57l-5.1-19.8h-0.2V3752.6l-0.3,0.1l4.9,18.7H7.3l4.6-18.5h16l0.3,0.6H12.4l-4.3,17.3h53.8l-4.5-17.3H40.2v0.3l0.3,0.1
	c0.2-0.5,0.4-0.9,0.5-1.3l-0.3-0.1v0.3h17.5V3752.6l-0.3,0.1L58.2,3752.6z"/>
<path class="st2" d="M34.5,3831.6l-14.6-33.2c-0.8-1.9-1.2-3.9-1.2-5.9c0-8.7,7.1-15.9,15.9-15.9s15.9,7.1,15.9,15.9
	c0,2-0.4,4-1.1,5.9L34.5,3831.6z M34.6,3778.6c-7.6,0-13.8,6.2-13.8,13.8c0,1.8,0.3,3.5,1,5.2l12.7,29l13-29c0.7-1.6,1-3.4,1-5.1
	C48.5,3784.8,42.3,3778.6,34.6,3778.6z M34.6,3799.9c-4.1,0-7.5-3.4-7.5-7.5s3.4-7.5,7.5-7.5s7.5,3.4,7.5,7.5
	C42.1,3796.6,38.8,3799.9,34.6,3799.9z M34.6,3787c-3,0-5.5,2.4-5.5,5.5c0,3,2.5,5.5,5.5,5.5s5.5-2.5,5.5-5.5
	C40.1,3789.4,37.6,3787,34.6,3787z"/>
<path class="st2" d="M58.2,3816.6H40.7c-0.2,0.4-0.3,0.8-0.5,1.3h17l4.3,16.6h-53l4.1-16.6h16l-0.5-1.3H11.6l-4.7,19.1h56.2
	L58.2,3816.6z"/>
<path class="st2" d="M58.2,3816.6v-0.3H40.5l-0.1,0.2c-0.2,0.4-0.3,0.8-0.5,1.3l-0.2,0.4H57l4.1,16H8.9l3.9-16h16.3l-0.8-1.9H11.4
	l-4.9,19.8h57l-5.1-19.8h-0.2V3816.6l-0.3,0.1l4.9,18.7H7.3l4.6-18.5h16l0.3,0.6H12.4l-4.3,17.3h53.8l-4.5-17.3H40.2v0.3l0.3,0.1
	c0.2-0.5,0.4-0.9,0.5-1.3l-0.3-0.1v0.3h17.5V3816.6l-0.3,0.1L58.2,3816.6z"/>
<g>
	<path class="st1" d="M32,3842.9c-4.5,0-8.2,3.7-8.2,8.1c0,4.5,3.7,8.2,8.2,8.2s8.2-3.7,8.2-8.2C40.2,3846.6,36.5,3842.9,32,3842.9z
		 M32,3856.5c-3,0-5.4-2.4-5.4-5.4s2.4-5.4,5.4-5.4s5.4,2.4,5.4,5.4S35,3856.5,32,3856.5z M52.9,3859.2c4.5,0,8.2-3.7,8.2-8.2
		s-3.7-8.1-8.2-8.1s-8.2,3.7-8.2,8.1C44.8,3855.6,48.4,3859.2,52.9,3859.2z M52.9,3845.7c3,0,5.4,2.4,5.4,5.4s-2.4,5.4-5.4,5.4
		s-5.4-2.4-5.4-5.4C47.5,3848.1,49.9,3845.7,52.9,3845.7z M52.9,3863.9c-4.5,0-8.2,3.7-8.2,8.2s3.7,8.1,8.2,8.1s8.2-3.7,8.2-8.2
		S57.4,3863.9,52.9,3863.9z M52.9,3877.4c-3,0-5.4-2.4-5.4-5.4s2.4-5.4,5.4-5.4s5.4,2.4,5.4,5.4C58.3,3875,55.9,3877.4,52.9,3877.4z
		 M11.1,3884.8c-4.5,0-8.2,3.7-8.2,8.2s3.7,8.1,8.2,8.1s8.1-3.7,8.1-8.1C19.2,3888.4,15.6,3884.8,11.1,3884.8z M11.1,3898.3
		c-3,0-5.4-2.4-5.4-5.4s2.4-5.4,5.4-5.4s5.4,2.4,5.4,5.4C16.5,3895.9,14.1,3898.3,11.1,3898.3z M31.8,3863.9c-4.5,0-8.2,3.7-8.2,8.2
		s3.7,8.1,8.2,8.1s8.1-3.7,8.2-8.1C40,3867.5,36.3,3863.9,31.8,3863.9z M31.8,3877.4c-3,0-5.4-2.4-5.4-5.4s2.4-5.4,5.4-5.4
		s5.4,2.4,5.4,5.4C37.3,3875,34.8,3877.4,31.8,3877.4z M31.8,3884.8c-4.5,0-8.2,3.7-8.2,8.2s3.7,8.1,8.2,8.1s8.1-3.7,8.2-8.1
		C40,3888.4,36.3,3884.8,31.8,3884.8z M31.8,3898.3c-3,0-5.4-2.4-5.4-5.4s2.4-5.4,5.4-5.4s5.4,2.4,5.4,5.4
		C37.3,3895.9,34.8,3898.3,31.8,3898.3z M52.9,3884.8c-4.5,0-8.2,3.7-8.2,8.2s3.7,8.1,8.2,8.1s8.2-3.7,8.2-8.1
		C61.1,3888.4,57.4,3884.8,52.9,3884.8z M52.9,3898.3c-3,0-5.4-2.4-5.4-5.4s2.4-5.4,5.4-5.4s5.4,2.4,5.4,5.4
		C58.3,3895.9,55.9,3898.3,52.9,3898.3z M11.1,3842.9c-4.5,0-8.2,3.7-8.2,8.1c0,4.5,3.7,8.2,8.2,8.2s8.2-3.7,8.1-8.2
		C19.3,3846.6,15.6,3842.9,11.1,3842.9z M11.1,3856.5c-3,0-5.4-2.4-5.4-5.4s2.4-5.4,5.4-5.4s5.4,2.4,5.4,5.4
		S14.1,3856.5,11.1,3856.5z M11.1,3863.8c-4.5,0-8.2,3.7-8.2,8.2s3.7,8.2,8.2,8.2s8.1-3.7,8.1-8.2S15.6,3863.8,11.1,3863.8z
		 M11.1,3877.4c-3,0-5.4-2.4-5.4-5.4s2.4-5.4,5.4-5.4s5.4,2.4,5.4,5.4S14.1,3877.4,11.1,3877.4z"/>
</g>
<path class="st1" d="M11.1,3944.2c-4.5,0-8.2-3.7-8.2-8.1c0-4.5,3.7-8.2,8.2-8.2s8.2,3.7,8.2,8.2
	C19.3,3940.5,15.6,3944.2,11.1,3944.2z M11.1,3930.6c-3,0-5.4,2.4-5.4,5.4s2.4,5.4,5.4,5.4s5.4-2.4,5.4-5.4S14.1,3930.6,11.1,3930.6
	z M11.1,3965.1c-4.5,0-8.2-3.7-8.2-8.1c0-4.5,3.7-8.2,8.2-8.2s8.2,3.7,8.2,8.2C19.3,3961.4,15.6,3965.1,11.1,3965.1z M11.1,3951.5
	c-3,0-5.4,2.4-5.4,5.4s2.4,5.4,5.4,5.4s5.4-2.4,5.4-5.4S14.1,3951.5,11.1,3951.5z M61.5,3913.8H25v2.7h36.5V3913.8z M61.5,3934.7H25
	v2.7h36.5V3934.7z M61.5,3955.6H25v2.7h36.5V3955.6z M11.1,3906.9c-4.5,0-8.2,3.7-8.2,8.1c0,4.5,3.7,8.2,8.2,8.2s8.2-3.7,8.1-8.2
	C19.3,3910.6,15.6,3906.9,11.1,3906.9z M11.1,3920.5c-3,0-5.4-2.4-5.4-5.4s2.4-5.4,5.4-5.4s5.4,2.4,5.4,5.4S14.1,3920.5,11.1,3920.5
	z"/>
<path class="st2" d="M53.5,3985.6v-7.9H2.3v39.3c0,3,2.4,5.4,5.4,5.4h48.7c3,0,5.4-2.4,5.4-5.4v-31.3h-8.3V3985.6z M4.9,4016.9
	v-36.7h46v36.7c0,1,0.3,1.9,0.8,2.7h-44C6.1,4019.6,4.9,4018.4,4.9,4016.9z M59,4016.9c0,1.5-1.2,2.7-2.7,2.7s-2.7-1.2-2.7-2.7
	v-28.7H59V4016.9z M22.3,3986.5H10.8v14.4h11.5V3986.5z M19.7,3998.3h-6.2v-9.2h6.2V3998.3z M26.6,3989.9h18.3v2.6H26.6V3989.9z
	 M35.7,3997.4h-9.2v-2.6h9.2V3997.4z M11,4004.3h32.7v2.6H11V4004.3z M11,4009.2h23.6v2.6H11V4009.2z"/>
<path class="st1" d="M55,4093.6H8.9v-59.4H55V4093.6z M12.3,4090.2h39.3v-52.5H12.3V4090.2z M47,4081.3H16.9v2.4H47V4081.3z
	 M35.8,4064.7c0-0.8-0.3-1.6-0.9-2.2c-0.6-0.6-1.6-1.1-3-1.6c-1.9-0.6-3.4-1.4-4.4-2.3s-1.5-2.3-1.5-3.9c0-1.6,0.5-2.8,1.4-3.8
	s2.1-1.6,3.7-1.8v-3.1h2.3v3.2c1.6,0.2,2.8,0.9,3.7,2s1.3,2.7,1.3,4.6h-2.8c0-1.3-0.3-2.3-0.9-3.1c-0.6-0.8-1.4-1.2-2.5-1.2
	c-1.1,0-2,0.3-2.5,0.9c-0.6,0.6-0.8,1.4-0.8,2.4c0,0.9,0.3,1.7,0.9,2.2c0.6,0.6,1.6,1.1,3.1,1.6c2,0.6,3.4,1.4,4.3,2.3
	c0.9,0.9,1.4,2.2,1.4,3.8s-0.5,2.9-1.5,3.9s-2.3,1.5-4,1.7v2.7h-2.2v-2.7c-1.6-0.2-3-0.8-4-1.8s-1.5-2.5-1.5-4.5v-0.1h2.7
	c0,1.5,0.4,2.5,1.1,3.1s1.6,0.9,2.7,0.9c1.2,0,2.2-0.3,2.9-0.9C35.5,4066.6,35.8,4065.8,35.8,4064.7z"/>
<path class="st2" d="M5.6,4145.1l-0.1-34.3l26.4-11l26.4,11v34.3l-26.3,11L5.6,4145.1z M33.2,4152.8l22.5-9.4v-29.8l-22.5,9.4
	V4152.8z M30.7,4152.8V4123l-22.6-9.4l0.1,29.8C8.2,4143.4,30.7,4152.8,30.7,4152.8z M31.9,4120.7l21.8-9.1l-21.8-9.1l-21.8,9.1
	L31.9,4120.7z"/>
<path class="st2" d="M41.9,4205.9c-3.9,2.7-8.6,4.2-13.4,4.2c-13,0-23.5-10.6-23.5-23.5c0-13,10.6-23.6,23.6-23.6
	s23.5,10.6,23.5,23.6c0,6.7-2.9,13.2-8,17.6L59,4219l-2,2L41.9,4205.9z M28.5,4165.7c-11.4,0-20.8,9.3-20.8,20.8
	c0,11.4,9.3,20.8,20.8,20.8s20.8-9.3,20.8-20.8c0-2.8-0.5-5.5-1.6-8.1c-1-2.5-2.5-4.7-4.5-6.6c-1.9-1.9-4.1-3.4-6.6-4.5
	C34,4166.3,31.3,4165.7,28.5,4165.7z"/>
<path class="st0" d="M42.5,4262.8c-1.3,0-2.4,0.4-3.3,1.2l-12.5-7.2c0-0.3,0.1-0.5,0.1-0.8s0-0.5-0.1-0.8l12.5-7.2
	c0.9,0.7,2.1,1.2,3.3,1.2c3,0,5.3-2.4,5.3-5.3s-2.4-5.3-5.3-5.3s-5.3,2.4-5.3,5.3c0,0.3,0,0.5,0.1,0.8l-12.5,7.2
	c-0.9-0.7-2.1-1.2-3.3-1.2c-3,0-5.3,2.4-5.3,5.3s2.4,5.3,5.3,5.3c1.3,0,2.4-0.4,3.3-1.2l12.5,7.2c0,0.3-0.1,0.5-0.1,0.8
	c0,3,2.4,5.3,5.3,5.3s5.3-2.4,5.3-5.3C47.9,4265.2,45.5,4262.8,42.5,4262.8z"/>
<path class="st2" d="M32,4351.9c-17.6,0-32-14.3-32-32c0-17.6,14.3-32,32-32s32,14.3,32,32C63.9,4337.6,49.6,4351.9,32,4351.9z
	 M32,4290.2c-16.4,0-29.8,13.4-29.8,29.8s13.4,29.8,29.8,29.8s29.8-13.4,29.8-29.8C61.8,4303.5,48.4,4290.2,32,4290.2z"/>
<path class="st2" d="M50.8,4307.2c-0.5-0.5-1.4-0.5-1.9,0L27,4329.9l-12.1-10.6c-0.6-0.5-1.4-0.4-1.9,0.1s-0.4,1.4,0.1,1.9l13,11.4
	c0.3,0.2,0.6,0.3,0.9,0.3c0.4,0,0.7-0.1,1-0.4l22.8-23.6C51.3,4308.6,51.3,4307.7,50.8,4307.2z"/>
<path class="st0" d="M62.6,4410.6v-33.7L43.4,4389L62.6,4410.6z M4,4412h56l-19.6-22l-8.4,5.3l-8.4-5.3L4,4412z M20.6,4389
	l-19.2-12.1v33.7L20.6,4389z M16.8,4382.2l-14.1-8.9l29.2-17l29.4,17l-14.2,9v-13H16.8C16.8,4369.4,16.8,4382.2,16.8,4382.2z
	 M37.9,4376c-0.5-1.1-1.2-2-2.1-2.6c-1-0.6-2.1-0.9-3.4-0.9c-1.3,0-2.4,0.3-3.4,1c-1,0.6-1.8,1.5-2.4,2.7s-0.9,2.5-1,4
	s0.1,2.8,0.6,3.9s1.2,2,2.1,2.6c1,0.6,2.1,0.9,3.4,0.9c0.6,0,1.1-0.1,1.7-0.2s1-0.3,1.3-0.5l-0.3-0.9c-0.3,0.2-0.7,0.3-1.2,0.5
	s-1,0.2-1.4,0.2c-1.1,0-2.1-0.3-2.8-0.8c-0.8-0.5-1.4-1.3-1.8-2.2s-0.5-2.1-0.5-3.4c0.1-1.3,0.3-2.5,0.8-3.5s1.1-1.8,2-2.3
	c0.8-0.5,1.8-0.8,2.9-0.8c1.8,0,3.1,0.5,4,1.6s1.3,2.7,1.2,4.7c0,1-0.2,1.7-0.6,2.3c-0.4,0.6-0.9,0.9-1.5,0.9c-0.8,0-1.1-0.6-1-1.8
	l0.4-4.4c-0.4-0.3-0.8-0.6-1.2-0.7c-0.3-0.1-0.7-0.2-1.2-0.2c-0.6,0-1.1,0.2-1.6,0.6s-0.9,0.9-1.2,1.6c-0.3,0.7-0.5,1.5-0.6,2.4
	c-0.1,1.1,0,1.9,0.4,2.6c0.4,0.6,1,0.9,1.7,0.9c0.4,0,0.8-0.1,1.1-0.3c0.4-0.2,0.7-0.6,1-1c0.3,0.9,0.9,1.3,1.9,1.3s1.7-0.4,2.3-1.1
	s0.9-1.8,1-3.1C38.5,4378.4,38.3,4377.1,37.9,4376L37.9,4376z M31,4377.6c0.4-0.6,0.9-1,1.5-1c0.3,0,0.7,0.1,1,0.2l-0.4,4v0.1
	c-0.2,0.5-0.4,0.9-0.7,1.2c-0.3,0.3-0.6,0.4-0.9,0.4c-0.5,0-0.8-0.2-1-0.6s-0.3-1-0.2-1.7C30.4,4379.1,30.6,4378.2,31,4377.6z"/>
<path class="st2" d="M37.6,4419.6H26.2v11.4h11.4V4419.6L37.6,4419.6z M35.2,4428.5h-6.5v-6.5h6.5V4428.5z M51.8,4419.6H40.4v11.4
	h11.4C51.8,4431,51.8,4419.6,51.8,4419.6z M49.3,4428.5h-6.5v-6.5h6.5V4428.5L49.3,4428.5z M43.1,4433.5H5.7v27.7h5.5v15h41.5v-15
	h5.5v-27.7H43.1z M24.4,4473.8H13.7v-22.6h-2.5v7.6h-3V4436h10.2v21.2l0,0h6.1L24.4,4473.8L24.4,4473.8z M26.8,4473.8V4447h-2.4v7.6
	h-3.7V4436h22.4v18.7h-3.7v-7.6H37v26.8H26.8V4473.8z M55.8,4458.9h-3v-7.6h-2.5v22.6H39.5v-16.6h6.2V4436h10.1
	C55.8,4436,55.8,4458.9,55.8,4458.9z M23.5,4419.6H12.1v11.4h11.4V4419.6z M21,4428.5h-6.5v-6.5H21V4428.5L21,4428.5z"/>
<path class="st1" d="M12.9,4482.9h38.4c3,0,5.7,1.2,7.6,3.2c2,1.9,3.2,4.6,3.2,7.6v24.3c0,3-1.2,5.7-3.2,7.6s-4.7,3.2-7.6,3.2H12.9
	c-3,0-5.7-1.2-7.6-3.2c-2-2-3.2-4.7-3.2-7.6v-24.3c0-3,1.2-5.7,3.2-7.6C7.2,4484.1,9.9,4482.9,12.9,4482.9z M42.8,4507.1
	c0.2-0.1,0.4-0.3,0.5-0.5c0.4-0.7,0.2-1.5-0.5-1.9l-10-5.8h-0.1l-10-5.7c-0.2-0.1-0.5-0.2-0.8-0.2c-0.8,0-1.4,0.6-1.4,1.4v23.2
	c0,0.2,0.1,0.5,0.2,0.7c0.4,0.7,1.2,0.9,1.9,0.5l10-5.8l0,0L42.8,4507.1z M31.4,4510.5l8-4.6l-7.9-4.6h-0.1l-8-4.6v18.4L31.4,4510.5
	z M21.4,4530.8c1.4,0,2.7,0.6,3.6,1.5l0,0c0.6,0.6,1.1,1.4,1.3,2.3h33.4c0.8,0,1.4,0.6,1.4,1.4s-0.6,1.4-1.4,1.4H26.4
	c-0.2,0.9-0.7,1.6-1.3,2.3l0,0c-0.9,0.9-2.2,1.5-3.6,1.5s-2.7-0.6-3.6-1.5l0,0c-0.6-0.6-1.1-1.4-1.3-2.3h-12c-0.8,0-1.4-0.6-1.4-1.4
	s0.6-1.4,1.4-1.4h12c0.2-0.9,0.7-1.6,1.3-2.3l0,0C18.7,4531.3,20,4530.8,21.4,4530.8z M23.1,4534.2c-0.4-0.4-1-0.7-1.7-0.7
	s-1.3,0.3-1.7,0.7l0,0c-0.4,0.4-0.7,1-0.7,1.7s0.3,1.3,0.7,1.7l0,0c0.4,0.4,1,0.7,1.7,0.7s1.3-0.3,1.7-0.7l0,0
	c0.4-0.4,0.7-1,0.7-1.7C23.8,4535.3,23.5,4534.7,23.1,4534.2L23.1,4534.2z M51.3,4487.6H12.9c-1.7,0-3.2,0.7-4.4,1.8
	s-1.8,2.7-1.8,4.4v24.3c0,1.7,0.7,3.2,1.8,4.4s2.7,1.8,4.4,1.8h38.4c1.7,0,3.2-0.7,4.4-1.8c1.1-1.1,1.8-2.7,1.8-4.4v-24.3
	c0-1.7-0.7-3.2-1.8-4.4C54.5,4488.3,53,4487.6,51.3,4487.6z"/>
<path class="st2" d="M3.2,4599.9v-36.4h21.6V4552h14.3v11.5h21.6v36.4C60.7,4599.9,3.2,4599.9,3.2,4599.9z M5.7,4597.4h52.5V4566
	H39.1v3.9H24.8v-3.9H5.7V4597.4z M27.3,4567.3h9.3v-12.8h-9.3V4567.3z M12.2,4590v-15.9h12.5v15.8L12.2,4590L12.2,4590z
	 M14.7,4587.5h7.5v-10.8h-7.5C14.7,4576.7,14.7,4587.5,14.7,4587.5z M30,4586.1v-2.5h9.9v2.5H30z M30,4580.6v-2.5h20.2v2.5H30z"/>
<g>
	<g>
		<path class="st8" d="M32,61.5c-16.3,0-29.6-13.3-29.6-29.6S15.7,2.4,32,2.4S61.6,15.7,61.6,32C61.6,48.2,48.3,61.5,32,61.5z
			 M32,5.6C17.4,5.6,5.6,17.4,5.6,31.9S17.4,58.3,32,58.3s26.4-11.8,26.4-26.4C58.4,17.4,46.5,5.6,32,5.6z"/>
	</g>
	<g>
		<path class="st8" d="M32.3,51.2c-2.8,0-5.1-1.6-5.1-3.6V27.7c0-2,2.2-3.6,5.1-3.6s5.1,1.6,5.1,3.6v19.9
			C37.4,49.6,35.1,51.2,32.3,51.2z M32.3,25.7c-1.9,0-3.5,0.9-3.5,2v19.9c0,1.1,1.6,2,3.5,2c1.9,0,3.5-0.9,3.5-2V27.7
			C35.8,26.6,34.1,25.7,32.3,25.7z"/>
	</g>
	<g>
		<path class="st8" d="M32.3,22.8c-2.8,0-5.1-2.3-5.1-5.1s2.3-5.1,5.1-5.1s5.1,2.3,5.1,5.1S35.1,22.8,32.3,22.8z M32.3,14.3
			c-1.9,0-3.5,1.6-3.5,3.5s1.6,3.5,3.5,3.5c1.9,0,3.5-1.6,3.5-3.5C35.8,15.8,34.2,14.3,32.3,14.3z"/>
	</g>
</g>
<path class="st2" d="M17.1,1213.4c-3.6,0-6.5-2.9-6.5-6.5s2.9-6.5,6.5-6.5s6.5,2.9,6.5,6.5C23.7,1210.4,20.7,1213.4,17.1,1213.4
	 M17.1,1203.3c-2,0-3.6,1.6-3.6,3.6s1.6,3.6,3.6,3.6s3.6-1.6,3.6-3.6S19.1,1203.3,17.1,1203.3 M54.1,1213.4c-3.6,0-6.5-2.9-6.5-6.5
	s2.9-6.5,6.5-6.5s6.5,2.9,6.5,6.5C60.6,1210.4,57.7,1213.4,54.1,1213.4 M54.1,1203.3c-2,0-3.6,1.6-3.6,3.6s1.6,3.6,3.6,3.6
	s3.6-1.6,3.6-3.6S56,1203.3,54.1,1203.3 M62.9,1161.4H10.8l-1.6-6.8H1.1v3h5.7l0.9,3.9l0,0l6.6,28.8h0.1l1.6,6.8h38.1v-3H18.3
	l-0.9-3.9h38.9L62.9,1161.4z M16.7,1187.3l-5.3-22.9h47.7l-5.3,22.9H16.7L16.7,1187.3z"/>
<path class="st1" d="M17.1,1148.7c-3.6,0-6.5-2.9-6.5-6.5s2.9-6.5,6.5-6.5s6.5,2.9,6.5,6.5C23.7,1145.8,20.7,1148.7,17.1,1148.7
	 M17.1,1138.6c-2,0-3.6,1.6-3.6,3.6s1.6,3.6,3.6,3.6s3.6-1.6,3.6-3.6S19.1,1138.6,17.1,1138.6 M54.1,1148.7c-3.6,0-6.5-2.9-6.5-6.5
	s2.9-6.5,6.5-6.5s6.5,2.9,6.5,6.5C60.6,1145.8,57.7,1148.7,54.1,1148.7 M54.1,1138.6c-2,0-3.6,1.6-3.6,3.6s1.6,3.6,3.6,3.6
	s3.6-1.6,3.6-3.6C57.6,1140.2,56,1138.6,54.1,1138.6 M62.9,1096.8H10.8l-1.6-6.8H1.1v3h5.7l0.9,3.9l0,0l6.6,28.8h0.1l1.6,6.8h38.1
	v-3H18.3l-0.9-3.9h38.9L62.9,1096.8z M16.7,1122.6l-5.3-22.9h47.7l-5.3,22.9H16.7L16.7,1122.6z"/>
<path class="st1" d="M61.9,1495.9v3.6h-8.4v8.4H50v-8.4h-8.4v-3.6H50v-8.4h3.5v8.4H61.9L61.9,1495.9z M33.9,1498.2
	c5.4,6,8.9,15.6,8.9,25.2c0,8-10.6,11.7-20.4,11.7c-5.1,0-10-0.9-13.6-2.6c-4.4-2.1-6.9-5.3-6.9-9c0-9.5,3.4-19.2,8.9-25.2
	c-2.4-2.7-3.9-6.3-3.9-10.2c0-8.5,6.9-15.4,15.4-15.4s15.4,6.9,15.4,15.4C37.8,1491.9,36.4,1495.5,33.9,1498.2z"/>
<g>
	<path class="st1" d="M21.5,3059.5c2.1,0,4.2,0,6.4,0c0-2,0-4,0-6c-2.1,0-4.2,0-6.4,0C21.5,3055.5,21.5,3057.5,21.5,3059.5z"/>
	<rect x="43.6" y="3035.7" class="st1" width="6.4" height="6"/>
	<rect x="10.4" y="3044.6" class="st1" width="6.4" height="6"/>
	<rect x="10.4" y="3053.6" class="st1" width="6.4" height="6"/>
	<path class="st1" d="M12.1,3019.9c0.1,0,0.2,0,0.3,0c0.9,0,1.7-0.7,1.7-1.6v-8.3c0-0.9-0.8-1.6-1.7-1.6c-0.1,0-0.2,0-0.3,0
		c-0.9,0-1.7,0.7-1.7,1.6v8.3C10.4,3019.2,11.1,3019.9,12.1,3019.9z"/>
	<path class="st1" d="M48,3019.9c0.1,0,0.2,0,0.3,0c0.9,0,1.7-0.7,1.7-1.6v-8.3c0-0.9-0.8-1.6-1.7-1.6c-0.1,0-0.2,0-0.3,0
		c-0.9,0-1.7,0.7-1.7,1.6v8.3C46.3,3019.2,47,3019.9,48,3019.9z"/>
	<path class="st1" d="M32.5,3059.5c2.1,0,4.2,0,6.4,0c0-2,0-4,0-6c-2.1,0-4.2,0-6.4,0C32.5,3055.5,32.5,3057.5,32.5,3059.5z"/>
	<rect x="43.6" y="3044.6" class="st1" width="6.4" height="6"/>
	<path class="st1" d="M21.5,3050.6c2.1,0,4.2,0,6.4,0c0-2,0-4,0-6c-2.1,0-4.2,0-6.4,0C21.5,3046.6,21.5,3048.6,21.5,3050.6z"/>
	<path class="st1" d="M53.5,3013.5h-2.1c0,2,0,3.9,0,5.9c0,1.2-1.1,2.2-2.4,2.2c-0.6,0-1.2,0-1.8,0c-1.3,0-2.4-1-2.4-2.2
		c0-2,0-3.9,0-5.9H15.5c0,2,0,3.9,0,5.9c0,1.2-1.1,2.2-2.4,2.2c-0.6,0-1.2,0-1.8,0c-1.3,0-2.4-1-2.4-2.2c0-2,0-3.9,0-5.9H6.6
		c-2.5,0-4.5,1.9-4.5,4.2v48.3c0,2.3,2,4.2,4.5,4.2c15.6,0,31.3,0,46.9,0c2.5,0,4.5-1.9,4.5-4.2v-48.3
		C58,3015.4,56,3013.5,53.5,3013.5z M54.3,3068.4H5.9v-0.4h48.4C54.3,3068,54.3,3068.4,54.3,3068.4z M54.3,3066.1H5.9v-0.4h48.4
		C54.3,3065.7,54.3,3066.1,54.3,3066.1z M54.3,3063.3c0,0.4-0.3,0.6-0.7,0.6h-47c-0.4,0-0.7-0.3-0.7-0.6v-31.9
		c0-0.3,0.3-0.6,0.7-0.6h47c0.4,0,0.7,0.3,0.7,0.6V3063.3z"/>
	<path class="st1" d="M21.5,3041.6c2.1,0,4.2,0,6.4,0c0-2,0-4,0-6c-2.1,0-4.2,0-6.4,0C21.5,3037.7,21.5,3039.6,21.5,3041.6z"/>
	<path class="st1" d="M32.5,3050.6c2.1,0,4.2,0,6.4,0c0-2,0-4,0-6c-2.1,0-4.2,0-6.4,0C32.5,3046.6,32.5,3048.6,32.5,3050.6z"/>
	<path class="st1" d="M32.5,3041.6c2.1,0,4.2,0,6.4,0c0-2,0-4,0-6c-2.1,0-4.2,0-6.4,0C32.5,3037.7,32.5,3039.6,32.5,3041.6z"/>
	<circle class="st2" cx="46.6" cy="3054.5" r="14.4"/>
	<path class="st1" d="M61.9,3054.5h-1.6c0,3.8-1.5,7.2-4,9.7s-5.9,4-9.7,4s-7.2-1.5-9.7-4s-4-5.9-4-9.7s1.5-7.2,4-9.7s5.9-4,9.7-4
		s7.2,1.5,9.7,4s4,5.9,4,9.7H61.9h1.6c0-9.4-7.6-17-17-17s-17,7.6-17,17s7.6,17,17,17s17-7.6,17-17H61.9z"/>
	<path class="st1" d="M61.9,3054.5L61.9,3054.5l-1.7-0.1v0.1c0,3.8-1.5,7.2-4,9.7s-5.9,4-9.7,4s-7.2-1.5-9.7-4s-4-5.9-4-9.7
		s1.5-7.2,4-9.7s5.9-4,9.7-4s7.2,1.5,9.7,4s4,5.9,4,9.7v0.1L61.9,3054.5l1.7,0.1v-0.1c0-9.4-7.7-17.1-17.1-17.1s-17.1,7.7-17.1,17.1
		c0,9.4,7.7,17.1,17.1,17.1s17.1-7.7,17.1-17.1v-0.1L61.9,3054.5L61.9,3054.5L61.9,3054.5l1.6,0.1v-0.1h-0.1c0,4.7-1.9,8.9-5,12
		s-7.3,5-12,5s-8.9-1.9-12-5s-5-7.3-5-12s1.9-8.9,5-12s7.3-5,12-5s8.9,1.9,12,5s5,7.3,5,12h0.1v-0.1L61.9,3054.5l-1.6-0.1v0.1h0.1
		c0-3.8-1.5-7.3-4.1-9.8c-2.5-2.5-6-4.1-9.8-4.1s-7.3,1.5-9.8,4.1c-2.5,2.5-4.1,6-4.1,9.8s1.5,7.3,4.1,9.8c2.5,2.5,6,4.1,9.8,4.1
		s7.3-1.5,9.8-4.1c2.5-2.5,4.1-6,4.1-9.8h-0.1v0.1L61.9,3054.5L61.9,3054.5z"/>
	<path class="st1" d="M44.5,3047.5v14.1c0,1.1,0.9,2,2,2s2-0.9,2-2v-14.1c0-1.1-0.9-2-2-2C45.4,3045.4,44.5,3046.3,44.5,3047.5"/>
	<path class="st1" d="M44.4,3047.5v14.1c0,0.6,0.2,1.1,0.6,1.5c0.4,0.4,0.9,0.6,1.5,0.6s1.1-0.2,1.5-0.6c0.4-0.4,0.6-0.9,0.6-1.5
		v-14.1c0-0.6-0.2-1.1-0.6-1.5c-0.4-0.4-0.9-0.6-1.5-0.6C45.4,3045.4,44.4,3046.3,44.4,3047.5h0.2c0-0.5,0.2-1,0.6-1.4
		c0.3-0.3,0.8-0.6,1.4-0.6c1.1,0,1.9,0.9,1.9,1.9v14.1c0,1.1-0.9,1.9-1.9,1.9c-1.1,0-1.9-0.9-1.9-1.9v-14.1h-0.3V3047.5z"/>
	<path class="st1" d="M39.5,3056.5h14.1c1.1,0,2-0.9,2-2s-0.9-2-2-2H39.5c-1.1,0-2,0.9-2,2S38.4,3056.5,39.5,3056.5"/>
	<path class="st1" d="M39.5,3056.6h14.1c0.6,0,1.1-0.2,1.5-0.6c0.4-0.4,0.6-0.9,0.6-1.5s-0.2-1.1-0.6-1.5c-0.4-0.4-0.9-0.6-1.5-0.6
		H39.5c-0.6,0-1.1,0.2-1.5,0.6c-0.4,0.4-0.6,0.9-0.6,1.5s0.2,1.1,0.6,1.5C38.4,3056.4,38.9,3056.6,39.5,3056.6v-0.2
		c-1.1,0-1.9-0.9-1.9-1.9c0-1.1,0.9-1.9,1.9-1.9h14.1c1.1,0,1.9,0.9,1.9,1.9c0,1.1-0.9,1.9-1.9,1.9H39.5V3056.6L39.5,3056.6z"/>
</g>
<rect x="4.4" y="2755.9" class="st2" width="54.7" height="54.3"/>
<path class="st9" d="M54.4,2751.3H9.6c-5.3,0-9.6,4.3-9.6,9.6v44.8c0,5.3,4.3,9.6,9.6,9.6h44.8c5.3,0,9.6-4.3,9.6-9.6v-44.8
	C64,2755.6,59.7,2751.3,54.4,2751.3z M49.7,2774.2c0,0.4,0,0.8,0,1.2c0,12-9.2,25.9-25.9,25.9c-5.1,0-9.9-1.5-14-4.1
	c0.7,0.1,1.4,0.1,2.2,0.1c4.3,0,8.2-1.5,11.3-3.9c-4-0.1-7.4-2.7-8.5-6.3c0.6,0.1,1.1,0.2,1.7,0.2c0.8,0,1.6-0.1,2.4-0.3
	c-4.2-0.8-7.3-4.5-7.3-8.9v-0.1c1.2,0.7,2.6,1.1,4.1,1.1c-2.4-1.6-4.1-4.4-4.1-7.6c0-1.7,0.5-3.2,1.2-4.6c4.5,5.5,11.2,9.1,18.8,9.5
	c-0.2-0.7-0.2-1.4-0.2-2.1c0-5,4.1-9.1,9.1-9.1c2.6,0,5,1.1,6.7,2.9c2.1-0.4,4-1.2,5.8-2.2c-0.7,2.1-2.1,3.9-4,5
	c1.8-0.2,3.6-0.7,5.2-1.4C53,2771.4,51.4,2773,49.7,2774.2z"/>
<rect x="6.3" y="2819" class="st2" width="53.2" height="54.3"/>
<g>
	<path class="st10" d="M35.8,2849.2c-1,0-1.9,0.9-1.8,1.9c0,1,0.8,1.7,1.8,1.7s1.8-0.8,1.8-1.7C37.7,2850.1,36.9,2849.3,35.8,2849.2
		z"/>
	<path class="st10" d="M18.1,2835.4c-1.2,0-2.2,0.9-2.2,2.1c0,1.2,0.9,2.2,2.1,2.2c1.2,0,2.2-0.9,2.3-2.1
		C20.2,2836.5,19.3,2835.5,18.1,2835.4z"/>
	<path class="st10" d="M31.8,2839.7c1.2,0,2.2-1,2.1-2.2c0-1.2-1-2.1-2.2-2.1s-2.2,1-2.2,2.2C29.6,2838.8,30.6,2839.8,31.8,2839.7z"
		/>
	<path class="st10" d="M47,2849.3c-0.9,0-1.7,0.8-1.8,1.7c0,1,0.8,1.9,1.8,1.9s1.7-0.7,1.8-1.7C48.8,2850.1,48,2849.3,47,2849.3z"/>
	<path class="st10" d="M54.7,2815.3H9.9c-5.3,0-9.6,4.3-9.6,9.6v44.8c0,5.3,4.3,9.6,9.6,9.6h44.8c5.3,0,9.6-4.3,9.6-9.6v-44.8
		C64.3,2819.6,60,2815.3,54.7,2815.3z M20.1,2856.5c-0.6,0-1.3,0-1.8,0.3c-1.7,0.9-3.3,2-5.2,3.2c0.3-1.6,0.6-3,1-4.3
		c0.3-1,0.2-1.5-0.7-2.2c-5.8-4.1-8.2-10.2-6.4-16.5c1.7-5.8,5.8-9.3,11.5-11.2c7.7-2.5,16.3,0.1,21,6.1c1.7,2.2,2.7,4.7,3,7.6
		c-4.8,0.3-9,1.7-12.4,5s-5,7.4-4.6,12.5C23.5,2856.9,21.8,2856.6,20.1,2856.5z M53.9,2864.4c-1.5,1.3-2,2.4-1.1,4.1
		c0.2,0.3,0.2,0.7,0.3,1.1c-1.5-0.7-2.9-1.7-4.4-1.9s-3,0.7-4.6,0.9c-4.7,0.5-9-0.8-12.5-4.1c-6.6-6.1-5.7-15.6,2-20.6
		c6.8-4.5,16.8-3,21.7,3.2C59.6,2852.6,59.1,2859.8,53.9,2864.4z"/>
</g>
<rect x="6.2" y="2884.9" class="st2" width="53.2" height="54.3"/>
<g>
	<path class="st11" d="M26.1,2909.9c-7.8,0.8-13.7,5.6-13.2,10.7c0.5,5.2,7.3,8.7,15.1,7.9s13.7-5.6,13.2-10.8
		C40.7,2912.6,34,2909.1,26.1,2909.9z M25.9,2924.4c-3.1,0.6-6.1-1-6.7-3.6c-0.5-2.6,1.6-5.3,4.7-5.9c3.1-0.6,6.1,1,6.7,3.6
		C31.2,2921.1,29,2923.8,25.9,2924.4z"/>
	<path class="st11" d="M54.7,2879.3H9.9c-5.3,0-9.6,4.3-9.6,9.6v44.8c0,5.3,4.3,9.6,9.6,9.6h44.8c5.3,0,9.6-4.3,9.6-9.6v-44.8
		C64.3,2883.6,60,2879.3,54.7,2879.3z M28,2932.1c-9.8,0-19.8-5.3-19.8-13.3c0-4.2,2.6-9,7-13.5c5.9-6,12.9-8.8,15.5-6.2
		c1.1,1.2,1.3,3.2,0.5,5.6c-0.4,1.2,1.1,0.5,1.1,0.5c4.8-2.1,9-2.2,10.5,0.1c0.8,1.2,0.7,2.9,0,4.8c-0.3,0.9,0.1,1,0.8,1.2
		c2.7,0.9,5.7,2.9,5.7,6.6C49.3,2924,40.8,2932.1,28,2932.1z M48.3,2906.7c-0.9,0.2-1.8-0.4-2-1.3c-0.5-2.5-2.4-4.4-4.9-4.9
		c-0.9-0.2-1.5-1.1-1.3-2s1.1-1.5,2-1.3c3.8,0.8,6.8,3.8,7.5,7.5C49.8,2905.6,49.2,2906.5,48.3,2906.7z M56.4,2905
		c0,0.9-0.8,1.7-1.7,1.7s-1.7-0.8-1.7-1.7c0-6.2-5-11.1-11.1-11.1c-0.9,0-1.7-0.8-1.7-1.7s0.8-1.7,1.7-1.7
		C49.9,2890.4,56.4,2896.9,56.4,2905L56.4,2905z"/>
</g>
<rect x="8" y="2947.8" class="st2" width="48.6" height="54.3"/>
<g>
	<path class="st11" d="M54.7,2943.3H9.9c-5.3,0-9.6,4.3-9.6,9.6v44.8c0,5.3,4.3,9.6,9.6,9.6h44.8c5.3,0,9.6-4.3,9.6-9.6v-44.8
		C64.3,2947.6,60,2943.3,54.7,2943.3z M49.7,2983.9c-0.4,1.9-2,3.3-3.9,3.5c-4.5,0.5-9,0.5-13.5,0.5s-9,0-13.5-0.5
		c-1.9-0.2-3.5-1.6-3.9-3.5c-0.6-2.7-0.6-5.7-0.6-8.5s0-5.8,0.6-8.5c0.4-1.9,2-3.3,3.9-3.6c4.5-0.5,9-0.5,13.5-0.5s9,0,13.5,0.5
		c1.9,0.2,3.5,1.6,3.9,3.6c0.6,2.7,0.6,5.7,0.6,8.5C50.3,2978.1,50.3,2981.1,49.7,2983.9z"/>
	<path class="st11" d="M27.6,2980.9c3.8-2,7.6-4,11.5-6c-3.9-2-7.7-4-11.5-6C27.6,2973,27.6,2976.9,27.6,2980.9z"/>
</g>
<rect x="12.5" y="1863.3" class="st2" width="39.8" height="49.7"/>
<path class="st12" d="M54.4,1856.1H9.6c-5.3,0-9.6,4.3-9.6,9.6v44.8c0,5.3,4.3,9.6,9.6,9.6h44.8c5.3,0,9.6-4.3,9.6-9.6v-44.8
	C64,1860.3,59.7,1856.1,54.4,1856.1z M44.2,1873.3c0,0.5-0.4,0.9-0.9,0.9h-3.9c-2.7,0-3.2,1.1-3.2,3.2v4.3H43c0.2,0,0.5,0.1,0.7,0.3
	c0.2,0.2,0.3,0.4,0.3,0.7v7.4c0,0.5-0.4,0.9-0.9,0.9h-6.9v18.8c0,0.5-0.4,0.9-0.9,0.9h-7.7c-0.5,0-0.9-0.4-0.9-0.9V1891h-5.9
	c-0.5,0-0.9-0.4-0.9-0.9v-7.4c0-0.5,0.4-0.9,0.9-0.9h5.9v-5.1c0-6.8,4.3-11.1,10.8-11.1h5.9c0.5,0,0.9,0.4,0.9,0.9L44.2,1873.3
	L44.2,1873.3z"/>
<rect x="3.8" y="1997.3" class="st2" width="54.8" height="36"/>
<rect x="8.8" y="2056.8" class="st2" width="45.7" height="43.7"/>
<path class="st11" d="M54.4,1984.1H9.6c-5.3,0-9.6,4.3-9.6,9.6v44.8c0,5.3,4.3,9.6,9.6,9.6h44.8c5.3,0,9.6-4.3,9.6-9.6v-44.8
	C64,1988.4,59.7,1984.1,54.4,1984.1z M34.9,2026.6c-4,5.1-11.3,6.6-17.2,4.6c-6.3-2.1-10.9-8.4-10.8-15.1
	c-0.3-8.2,6.9-15.8,15.1-15.9c4.2-0.4,8.3,1.3,11.5,3.9c-1.3,1.4-2.6,2.8-4,4.2c-2.8-1.7-6.2-3-9.4-1.8c-5.3,1.5-8.5,7.7-6.5,12.9
	c1.6,5.4,8.2,8.3,13.3,6.1c2.7-1,4.4-3.4,5.2-6c-3-0.1-6.1,0-9.1-0.1c0-1.8,0-3.6,0-5.4c5.1,0,10.2,0,15.3,0
	C38.4,2018.3,37.7,2023,34.9,2026.6z M57.1,2018.4c-1.5,0-3,0-4.6,0c0,1.5,0,3,0,4.6c-1.5,0-3,0-4.5,0c0-1.5,0-3,0-4.6
	c-1.5,0-3,0-4.6,0c0-1.5,0-3,0-4.5c1.5,0,3,0,4.6,0c0-1.5,0-3,0-4.6c1.5,0,3,0,4.5,0c0,1.5,0,3,0,4.6c1.5,0,3,0,4.6,0
	C57.1,2015.4,57.1,2016.9,57.1,2018.4z"/>
<g>
	<path class="st9" d="M54.4,2048.2H9.6c-5.3,0-9.6,4.3-9.6,9.6v44.8c0,5.3,4.3,9.6,9.6,9.6h44.8c5.3,0,9.6-4.3,9.6-9.6v-44.8
		C64,2052.4,59.7,2048.2,54.4,2048.2z M21.8,2098.6h-7.6V2074h7.6V2098.6z M18,2070.6c-2.4,0-4.4-2-4.4-4.4s2-4.4,4.4-4.4
		s4.4,2,4.4,4.4S20.4,2070.6,18,2070.6z M50.5,2098.6h-7.6v-12c0-2.9-0.1-6.5-4-6.5c-4,0-4.6,3.1-4.6,6.3v12.2h-7.6V2074H34v3.4h0
		c1-1.9,3.5-4,7.2-4c7.7,0,9.2,5.1,9.2,11.7L50.5,2098.6L50.5,2098.6z"/>
</g>
<path class="st13" d="M53.3,1689.3L53.3,1689.3L53.3,1689.3L53.3,1689.3c0.1,0.1,0.1,0.1,0.2,0.2l0,0l0.1,0.1l0,0l0,0l0,0h0l0,0l0,0
	l0,0l0,0l0,0l0,0l0,0.1h0l0,0l0,0v0l0,0l0,0l0,0l0,0l0,0l0,0v0l0,0l0,0l0,0l0,0l0,0l0,0.1l0,0v0l0,0l0,0l0,0l0,0l0,0l0,0l0,0v0l0,0
	l0,0l0,0l0,0l0,0l0,0l0,0v0l0,0l0,0l0,0l0,0l0,0l0,0v0l0,0l0,0v0v0l0,0v0l0,0v0l0,0v0l0,0v0v0l0,0v0v0v0v0v0v27.2
	c0,1-0.8,1.8-1.8,1.8h0H10.4c-1,0-1.8-0.8-1.8-1.8v0v-27.2c0-0.6,0.3-1.2,0.8-1.5l3.1-2.5c0.1-0.1,0.1-0.1,0.2-0.1v-7.5
	c0-0.6,0.5-1.1,1.1-1.1h0h9.4c0.1-0.1,0.2-0.2,0.3-0.3l6.6-5.4c0.7-0.6,1.7-0.6,2.4,0l6.7,5.4c0.1,0.1,0.2,0.2,0.3,0.3h9.4
	c0.6,0,1.1,0.5,1.1,1.1v0v7.4l0.1,0L53.3,1689.3L53.3,1689.3z M14.9,1690.8L14.9,1690.8L14.9,1690.8v2.2l16.3,13.3h0.3l16.3-13.3
	v-2.2v0v-10.5h-33V1690.8L14.9,1690.8z M12.3,1693.8v22.4h38.1v-22.4c-5.9,4.9-11.9,9.7-17.8,14.6c-0.2,0.2-0.5,0.2-0.7,0.2l0,0
	h-1.1c-0.3,0-0.5-0.1-0.7-0.3C24.1,1703.5,18.2,1698.6,12.3,1693.8L12.3,1693.8z M29,1678.1h4.8l-2.4-2L29,1678.1z"/>
<path class="st13" d="M18.6,1688.5c-0.6,0-1.1-0.5-1.1-1.1c0-0.6,0.5-1.1,1.1-1.1H44c0.6,0,1.1,0.5,1.1,1.1c0,0.6-0.5,1.1-1.1,1.1
	H18.6L18.6,1688.5z"/>
<path class="st13" d="M18.6,1694.8c-0.6,0-1.1-0.5-1.1-1.1c0-0.6,0.5-1.1,1.1-1.1H44c0.6,0,1.1,0.5,1.1,1.1c0,0.6-0.5,1.1-1.1,1.1
	H18.6L18.6,1694.8z"/>
<path class="st13" d="M22.6,2481.9c-0.7,0-1.2-0.5-1.2-1.2c0-0.7,0.5-1.2,1.2-1.2h28.1c0.7,0,1.2,0.5,1.2,1.2c0,0.7-0.5,1.2-1.2,1.2
	H22.6L22.6,2481.9z M22.6,2447.3c-0.7,0-1.2,0.5-1.2,1.2v0v8.4c0,0.7,0.5,1.2,1.2,1.2h0h28h0c0.7,0,1.2-0.5,1.2-1.2v-8.4v0
	c0-0.7-0.5-1.2-1.2-1.2H22.6L22.6,2447.3z M23.8,2455.7v-6h25.7v6H23.8L23.8,2455.7z M15,2455.3h-4.3v27.7c0,2.7,4.3,2.8,4.3,0
	V2455.3L15,2455.3z M12.8,2489.2L12.8,2489.2c-1.7,0-3.2-0.7-4.3-1.8l0,0c-1.1-1.1-1.8-2.6-1.8-4.3v-29.7v-0.1c0-1.1,0.9-2,2-2H15
	v-8.9c0-1.1,0.9-2,2-2h0h39.3c1.1,0,2,0.9,2,2v0v40.5c0,1.7-0.7,3.2-1.8,4.3l0,0l0,0c-1.1,1.1-2.6,1.8-4.3,1.8H12.8L12.8,2489.2
	L12.8,2489.2L12.8,2489.2z M54.3,2483.1v-38.6H19c0,12.9,0,25.7,0,38.6c0,0.8-0.1,1.5-0.4,2.2h33.6c0.6,0,1.1-0.2,1.5-0.6l0,0
	C54.1,2484.2,54.3,2483.7,54.3,2483.1L54.3,2483.1z M38,2460.5L38,2460.5h12.7c0.7,0,1.2,0.5,1.2,1.2v0v6.3c0,0.7-0.5,1.2-1.2,1.2h0
	H38c-0.7,0-1.2-0.5-1.2-1.2v0v-6.3C36.8,2461,37.3,2460.5,38,2460.5L38,2460.5z M49.5,2462.9H39.2v4h10.3V2462.9L49.5,2462.9z
	 M22.6,2462.9c-0.7,0-1.2-0.5-1.2-1.2c0-0.7,0.5-1.2,1.2-1.2h11.6c0.7,0,1.2,0.5,1.2,1.2c0,0.7-0.5,1.2-1.2,1.2H22.6L22.6,2462.9z
	 M22.6,2469.2c-0.7,0-1.2-0.5-1.2-1.2s0.5-1.2,1.2-1.2h11.6c0.7,0,1.2,0.5,1.2,1.2s-0.5,1.2-1.2,1.2H22.6L22.6,2469.2z M22.6,2475.6
	c-0.7,0-1.2-0.5-1.2-1.2s0.5-1.2,1.2-1.2h28.1c0.7,0,1.2,0.5,1.2,1.2s-0.5,1.2-1.2,1.2H22.6L22.6,2475.6z"/>
<path class="st14" d="M22,2715.9c-1,0-1.7-0.8-1.7-1.7c0-1,0.8-1.7,1.7-1.7c10.1,0,20.3,0,30.4,0c1,0,1.7,0.8,1.7,1.7
	c0,1-0.8,1.7-1.7,1.7C42.3,2715.9,32.2,2715.9,22,2715.9L22,2715.9z M22,2703.7c-1,0-1.7-0.8-1.7-1.7c0-1,0.8-1.7,1.7-1.7h30.4
	c1,0,1.7,0.8,1.7,1.7c0,1-0.8,1.7-1.7,1.7H22L22,2703.7z M12.4,2697.8c1.1,0,2.2,0.5,2.9,1.2l0,0c0.8,0.8,1.2,1.8,1.2,2.9
	c0,1.1-0.5,2.2-1.2,2.9l0,0c-0.8,0.8-1.8,1.2-2.9,1.2c-1.1,0-2.2-0.5-2.9-1.2v0l0,0l0,0c-0.8-0.8-1.2-1.8-1.2-2.9
	c0-1.1,0.5-2.2,1.2-2.9l0,0l0,0C10.2,2698.2,11.2,2697.8,12.4,2697.8L12.4,2697.8z M13.9,2700.4c-0.4-0.4-0.9-0.6-1.5-0.6
	c-0.6,0-1.1,0.2-1.5,0.6l0,0c-0.4,0.4-0.6,0.9-0.6,1.5c0,0.6,0.2,1.1,0.6,1.5l0,0c0.4,0.4,0.9,0.6,1.5,0.6c0.6,0,1.1-0.2,1.5-0.6v0
	c0.4-0.4,0.6-0.9,0.6-1.5C14.5,2701.4,14.2,2700.8,13.9,2700.4L13.9,2700.4L13.9,2700.4z M22,2740.3c-1,0-1.7-0.8-1.7-1.7
	c0-1,0.8-1.7,1.7-1.7h30.4c1,0,1.7,0.8,1.7,1.7c0,1-0.8,1.7-1.7,1.7H22L22,2740.3z M12.4,2734.4c1.1,0,2.2,0.5,2.9,1.2l0,0
	c0.8,0.8,1.2,1.8,1.2,2.9c0,1.1-0.5,2.2-1.2,2.9l0,0c-0.8,0.8-1.8,1.2-2.9,1.2c-1.1,0-2.2-0.5-2.9-1.2v0l0,0l0,0
	c-0.8-0.8-1.2-1.8-1.2-2.9c0-1.1,0.5-2.2,1.2-2.9l0,0l0,0C10.2,2734.8,11.2,2734.4,12.4,2734.4L12.4,2734.4z M13.9,2737
	c-0.4-0.4-0.9-0.6-1.5-0.6c-0.6,0-1.1,0.2-1.5,0.6l0,0c-0.4,0.4-0.6,0.9-0.6,1.5c0,0.6,0.2,1.1,0.6,1.5l0,0c0.4,0.4,0.9,0.6,1.5,0.6
	c0.6,0,1.1-0.2,1.5-0.6v0c0.4-0.4,0.6-0.9,0.6-1.5C14.5,2737.9,14.2,2737.4,13.9,2737L13.9,2737L13.9,2737z M22,2728.1
	c-1,0-1.7-0.8-1.7-1.7c0-1,0.8-1.7,1.7-1.7c10.1,0,20.3,0,30.4,0c1,0,1.7,0.8,1.7,1.7c0,1-0.8,1.7-1.7,1.7
	C42.3,2728.1,32.2,2728.1,22,2728.1L22,2728.1z M12.4,2722.2c1.1,0,2.2,0.5,2.9,1.2c0,0,0,0,0,0c0.8,0.8,1.2,1.8,1.2,2.9
	c0,1.1-0.5,2.2-1.2,2.9c0,0,0,0,0,0c-0.8,0.8-1.8,1.2-2.9,1.2c-1.1,0-2.2-0.5-2.9-1.2v0c0,0,0,0,0,0c0,0,0,0,0,0
	c-0.7-0.8-1.2-1.8-1.2-2.9c0-1.1,0.5-2.2,1.2-2.9c0,0,0,0,0,0l0,0C10.2,2722.6,11.2,2722.2,12.4,2722.2L12.4,2722.2z M13.9,2724.8
	c-0.4-0.4-0.9-0.6-1.5-0.6c-0.6,0-1.1,0.2-1.5,0.6c0,0,0,0,0,0c-0.4,0.4-0.6,0.9-0.6,1.5c0,0.6,0.2,1.1,0.6,1.5l0,0
	c0.4,0.4,0.9,0.6,1.5,0.6c0.6,0,1.1-0.2,1.5-0.6c0,0,0,0,0,0c0.4-0.4,0.6-0.9,0.6-1.5C14.5,2725.7,14.2,2725.2,13.9,2724.8
	C13.9,2724.8,13.9,2724.8,13.9,2724.8L13.9,2724.8z M12.4,2710c1.1,0,2.2,0.5,2.9,1.2c0,0,0,0,0,0c0.8,0.8,1.2,1.8,1.2,2.9
	c0,1.1-0.5,2.2-1.2,2.9c0,0,0,0,0,0c-0.8,0.8-1.8,1.2-2.9,1.2c-1.1,0-2.2-0.5-2.9-1.2v0c0,0,0,0,0,0c0,0,0,0,0,0
	c-0.7-0.8-1.2-1.8-1.2-2.9c0-1.1,0.5-2.2,1.2-2.9c0,0,0,0,0,0l0,0C10.2,2710.4,11.2,2710,12.4,2710L12.4,2710z M13.9,2712.6
	c-0.4-0.4-0.9-0.6-1.5-0.6c-0.6,0-1.1,0.2-1.5,0.6c0,0,0,0,0,0c-0.4,0.4-0.6,0.9-0.6,1.5c0,0.6,0.2,1.1,0.6,1.5l0,0
	c0.4,0.4,0.9,0.6,1.5,0.6c0.6,0,1.1-0.2,1.5-0.6c0,0,0,0,0,0c0.4-0.4,0.6-0.9,0.6-1.5C14.5,2713.5,14.2,2713,13.9,2712.6
	C13.9,2712.6,13.9,2712.6,13.9,2712.6z"/>
<path class="st13" d="M11.4,1743.1L11.4,1743.1h41.7c1,0,1.7,0.8,1.7,1.7v0v31.8c0,1-0.8,1.7-1.7,1.7h0H11.4c-1,0-1.7-0.8-1.7-1.7v0
	v-31.8C9.7,1743.9,10.5,1743.1,11.4,1743.1L11.4,1743.1z M51.4,1748.1L33,1766.5c-0.4,0.4-1.1,0.4-1.5,0l-18.4-18.4v26.8h38.3
	V1748.1L51.4,1748.1z M50,1746.6H14.6l17.7,17.7L50,1746.6z"/>
<path class="st14" d="M11,2115.7L11,2115.7h38.1c1.2,0,2.2,1,2.2,2.2v0.1v52.8c0,1.2-1,2.2-2.2,2.2h-0.1H11c-1.2,0-2.2-1-2.2-2.2
	v-0.1v-52.8C8.8,2116.7,9.8,2115.7,11,2115.7L11,2115.7z M23.6,2140.7c0.7-1,1.7-1.8,2.9-2.4c1.1-0.5,2.3-0.9,3.6-0.9
	s2.5,0.3,3.6,0.9c1.1,0.6,2.1,1.4,2.9,2.4c0.4,0.6,1.3,0.7,1.8,0.3c0.6-0.4,0.7-1.3,0.3-1.8c-1-1.3-2.3-2.4-3.8-3.2
	c-1.5-0.7-3.1-1.1-4.8-1.1c-1.7,0-3.4,0.4-4.8,1.1c-1.5,0.8-2.8,1.9-3.8,3.2c-0.4,0.6-0.3,1.4,0.3,1.8
	C22.3,2141.4,23.1,2141.3,23.6,2140.7L23.6,2140.7z M30.1,2140.6c-1.4,0-2.6,0.5-3.5,1.4c-0.9,0.9-1.4,2.1-1.4,3.5
	c0,1.4,0.5,2.6,1.4,3.5c0.9,0.9,2.1,1.4,3.5,1.4c1.3,0,2.6-0.5,3.5-1.4c0.9-0.9,1.4-2.1,1.4-3.5c0-1.3-0.5-2.6-1.4-3.5
	C32.6,2141.1,31.4,2140.6,30.1,2140.6L30.1,2140.6z M31.6,2143.9c-0.4-0.4-1-0.7-1.6-0.7c-0.6,0-1.2,0.2-1.6,0.7
	c-0.4,0.4-0.7,1-0.7,1.6c0,0.6,0.2,1.2,0.7,1.6c0.4,0.4,1,0.7,1.6,0.7c0.6,0,1.2-0.2,1.6-0.7c0.4-0.4,0.7-1,0.7-1.6
	C32.3,2144.9,32.1,2144.3,31.6,2143.9L31.6,2143.9z M19.4,2136.6c1.3-1.6,2.9-2.8,4.8-3.7c1.8-0.8,3.8-1.3,5.9-1.3
	c2.1,0,4.1,0.5,5.9,1.3c1.9,0.9,3.5,2.1,4.8,3.7c0.5,0.6,1.3,0.6,1.9,0.2c0.6-0.5,0.6-1.3,0.2-1.9c-1.5-1.9-3.5-3.4-5.7-4.4
	c-4.4-2.1-9.6-2.1-14,0c-2.2,1-4.2,2.6-5.7,4.4c-0.5,0.6-0.4,1.4,0.2,1.9C18.1,2137.2,18.9,2137.2,19.4,2136.6L19.4,2136.6z
	 M22.7,2164.8h14.8c0.7,0,1.3-0.6,1.3-1.3c0-0.7-0.6-1.3-1.3-1.3H22.7c-0.7,0-1.3,0.6-1.3,1.3C21.3,2164.3,21.9,2164.8,22.7,2164.8
	L22.7,2164.8z M46.9,2120.1H13.2v48.4h33.7V2120.1z"/>
<g>
	<path class="st13" d="M51.9,2634.7H12.7c-1,0-1.8,0.8-1.8,1.8v42.6c0,1,0.8,1.8,1.8,1.8h39.3c1,0,1.8-0.8,1.8-1.8v-42.6
		C53.7,2635.5,52.9,2634.7,51.9,2634.7z M50.2,2677.3H14.4v-39.1h35.7V2677.3z"/>
</g>
<path class="st13" d="M33.4,2657.2L33.4,2657.2L33.4,2657.2c-3.5-3.5-8.2-5.6-13.5-5.6v0h0l-0.3,0c-0.7,0-1.2,0.5-1.2,1.2
	c0,0.7,0.5,1.2,1.2,1.2l0.3,0v0c4.6,0,8.8,1.9,11.8,4.9v0c3,3,4.9,7.2,4.9,11.8c0,0.7,0.5,1.2,1.2,1.2c0.7,0,1.2-0.5,1.2-1.2
	C39,2665.5,36.8,2660.7,33.4,2657.2L33.4,2657.2L33.4,2657.2z M39.1,2651.5L39.1,2651.5c-4.9-4.9-11.7-8-19.2-8v0h0l-0.3,0
	c-0.7,0-1.2,0.6-1.2,1.2c0,0.7,0.6,1.2,1.2,1.2l0.2,0v0c6.8,0,13,2.8,17.5,7.3c4.5,4.5,7.3,10.7,7.3,17.5v0c0,0.7,0.5,1.2,1.2,1.2
	c0.7,0,1.2-0.5,1.2-1.2v0C47,2663.2,44,2656.4,39.1,2651.5L39.1,2651.5z M26.9,2663.8L26.9,2663.8L26.9,2663.8
	c-2.2-2.2-5.2-3.5-8.5-3.5v0h0l-0.2,0c-0.4,0-0.7,0.3-0.7,0.8c0,0.4,0.3,0.7,0.8,0.7l0.2,0v0c2.9,0,5.5,1.2,7.4,3.1v0
	c1.9,1.9,3.1,4.5,3.1,7.4c0,0.4,0.3,0.8,0.7,0.8s0.8-0.3,0.8-0.8C30.5,2668.9,29.1,2665.9,26.9,2663.8L26.9,2663.8L26.9,2663.8z
	 M26.4,2664.6L26.4,2664.6L26.4,2664.6c-2.2-2.2-5.2-3.5-8.5-3.5v0h0l-0.2,0c-0.4,0-0.7,0.3-0.7,0.8c0,0.4,0.3,0.7,0.8,0.7l0.2,0v0
	c2.9,0,5.5,1.2,7.4,3.1v0c1.9,1.9,3.1,4.5,3.1,7.4c0,0.4,0.3,0.8,0.7,0.8c0.4,0,0.8-0.3,0.8-0.8
	C29.9,2669.8,28.6,2666.8,26.4,2664.6L26.4,2664.6L26.4,2664.6z"/>
<path class="st14" d="M44,1967l-3.3-8.9l0-0.1l-6.5-17.4l0,0l0,0c-0.1-0.4-0.4-0.7-0.8-0.8c-0.7-0.3-1.5,0.1-1.8,0.8l-6.5,17.4
	l0,0.1l-3.4,8.9c-0.3,0.7,0.1,1.5,0.8,1.8c0.7,0.3,1.5-0.1,1.8-0.8l3-8.1h11.2l3,8.1c0.3,0.7,1.1,1.1,1.8,0.8
	C43.9,1968.5,44.2,1967.7,44,1967z M28.2,1957.1l4.5-12l4.5,12H28.2z"/>
<path class="st14" d="M52.6,1933.6c-1.4-1.4-3.4-2.3-5.5-2.3H18c-2.2,0-4.1,0.9-5.5,2.3c-1.4,1.4-2.3,3.4-2.3,5.5v29.1
	c0,2.2,0.9,4.1,2.3,5.5c1.4,1.4,3.4,2.3,5.5,2.3h29.1c2.2,0,4.1-0.9,5.5-2.3c1.4-1.4,2.3-3.4,2.3-5.5v-29.1
	C54.9,1937,54,1935,52.6,1933.6z M51.5,1968.2c0,1.2-0.5,2.3-1.3,3.1c-0.8,0.8-1.9,1.3-3.1,1.3H18c-1.2,0-2.3-0.5-3.1-1.3
	c-0.8-0.8-1.3-1.9-1.3-3.1v-29.1c0-1.2,0.5-2.3,1.3-3.1s1.9-1.3,3.1-1.3h29.1c1.2,0,2.3,0.5,3.1,1.3c0.8,0.8,1.3,1.9,1.3,3.1V1968.2
	z"/>
<path d="M32.1,4608.6c-17.3,0-31.4,14.1-31.4,31.4s14.1,31.4,31.4,31.4c17.3,0,31.4-14.1,31.4-31.4S49.4,4608.6,32.1,4608.6z
	 M33.1,4657.7c-0.4,0.4-1,0.6-1.7,0.6c-0.7,0-1.3-0.2-1.7-0.6c-0.4-0.4-0.6-0.9-0.6-1.5c0-0.6,0.2-1.2,0.6-1.6
	c0.4-0.4,1-0.7,1.7-0.7c0.7,0,1.3,0.2,1.7,0.7c0.4,0.4,0.6,1,0.6,1.6C33.8,4656.7,33.6,4657.3,33.1,4657.7z M41.2,4636.8
	c-0.9,1.7-2.6,3.8-5.1,6.1c-2.1,1.8-3.1,4.3-3.1,7.6h-3.3c0-2.2,0.3-3.9,0.9-5.3c0.6-1.3,1.7-2.9,3.6-4.7c1.8-1.8,3-3.1,3.5-3.8
	c0.5-0.7,0.9-1.6,1.2-2.5c0.3-0.9,0.4-1.9,0.4-3.1c0-2.3-0.6-4.1-1.8-5.4c-1.2-1.3-2.9-2-5.1-2c-2.2,0-4,0.6-5.4,1.9
	c-1.4,1.3-2.1,3-2.1,5.1h-3.3c0-3,1.1-5.4,3.1-7.3c2-1.8,4.6-2.7,7.7-2.7c3.2,0,5.7,0.9,7.5,2.8c1.8,1.9,2.8,4.4,2.8,7.5
	C42.6,4633.2,42.1,4635,41.2,4636.8z"/>
<g>
	<rect x="3.8" y="3658.8" class="st2" width="56.7" height="3.4"/>
	<rect x="3.7" y="3678.3" class="st2" width="56.7" height="3.4"/>
	<rect x="3.8" y="3699.4" class="st2" width="56.7" height="3.4"/>
</g>
<g>
	<rect x="3.8" y="4682" class="st15" width="56.7" height="3.4"/>
	<rect x="3.7" y="4701.5" class="st15" width="56.7" height="3.4"/>
	<rect x="3.8" y="4722.7" class="st15" width="56.7" height="3.4"/>
</g>
</svg>
