<?xml version="1.0" encoding="utf-8"?>
<!-- Generator: Adobe Illustrator 21.0.0, SVG Export Plug-In . SVG Version: 6.00 Build 0)  -->
<svg version="1.1" id="Layer_1" xmlns="http://www.w3.org/2000/svg" xmlns:xlink="http://www.w3.org/1999/xlink" x="0px" y="0px"
	 viewBox="0 0 1024 1024" style="enable-background:new 0 0 1024 1024;" xml:space="preserve">
<style type="text/css">
	.st0{fill:#005F9F;}
	.st1{enable-background:new    ;}
</style>
<g>
	<path class="st0" d="M898.8,1011H115.2V87H795l103.8,103.8V1011z M150.3,975.9h713.5V205.4l-83.3-83.3H150.3V975.9z"/>
</g>
<g>
	<polygon class="st0" points="881.3,215.7 770.2,215.7 770.2,104.5 805.3,104.5 805.3,180.6 881.3,180.6 	"/>
</g>
<g>
	<rect x="226.3" y="180.6" class="st0" width="187.1" height="35.1"/>
</g>
<g>
	<path class="st0" d="M805.3,589.9H208.7V274.1h596.5L805.3,589.9L805.3,589.9z M243.8,567.9h526.3V296.2H243.8V567.9z"/>
</g>
<g>
	<rect x="302.3" y="291.7" class="st0" width="35.1" height="298.3"/>
</g>
<g>
	<rect x="395.9" y="291.7" class="st0" width="35.1" height="298.3"/>
</g>
<g>
	<rect x="489.5" y="291.7" class="st0" width="35.1" height="298.3"/>
</g>
<g>
	<rect x="583" y="291.7" class="st0" width="35.1" height="298.3"/>
</g>
<g>
	<rect x="676.6" y="291.7" class="st0" width="35.1" height="298.3"/>
</g>
<g>
	<rect x="226.3" y="554.8" class="st0" width="561.4" height="35.1"/>
</g>
<g>
	<rect x="226.3" y="461.3" class="st0" width="561.4" height="35.1"/>
</g>
<g>
	<rect x="226.3" y="367.7" class="st0" width="561.4" height="35.1"/>
</g>
<g class="st1">
	<path class="st0" d="M387.5,739.7c0,8.9-1.6,17.7-4.7,26.2c-3.1,8.5-7.6,15.7-13.4,21.5c-8,7.9-16.8,13.8-26.6,17.8
		c-9.8,4-22,6-36.6,6h-32.1v65.1h-51.5V676.7h84.8c12.7,0,23.4,1.1,32.1,3.3c8.7,2.2,16.4,5.5,23.2,9.9c8.1,5.3,14.2,12,18.5,20.3
		C385.4,718.3,387.5,728.2,387.5,739.7z M334.2,740.9c0-5.6-1.5-10.5-4.6-14.5c-3-4.1-6.6-6.9-10.6-8.5c-5.4-2.1-10.6-3.3-15.7-3.5
		c-5.1-0.2-11.9-0.3-20.4-0.3h-8.9v59.7h14.8c8.8,0,16-0.5,21.7-1.6c5.7-1.1,10.4-3.2,14.3-6.4c3.3-2.9,5.7-6.3,7.2-10.2
		C333.5,751.4,334.2,746.6,334.2,740.9z"/>
	<path class="st0" d="M612.8,776.8c0,18.6-4.3,35.3-12.8,50c-8.5,14.7-19.2,26-32.2,33.9c-9.8,5.9-20.4,10-32.1,12.3
		c-11.6,2.3-25.4,3.5-41.3,3.5H424V676.7h72.5c16.3,0,30.3,1.4,42.1,4.1c11.8,2.7,21.7,6.6,29.8,11.6c13.8,8.4,24.6,19.8,32.5,34
		C608.9,740.7,612.8,757.5,612.8,776.8z M559.5,776.4c0-13.2-2.4-24.4-7.2-33.8c-4.8-9.3-12.4-16.7-22.7-21.9
		c-5.3-2.6-10.7-4.4-16.2-5.3s-13.8-1.4-24.9-1.4h-13v125.1h13c12.3,0,21.2-0.6,27-1.7c5.7-1.1,11.3-3.2,16.8-6.1
		c9.4-5.4,16.3-12.5,20.7-21.5C557.4,800.7,559.5,789.6,559.5,776.4z"/>
	<path class="st0" d="M795.4,715.3h-91.9v37.2h85.2v38.7h-85.2v85.4h-51.3V676.7h143.2V715.3z"/>
</g>
</svg>
