<?xml version="1.0" encoding="utf-8"?>
<svg xmlns="http://www.w3.org/2000/svg" xmlns:xlink="http://www.w3.org/1999/xlink">
	<defs></defs>
<symbol id="alert" viewBox="0 0 1024 1024">
<style type="text/css">
	.st0{fill:#ff0000;}
</style>
<g>
	<g>
		<path class="st0" d="M513.1,984C252.3,984,40.2,771.8,40.2,511c0-260.8,212.1-472.9,472.9-472.9C773.8,38.1,986,250.3,986,511
			C986,771.8,773.8,984,513.1,984z M513.1,89C280.3,89,91,278.3,91,511c0,232.7,189.3,422.1,422.1,422.1
			c232.8,0,422.1-189.4,422.1-422.1C935.2,278.3,745.8,89,513.1,89z"/>
	</g>
	<g>
		<path class="st0" d="M517.7,819.2c-45.6,0-81.3-25.2-81.3-57.5V442.6c0-32.2,35.7-57.5,81.3-57.5c45.6,0,81.3,25.2,81.3,57.5
			v319.1C599,794,563.3,819.2,517.7,819.2z M517.7,410.5c-29.8,0-55.9,15-55.9,32v319.1c0,17.1,26.1,32.1,55.9,32.1
			c29.8,0,55.9-15,55.9-32.1V442.6C573.6,425.5,547.5,410.5,517.7,410.5z"/>
	</g>
	<g>
		<path class="st0" d="M517.7,365.5c-44.8,0-81.3-36.5-81.3-81.3c0-44.8,36.5-81.3,81.3-81.3c44.8,0,81.3,36.5,81.3,81.3
			C599,329,562.5,365.5,517.7,365.5z M517.7,228.3c-30.8,0-55.9,25.1-55.9,55.9c0,30.8,25.1,55.9,55.9,55.9
			c30.8,0,55.9-25.1,55.9-55.9C573.6,253.4,548.5,228.3,517.7,228.3z"/>
	</g>
</g>

</symbol>
<symbol id="arrow-blue-left" viewBox="0 0 1024 1024"><path  class="st0" fill="#005f9f" d="M256,493.1L727.8,21.3c11.1-11.1,28.9-11.1,40,0c11.1,11.1,11.1,28.9,0,40L316.2,513l451.6,451.6c11.1,11.1,11.1,28.9,0,40 c-5.5,5.4-12.8,8.4-19.9,8.4c-7.1,0-14.5-2.7-19.9-8.4L256.2,532.9C245.1,522,245.1,504,256,493.1z"/>
</symbol>
<symbol id="arrow-blue-right" viewBox="0 0 1024 1024"><path  class="st0" fill="#005f9f" d="M768,493.1L296.2,21.3c-11.1-11.1-28.9-11.1-40,0c-11.1,11.1-11.1,28.9,0,40L707.8,513L256.2,964.6 c-11.1,11.1-11.1,28.9,0,40c5.5,5.4,12.8,8.4,19.9,8.4c7.1,0,14.5-2.7,19.9-8.4l471.7-471.7C778.9,522,778.9,504,768,493.1z"/>
</symbol>
<symbol id="begin-off" viewBox="0 0 1024 1024">
<path  class="st0" fill="#005f9f" d="M934.1,137l36.8,36.8L632.6,512l338.3,338.2L934.1,887l-375-375L934.1,137z M53.1,512l375,375l36.8-36.8
	L126.6,512l338.3-338.2L428.1,137L53.1,512z"/>

</symbol>
<symbol id="cart" viewBox="0 0 1024 1024">
<path fill="#005f9f" class="st0" d="M276.5,977c-57,0-103.3-46.4-103.3-103.3c0-57,46.4-103.3,103.3-103.3s103.3,46.4,103.3,103.3
	C379.9,930.7,333.5,977,276.5,977 M276.5,817.2c-31.1,0-56.4,25.3-56.4,56.4c0,31.1,25.3,56.4,56.4,56.4s56.4-25.3,56.4-56.4
	C332.9,842.5,307.6,817.2,276.5,817.2 M861.3,977c-57,0-103.3-46.4-103.3-103.3c0-57,46.4-103.3,103.3-103.3
	c57,0,103.3,46.4,103.3,103.3C964.8,930.7,918.3,977,861.3,977 M861.3,817.2c-31.1,0-56.4,25.3-56.4,56.4
	c0,31.1,25.3,56.4,56.4,56.4c31.1,0,56.4-25.3,56.4-56.4S892.5,817.2,861.3,817.2 M1001,154.9H176.1L151.3,47H23v47h91l14,61h-1.1
	l104.7,456.2h1.4l24.9,108h603.6v-47H295.2l-14-61h615.2L1001,154.9z M270.4,564.2L187,202H942l-83.2,362.3H270.4z"/>

</symbol>
<symbol id="fav-off" viewBox="0 0 1024 1024">
<path class="st0" fill="#005f9f" d="M990.5,383.1v56.8H856.3v134.2h-56.8V439.9H665.2v-56.8h134.2V248.8h56.8v134.2H990.5z M543.2,419.8
	c87,95.7,142.1,250,142.1,402.6c0,128.1-169.4,186.4-326.8,186.4c-82.3,0-159.4-15-217.2-42.2C70.6,933.4,31.7,882.2,31.7,822.4
	c0-152.6,55.1-306.9,142-402.6c-38.8-43.7-62.4-101.1-62.4-163.9c0-136.3,110.9-247.1,247.1-247.1c136.3,0,247.1,110.9,247.1,247.1
	C605.6,318.8,582,376.2,543.2,419.8z M168.2,255.9c0,104.9,85.4,190.3,190.3,190.3c104.9,0,190.3-85.4,190.3-190.3
	c0-104.9-85.4-190.3-190.3-190.3C253.5,65.6,168.2,151,168.2,255.9z M628.4,822.4c0-137.1-50.6-280-127.6-364.7
	c-40.3,28.5-89.4,45.3-142.4,45.3c-53,0-102.1-16.8-142.4-45.3c-77,84.8-127.6,227.6-127.6,364.7c0,64.4,92.7,129.6,269.9,129.6
	C535.7,952,628.4,886.8,628.4,822.4z"/>

</symbol>
<symbol id="fav-on" viewBox="0 0 1024 1024">
<path fill="#005f9f" class="st0" d="M990.5,383.1v56.8H856.3v134.2h-56.8V439.9H665.2v-56.8h134.2V248.8h56.8v134.2H990.5z M543.2,419.8
	c87,95.7,142.1,250,142.1,402.6c0,128.1-169.4,186.4-326.8,186.4c-82.3,0-159.4-15-217.2-42.2C70.6,933.4,31.7,882.2,31.7,822.4
	c0-152.6,55.1-306.9,142-402.6c-38.8-43.7-62.4-101.1-62.4-163.9c0-136.3,110.9-247.1,247.1-247.1c136.3,0,247.1,110.9,247.1,247.1
	C605.6,318.8,582,376.2,543.2,419.8z"/>

</symbol>
<symbol id="icon_event" viewBox="0 0 1024 1024">
<style type="text/css">
	.st0{fill-rule:evenodd;clip-rule:evenodd;fill:#005F9F;}
	.st1{fill:#005F9F;}
	.st2{fill:#FFFFFF;}
	.st3{fill:#005F9F;stroke:#005F9F;stroke-width:3;stroke-miterlimit:10;}
</style>
<path class="st0" d="M775.7,10.7c-1.7,0-3.3,0-5,0c-15.1,0-27.5,11.5-27.5,25.7v133c0,14.2,12.3,25.7,27.5,25.7c1.7,0,3.3,0,5,0
	c15.1,0,27.5-11.5,27.5-25.7v-133C803.2,22.3,790.8,10.7,775.7,10.7L775.7,10.7z M447.7,733.9c-34,0-68.1,0-102.1,0
	c0,31.8,0,63.6,0,95.5c34,0,68.1,0,102.1,0C447.7,797.5,447.7,765.7,447.7,733.9L447.7,733.9z M625.5,733.9c-34,0-68.1,0-102.1,0
	c0,31.8,0,63.6,0,95.5c34,0,68.1,0,102.1,0C625.5,797.5,625.5,765.7,625.5,733.9L625.5,733.9z M269.9,733.9H167.8v95.5h102.1V733.9
	L269.9,733.9z M803.2,590.7H701.1v95.5h102.1V590.7L803.2,590.7z M447.7,590.7c-34,0-68.1,0-102.1,0c0,31.8,0,63.7,0,95.5
	c34,0,68.1,0,102.1,0C447.7,654.3,447.7,622.5,447.7,590.7L447.7,590.7z M625.5,590.7c-34,0-68.1,0-102.1,0c0,31.8,0,63.7,0,95.5
	c34,0,68.1,0,102.1,0C625.5,654.3,625.5,622.5,625.5,590.7L625.5,590.7z M269.9,590.7H167.8v95.5h102.1V590.7L269.9,590.7z
	 M803.2,447.4H701.1v95.5h102.1V447.4L803.2,447.4z M447.7,447.4c-34,0-68.1,0-102.1,0c0,31.8,0,63.7,0,95.5c34,0,68.1,0,102.1,0
	C447.7,511.1,447.7,479.3,447.7,447.4L447.7,447.4z M625.5,447.4c-34,0-68.1,0-102.1,0c0,31.8,0,63.7,0,95.5c34,0,68.1,0,102.1,0
	C625.5,511.1,625.5,479.3,625.5,447.4L625.5,447.4z M200.3,10.7c-1.7,0-3.3,0-5,0c-15.1,0-27.5,11.5-27.5,25.7v133
	c0,14.2,12.3,25.7,27.5,25.7c1.7,0,3.3,0,5,0c15.1,0,27.4-11.5,27.4-25.7v-133C227.8,22.3,215.4,10.7,200.3,10.7L200.3,10.7z
	 M871.2,379.4V890c0,5.7-5,10.3-11,10.3h-753c-6,0-11-4.6-11-10.3V379.4c0-5.6,5-10.3,11-10.3h753
	C866.3,369.2,871.2,373.8,871.2,379.4L871.2,379.4z M871.2,929.7v6h-775v-6H871.2L871.2,929.7z M871.2,965.5v6h-775v-6H871.2
	L871.2,965.5z M859.6,92.9c39.4,0,71.4,30.1,71.4,66.9v774.3c0,36.8-32.1,66.8-71.4,66.8c-250.6,0-501.1,0-751.7,0
	c-39.4,0-71.5-30-71.5-66.8V159.8c0-36.8,32.1-66.9,71.5-66.9H145c0,31.3,0,62.5,0,93.8c0,19.9,17.3,36,38.5,36c9.6,0,19.2,0,28.8,0
	c21.2,0,38.4-16.1,38.4-36c0-31.3,0-62.5,0-93.8h469.7c0,31.3,0,62.5,0,93.8c0,19.9,17.3,36,38.5,36c9.6,0,19.2,0,28.7,0
	c21.2,0,38.5-16.1,38.5-36c0-31.3,0-62.5,0-93.8H859.6z"/>
<circle class="st1" cx="-1132" cy="-200.1" r="0"/>
<g>
	<circle class="st2" cx="747.8" cy="749" r="231.1"/>
	<g>
		<path class="st3" d="M994.3,749h-26c0,61-24.6,116-64.6,156c-40,40-95,64.6-156,64.6c-61,0-116-24.6-156-64.6
			c-40-40-64.6-95-64.6-156c0-61,24.6-116,64.6-156c40-40,95-64.6,156-64.6c61,0,116,24.6,156,64.6c40,40,64.6,95,64.6,156H994.3h26
			c0-150.5-122-272.5-272.5-272.5c-150.5,0-272.5,122-272.5,272.5c0,150.5,122,272.5,272.5,272.5c150.5,0,272.5-122,272.5-272.5
			H994.3z"/>
		<path class="st3" d="M715.5,636.2v225.6c0,17.8,14.4,32.2,32.2,32.2c17.8,0,32.2-14.4,32.2-32.2V636.2c0-17.8-14.4-32.2-32.2-32.2
			C730,604,715.5,618.4,715.5,636.2"/>
		<path class="st3" d="M635,781.2h225.6c17.8,0,32.2-14.4,32.2-32.2c0-17.8-14.4-32.2-32.2-32.2H635c-17.8,0-32.2,14.4-32.2,32.2
			C602.8,766.8,617.2,781.2,635,781.2"/>
	</g>
</g>

</symbol>
<symbol id="icon_pdf" viewBox="0 0 1024 1024">
<style type="text/css">
	.st0{fill:#005F9F;}
	.st1{enable-background:new    ;}
</style>
<g>
	<path class="st0" d="M898.8,1011H115.2V87H795l103.8,103.8V1011z M150.3,975.9h713.5V205.4l-83.3-83.3H150.3V975.9z"/>
</g>
<g>
	<polygon class="st0" points="881.3,215.7 770.2,215.7 770.2,104.5 805.3,104.5 805.3,180.6 881.3,180.6 	"/>
</g>
<g>
	<rect x="226.3" y="180.6" class="st0" width="187.1" height="35.1"/>
</g>
<g>
	<path class="st0" d="M805.3,589.9H208.7V274.1h596.5L805.3,589.9L805.3,589.9z M243.8,567.9h526.3V296.2H243.8V567.9z"/>
</g>
<g>
	<rect x="302.3" y="291.7" class="st0" width="35.1" height="298.3"/>
</g>
<g>
	<rect x="395.9" y="291.7" class="st0" width="35.1" height="298.3"/>
</g>
<g>
	<rect x="489.5" y="291.7" class="st0" width="35.1" height="298.3"/>
</g>
<g>
	<rect x="583" y="291.7" class="st0" width="35.1" height="298.3"/>
</g>
<g>
	<rect x="676.6" y="291.7" class="st0" width="35.1" height="298.3"/>
</g>
<g>
	<rect x="226.3" y="554.8" class="st0" width="561.4" height="35.1"/>
</g>
<g>
	<rect x="226.3" y="461.3" class="st0" width="561.4" height="35.1"/>
</g>
<g>
	<rect x="226.3" y="367.7" class="st0" width="561.4" height="35.1"/>
</g>
<g class="st1">
	<path class="st0" d="M387.5,739.7c0,8.9-1.6,17.7-4.7,26.2c-3.1,8.5-7.6,15.7-13.4,21.5c-8,7.9-16.8,13.8-26.6,17.8
		c-9.8,4-22,6-36.6,6h-32.1v65.1h-51.5V676.7h84.8c12.7,0,23.4,1.1,32.1,3.3c8.7,2.2,16.4,5.5,23.2,9.9c8.1,5.3,14.2,12,18.5,20.3
		C385.4,718.3,387.5,728.2,387.5,739.7z M334.2,740.9c0-5.6-1.5-10.5-4.6-14.5c-3-4.1-6.6-6.9-10.6-8.5c-5.4-2.1-10.6-3.3-15.7-3.5
		c-5.1-0.2-11.9-0.3-20.4-0.3h-8.9v59.7h14.8c8.8,0,16-0.5,21.7-1.6c5.7-1.1,10.4-3.2,14.3-6.4c3.3-2.9,5.7-6.3,7.2-10.2
		C333.5,751.4,334.2,746.6,334.2,740.9z"/>
	<path class="st0" d="M612.8,776.8c0,18.6-4.3,35.3-12.8,50c-8.5,14.7-19.2,26-32.2,33.9c-9.8,5.9-20.4,10-32.1,12.3
		c-11.6,2.3-25.4,3.5-41.3,3.5H424V676.7h72.5c16.3,0,30.3,1.4,42.1,4.1c11.8,2.7,21.7,6.6,29.8,11.6c13.8,8.4,24.6,19.8,32.5,34
		C608.9,740.7,612.8,757.5,612.8,776.8z M559.5,776.4c0-13.2-2.4-24.4-7.2-33.8c-4.8-9.3-12.4-16.7-22.7-21.9
		c-5.3-2.6-10.7-4.4-16.2-5.3s-13.8-1.4-24.9-1.4h-13v125.1h13c12.3,0,21.2-0.6,27-1.7c5.7-1.1,11.3-3.2,16.8-6.1
		c9.4-5.4,16.3-12.5,20.7-21.5C557.4,800.7,559.5,789.6,559.5,776.4z"/>
	<path class="st0" d="M795.4,715.3h-91.9v37.2h85.2v38.7h-85.2v85.4h-51.3V676.7h143.2V715.3z"/>
</g>

</symbol>
<symbol id="icon_registor" viewBox="0 0 1024 1024">
<style type="text/css">
	.st0{fill:#005F9F;}
</style>
<g>
	<g>
		<polygon class="st0" points="81.7,1000.3 127.9,662.9 160.1,667.3 119.7,962.3 414.7,921.9 419.1,954.1 		"/>
	</g>
	<g>
		<path class="st0" d="M903.5,419.8l-23-23l14.2-14.2c16.2-16.2,16.2-42.7,0-58.9L758.3,187.2c-16.2-16.2-42.7-16.2-58.9,0
			l-14.2,14.2l-23-23l14.2-14.2c28.9-28.9,75.9-28.9,104.8,0l136.4,136.4c28.9,28.9,28.9,75.9,0,104.8L903.5,419.8z"/>
	</g>
	<g>
		<path class="st0" d="M864.7,513.1L568.9,217.3l77.5-77.5l295.8,295.8L864.7,513.1z M614.8,217.3l249.9,249.9l31.6-31.6
			L646.4,185.7L614.8,217.3z"/>
	</g>
	<g>
		<path class="st0" d="M416.7,961.1L120.9,665.3l471-471l295.8,295.8L416.7,961.1z M166.8,665.3l249.9,249.9l425.1-425.1
			L591.9,240.2L166.8,665.3z"/>
	</g>
	<g>
		
			<rect x="100" y="474" transform="matrix(0.7071 -0.7071 0.7071 0.7071 -224.5639 438.3051)" class="st0" width="633.6" height="32.5"/>
	</g>
	<g>
		
			<rect x="144.2" y="518.2" transform="matrix(0.7071 -0.7071 0.7071 0.7071 -242.8633 482.4863)" class="st0" width="633.6" height="32.5"/>
	</g>
	<g>
		
			<rect x="187.5" y="561.5" transform="matrix(0.7071 -0.7071 0.7071 0.7071 -260.8024 525.7951)" class="st0" width="633.6" height="32.5"/>
	</g>
	<g>
		
			<rect x="230.8" y="604.8" transform="matrix(0.7071 -0.7071 0.7071 0.7071 -278.7408 569.1057)" class="st0" width="633.6" height="32.5"/>
	</g>
	<g>
		
			<rect x="275" y="649" transform="matrix(0.7071 -0.7071 0.7071 0.7071 -297.0374 613.2828)" class="st0" width="633.6" height="32.5"/>
	</g>
	<g>
		
			<rect x="149.4" y="846.9" transform="matrix(0.7071 -0.7071 0.7071 0.7071 -599.3809 385.5008)" class="st0" width="32.5" height="138.9"/>
	</g>
</g>

</symbol>
<symbol id="last-off" viewBox="0 0 1024 1024">
<path fill="#005f9f" class="st0" d="M89.9,887l-36.8-36.8L391.4,512L53.1,173.8L89.9,137l375,375L89.9,887z M970.9,512l-375-375l-36.8,36.8
	L897.4,512L559.1,850.2l36.8,36.8L970.9,512z"/>

</symbol>
<symbol id="mail" viewBox="0 0 1024 1024">
<path class="st0" fill="#005f9f" d="M981.7,199.1L513,494.7L44.3,199.1H981.7z M1003,801.3V262.2L695.4,456.3L1003,801.3z M65.4,824.9h895.3L647.1,473.3
	L513,557.9l-134.1-84.6L65.4,824.9z M330.6,456.3L23,262.2v539.1L330.6,456.3z"/>

</symbol>
<symbol id="mymap" viewBox="0 0 1024 1024">
<style type="text/css">
	.st0{fill:#005F9F;}
	.st1{fill:#005F9F;stroke:#005FA0;stroke-width:10;stroke-miterlimit:10;}
</style>
<g>
	<path class="st0" d="M551.8,889.5L318.6,358.4c-12.4-30.6-18.5-62.5-18.5-95.2c0-139.9,113.9-253.8,253.9-253.8
		s253.9,113.9,253.9,253.8c0,32.7-6.2,64.6-18.3,94.8L551.8,889.5z M553.9,41.8c-122.1,0-221.5,99.3-221.5,221.4
		c0,28.5,5.4,56.3,16,82.7l203.6,463.7l207.6-464.3c10.4-25.8,15.7-53.6,15.7-82.1C775.4,141.1,676,41.8,553.9,41.8z M553.9,383
		C487.8,383,434,329.3,434,263.2c0-66.1,53.8-119.9,119.9-119.9s119.9,53.8,119.9,119.9C673.8,329.3,620,383,553.9,383z
		 M553.9,175.7c-48.2,0-87.5,39.2-87.5,87.5c0,48.2,39.3,87.5,87.5,87.5c48.3,0,87.5-39.3,87.5-87.5
		C641.4,214.9,602.2,175.7,553.9,175.7z"/>
</g>
<path class="st1" d="M931,649.9H651.6c-2.5,5.6-5.4,12.3-8.8,20h272.7l68.9,266H136.1l65.7-266h256.6l-8.8-20H186.2l-75.6,306h899.7
	L931,649.9z"/>

</symbol>
<symbol id="next-off" viewBox="0 0 1024 1024">
<path class="st0" fill="#005f9f" d="M342.9,887l-36.8-36.8L644.4,512L306.1,173.8l36.8-36.8l375,375L342.9,887z"/>

</symbol>
<symbol id="order1" viewBox="0 0 1024 1024">
<g class="st0" fill="#005f9f">
	<path d="M512,47c-71.9,0-130.5,58.5-130.5,130.4c0,72,58.6,130.5,130.5,130.5s130.5-58.5,130.4-130.5
		C642.4,105.5,583.9,47,512,47z M512,264.3c-47.9,0-86.8-39-86.8-86.8c0-47.9,39-86.8,86.8-86.8s86.8,38.9,86.8,86.8
		C598.8,225.4,559.8,264.3,512,264.3z"/>
	<path d="M846.5,307.9c72,0,130.5-58.5,130.5-130.5C977,105.5,918.5,47,846.5,47S716,105.5,716,177.4
		C716,249.4,774.6,307.9,846.5,307.9z M846.5,90.7c47.9,0,86.8,38.9,86.8,86.8c0,47.9-39,86.8-86.8,86.8c-47.9,0-86.8-39-86.8-86.8
		C759.7,129.6,798.7,90.7,846.5,90.7z"/>
	<path d="M846.5,381.6c-72,0-130.5,58.6-130.5,130.5s58.6,130.4,130.5,130.4c72,0,130.5-58.6,130.5-130.5
		S918.5,381.6,846.5,381.6z M846.5,598.8c-47.9,0-86.8-39-86.8-86.8c0-47.9,39-86.8,86.8-86.8c47.9,0,86.8,39,86.8,86.8
		C933.3,559.9,894.3,598.8,846.5,598.8z"/>
	<path d="M177.5,716.1c-72,0-130.5,58.6-130.5,130.5S105.5,977,177.5,977c71.9,0,130.4-58.5,130.4-130.4
		C307.9,774.6,249.4,716.1,177.5,716.1z M177.5,933.4c-47.9,0-86.8-39-86.8-86.8c0-47.9,39-86.8,86.8-86.8s86.7,38.9,86.8,86.8
		C264.3,894.5,225.3,933.4,177.5,933.4z"/>
	<path d="M509.3,381.6c-72,0-130.5,58.6-130.5,130.5s58.6,130.4,130.5,130.4s130.4-58.6,130.5-130.4
		C639.8,440.1,581.2,381.6,509.3,381.6z M509.3,598.8c-47.9,0-86.8-39-86.8-86.8c0-47.9,39-86.8,86.8-86.8s86.7,39,86.8,86.8
		C596.1,559.9,557.1,598.8,509.3,598.8z"/>
	<path d="M509.3,716.1c-72,0-130.5,58.6-130.5,130.5S437.4,977,509.3,977s130.4-58.5,130.5-130.4
		C639.8,774.6,581.2,716.1,509.3,716.1z M509.3,933.4c-47.9,0-86.8-39-86.8-86.8c0-47.9,39-86.8,86.8-86.8s86.7,38.9,86.8,86.8
		C596.1,894.5,557.1,933.4,509.3,933.4z"/>
	<path d="M846.5,716.1c-72,0-130.5,58.6-130.5,130.5S774.6,977,846.5,977c72,0,130.5-58.5,130.5-130.4
		C977,774.6,918.5,716.1,846.5,716.1z M846.5,933.4c-47.9,0-86.8-39-86.8-86.8c0-47.9,39-86.8,86.8-86.8c47.9,0,86.8,38.9,86.8,86.8
		S894.3,933.4,846.5,933.4z"/>
	<path d="M178,47c-71.9,0-130.5,58.5-130.5,130.4c0,72,58.6,130.5,130.5,130.5s130.5-58.5,130.4-130.5
		C308.4,105.5,249.9,47,178,47z M178,264.3c-47.9,0-86.8-39-86.8-86.8c0-47.9,39-86.8,86.8-86.8s86.8,38.9,86.8,86.8
		C264.8,225.4,225.8,264.3,178,264.3z"/>
	<path d="M177.5,381.5C105.5,381.5,47,440.1,47,512s58.5,130.5,130.5,130.5c71.9,0,130.4-58.6,130.4-130.5
		C307.9,440,249.4,381.5,177.5,381.5z M177.5,598.8c-47.9,0-86.8-39-86.8-86.8c0-47.9,39-86.8,86.8-86.8s86.7,39,86.8,86.8
		C264.3,559.9,225.3,598.8,177.5,598.8z"/>
</g>

</symbol>
<symbol id="order2" viewBox="0 0 1024 1024">
<path class="st0" fill="#005f9f" d="M177.8,642.5c-71.9,0-130.5-58.5-130.5-130.4s58.5-130.5,130.5-130.5c71.9,0,130.4,58.5,130.4,130.5
	C308.2,583.9,249.7,642.5,177.8,642.5z M177.8,425.2C130,425.2,91,464.1,91,512c0,47.8,38.9,86.8,86.8,86.8
	c47.8,0,86.8-38.9,86.8-86.8C264.5,464.2,225.6,425.2,177.8,425.2z M177.8,977c-71.9,0-130.5-58.5-130.5-130.4
	s58.5-130.5,130.5-130.5c71.9,0,130.4,58.5,130.4,130.5C308.2,918.5,249.7,977,177.8,977z M177.8,759.8c-47.8,0-86.8,38.9-86.8,86.8
	c0,47.8,38.9,86.8,86.8,86.8c47.8,0,86.8-38.9,86.8-86.8C264.5,798.7,225.6,759.8,177.8,759.8z M984.3,156.1H400.1v43.7h584.2
	L984.3,156.1L984.3,156.1z M984.3,490.6H400.1v43.7h584.2L984.3,490.6L984.3,490.6z M984.3,825.2H400.1v43.7h584.2L984.3,825.2
	L984.3,825.2z M178,47c-71.9,0-130.5,58.5-130.5,130.4c0,72,58.6,130.5,130.5,130.5s130.5-58.5,130.4-130.5
	C308.4,105.5,249.9,47,178,47z M178,264.3c-47.9,0-86.8-39-86.8-86.8c0-47.9,39-86.8,86.8-86.8s86.8,38.9,86.8,86.8
	S225.8,264.3,178,264.3z"/>

</symbol>
<symbol id="prev-off" viewBox="0 0 1024 1024">
<path class="st0" fill="#005f9f" d="M681.1,137l36.8,36.8L379.6,512l338.3,338.2L681.1,887l-375-375L681.1,137z"/>

</symbol>
<symbol id="price" viewBox="0 0 1024 1024">
<path class="st0" fill="#005f9f" d="M880.5,985.8H142.1v-950h738.5L880.5,985.8L880.5,985.8z M197.2,930.6h628.2V91H197.2V930.6z M752.4,789.2H270.2v38.6h482.2
	V789.2z M573.2,523.8c0-13.5-4.9-25.2-14.6-34.9c-9.7-9.7-25.7-18.4-47.9-26c-30.7-9.3-53.9-21.7-69.6-37.2s-23.5-36.2-23.5-62
	c0-25.1,7.2-45.5,21.6-61.3c14.4-15.8,34.2-25.3,59.4-28.5v-50.4h36v50.6c25.5,3.7,45.3,14.6,59.4,32.7
	c14.1,18.2,21.1,42.5,21.1,73.1h-44.7c0-20.7-4.8-37.4-14.4-50.2c-9.6-12.8-22.9-19.2-39.9-19.2c-17.9,0-31.4,4.7-40.3,14
	c-8.9,9.4-13.3,22.2-13.3,38.4c0,14.7,4.6,26.7,13.8,35.8c9.2,9.1,25.8,17.8,49.8,26c31.2,10,54.3,22.5,69.3,37.5
	c15.1,15,22.6,35.3,22.6,61c0,26.2-7.8,46.9-23.5,62.4c-15.7,15.4-37.2,24.6-64.5,27.5V657h-35.8v-43.6
	c-26.2-2.7-47.6-12.3-64.3-28.6c-16.7-16.3-24.8-40.3-24.2-72l0.5-1.1h43.3c0,23.4,5.9,40.1,17.7,50.1c11.8,10,26.3,14.9,43.4,14.9
	c19.6,0,34.9-4.7,46-14C567.7,553.3,573.2,540.4,573.2,523.8z"/>

</symbol>






<!-- Samantha :: use below to make background-image with #fragment referencing <view> -->
<!-- symbol is generated by illustrator, and class can be added manually to <path> -->
<!-- npm svg-sprite-generate was used to merge multiple SVG files -->
<!-- the value of <view> and <use>'s viewBox , position, x and y in this file, they do not affect the usage in CSS -->


<!-- define view locations for each icon, pattern of id is "shape-(id of symbol)-view" -->
<view id="shape-alert-view" viewBox="0 0 20 20"/>
<view id="shape-arrow-blue-left-view" viewBox="0 21 20 20"/>
<view id="shape-arrow-blue-right-view" viewBox="0 41 20 20"/>
<view id="shape-begin-off-view" viewBox="0 61 20 20"/>
<view id="shape-cart-view" viewBox="0 81 20 20"/>
<view id="shape-fav-off-view" viewBox="0 101 20 20"/>
<view id="shape-fav-on-view" viewBox="0 121 20 20"/>
<view id="shape-icon_event-view" viewBox="0 141 20 20"/>
<view id="shape-icon_pdf-view" viewBox="0 161 20 20"/>
<view id="shape-icon_registor-view" viewBox="0 181 20 20"/>
<view id="shape-last-off-view" viewBox="0 201 20 20"/>
<view id="shape-mail-view" viewBox="0 221 20 20"/>
<view id="shape-mymap-view" viewBox="0 241 20 20"/>
<view id="shape-next-off-view" viewBox="0 261 20 20"/>
<view id="shape-order1-view" viewBox="0 281 20 20"/>
<view id="shape-order2-view" viewBox="0 301 20 20"/>
<view id="shape-prev-off-view" viewBox="0 321 20 20"/>
<view id="shape-price-view" viewBox="0 341 20 20"/>

<!-- Because these icons are background image, property `fill` cannot be set via CSS. `fill` can be set as below, -->
<use xlink:href="#alert" x="0" y="0"><style type="text/css">	.st0{fill:#80c342;} </style></use>
<use xlink:href="#arrow-blue-left" x="0" y="21"><style type="text/css">	.st0{fill:#80c342;}</style></use>
<use xlink:href="#arrow-blue-right" x="0" y="41"><style type="text/css">	.st0{fill:#80c342;} </style></use>
<use xlink:href="#begin-off" x="0" y="61"><style type="text/css">	.st0{fill:#80c342;} </style></use>
<use xlink:href="#cart" x="0" y="81"><style type="text/css">	.st0{fill:#80c342;} </style></use>
<use xlink:href="#fav-off" x="0" y="101"><style type="text/css">	.st0{fill:#80c342;} </style></use>
<use xlink:href="#fav-on" x="0" y="121"><style type="text/css">	.st0{fill:#80c342;} </style></use>
<use xlink:href="#icon_event" x="0" y="141"><style type="text/css">	.st0, .st1, .st3{fill:#80c342;stroke:#80c342} </style></use>
<use xlink:href="#icon_pdf" x="0" y="161"><style type="text/css">	.st0{fill:#80c342;} </style></use>
<use xlink:href="#icon_registor" x="0" y="181"><style type="text/css">	.st0{fill:#80c342;} </style></use>
<use xlink:href="#last-off" x="0" y="201"><style type="text/css">	.st0{fill:#80c342;} </style></use>
<use xlink:href="#mail" x="0" y="221"><style type="text/css">	.st0{fill:#80c342;} </style></use>
<use xlink:href="#mymap" x="0" y="241"><style type="text/css">	.st0{fill:#80c342;} </style></use>
<use xlink:href="#next-off" x="0" y="261"><style type="text/css">	.st0{fill:#80c342;} </style></use>
<use xlink:href="#order1" x="0" y="281"><style type="text/css">	.st0{fill:#80c342;} </style></use>
<use xlink:href="#order2" x="0" y="301"><style type="text/css">	.st0{fill:#80c342;} </style></use>
<use xlink:href="#prev-off" x="0" y="321"><style type="text/css">	.st0{fill:#80c342;} </style></use>
<use xlink:href="#price" x="0" y="341"><style type="text/css">	.st0{fill:#80c342;} </style></use>


</svg>