<?xml version="1.0" encoding="utf-8"?>
<!-- Generator: Adobe Illustrator 21.0.0, SVG Export Plug-In . SVG Version: 6.00 Build 0)  -->
<svg version="1.1" id="Layer_1" xmlns="http://www.w3.org/2000/svg" xmlns:xlink="http://www.w3.org/1999/xlink" x="0px" y="0px"
	 viewBox="0 0 1024 1024" style="enable-background:new 0 0 1024 1024;" xml:space="preserve">
<style type="text/css">
	.st0{fill-rule:evenodd;clip-rule:evenodd;fill:#005F9F;}
</style>
<g>
	<path class="st0" d="M899.1,192.7H128.2c-17.7,0-32.1,14.4-32.1,32.1v64.2c0,17.8,14.4,32.1,32.1,32.1h770.9
		c17.7,0,32.1-14.4,32.1-32.1v-64.2C931.2,207.1,916.8,192.7,899.1,192.7z M899.1,449.7H128.2c-17.7,0-32.1,14.4-32.1,32.1v64.2
		c0,17.8,14.4,32.1,32.1,32.1h770.9c17.7,0,32.1-14.4,32.1-32.1v-64.2C931.2,464.1,916.8,449.7,899.1,449.7z M899.1,706.7H128.2
		c-17.7,0-32.1,14.4-32.1,32.1v64.2c0,17.8,14.4,32.1,32.1,32.1h770.9c17.7,0,32.1-14.4,32.1-32.1v-64.2
		C931.2,721.1,916.8,706.7,899.1,706.7z"/>
</g>
</svg>
