<?xml version="1.0" encoding="utf-8"?>
<!-- Generator: Adobe Illustrator 21.0.0, SVG Export Plug-In . SVG Version: 6.00 Build 0)  -->
<svg version="1.1" id="Layer_1" xmlns="http://www.w3.org/2000/svg" xmlns:xlink="http://www.w3.org/1999/xlink" x="0px" y="0px"
	 viewBox="0 0 1024 1024" style="enable-background:new 0 0 1024 1024;" xml:space="preserve">
<style type="text/css">
	.st0{fill:#fff;}
	.st1{fill:#fff;stroke:#fff;stroke-width:10;stroke-miterlimit:10;}
</style>
<g>
	<path class="st0" d="M551.8,889.5L318.6,358.4c-12.4-30.6-18.5-62.5-18.5-95.2c0-139.9,113.9-253.8,253.9-253.8
		s253.9,113.9,253.9,253.8c0,32.7-6.2,64.6-18.3,94.8L551.8,889.5z M553.9,41.8c-122.1,0-221.5,99.3-221.5,221.4
		c0,28.5,5.4,56.3,16,82.7l203.6,463.7l207.6-464.3c10.4-25.8,15.7-53.6,15.7-82.1C775.4,141.1,676,41.8,553.9,41.8z M553.9,383
		C487.8,383,434,329.3,434,263.2c0-66.1,53.8-119.9,119.9-119.9s119.9,53.8,119.9,119.9C673.8,329.3,620,383,553.9,383z
		 M553.9,175.7c-48.2,0-87.5,39.2-87.5,87.5c0,48.2,39.3,87.5,87.5,87.5c48.3,0,87.5-39.3,87.5-87.5
		C641.4,214.9,602.2,175.7,553.9,175.7z"/>
</g>
<path class="st1" d="M931,649.9H651.6c-2.5,5.6-5.4,12.3-8.8,20h272.7l68.9,266H136.1l65.7-266h256.6l-8.8-20H186.2l-75.6,306h899.7
	L931,649.9z"/>
</svg>
