<?xml version="1.0" encoding="utf-8"?>
<!-- Generator: Adobe Illustrator 19.0.1, SVG Export Plug-In . SVG Version: 6.00 Build 0)  -->
<svg version="1.1" xmlns="http://www.w3.org/2000/svg" xmlns:xlink="http://www.w3.org/1999/xlink" x="0px" y="0px"
	 viewBox="0 0 1024 1024" style="enable-background:new 0 0 1024 1024;" xml:space="preserve">
<g fill="#005f9f">
	<path d="M512,47c-71.9,0-130.5,58.5-130.5,130.4c0,72,58.6,130.5,130.5,130.5s130.5-58.5,130.4-130.5
		C642.4,105.5,583.9,47,512,47z M512,264.3c-47.9,0-86.8-39-86.8-86.8c0-47.9,39-86.8,86.8-86.8s86.8,38.9,86.8,86.8
		C598.8,225.4,559.8,264.3,512,264.3z"/>
	<path d="M846.5,307.9c72,0,130.5-58.5,130.5-130.5C977,105.5,918.5,47,846.5,47S716,105.5,716,177.4
		C716,249.4,774.6,307.9,846.5,307.9z M846.5,90.7c47.9,0,86.8,38.9,86.8,86.8c0,47.9-39,86.8-86.8,86.8c-47.9,0-86.8-39-86.8-86.8
		C759.7,129.6,798.7,90.7,846.5,90.7z"/>
	<path d="M846.5,381.6c-72,0-130.5,58.6-130.5,130.5s58.6,130.4,130.5,130.4c72,0,130.5-58.6,130.5-130.5
		S918.5,381.6,846.5,381.6z M846.5,598.8c-47.9,0-86.8-39-86.8-86.8c0-47.9,39-86.8,86.8-86.8c47.9,0,86.8,39,86.8,86.8
		C933.3,559.9,894.3,598.8,846.5,598.8z"/>
	<path d="M177.5,716.1c-72,0-130.5,58.6-130.5,130.5S105.5,977,177.5,977c71.9,0,130.4-58.5,130.4-130.4
		C307.9,774.6,249.4,716.1,177.5,716.1z M177.5,933.4c-47.9,0-86.8-39-86.8-86.8c0-47.9,39-86.8,86.8-86.8s86.7,38.9,86.8,86.8
		C264.3,894.5,225.3,933.4,177.5,933.4z"/>
	<path d="M509.3,381.6c-72,0-130.5,58.6-130.5,130.5s58.6,130.4,130.5,130.4s130.4-58.6,130.5-130.4
		C639.8,440.1,581.2,381.6,509.3,381.6z M509.3,598.8c-47.9,0-86.8-39-86.8-86.8c0-47.9,39-86.8,86.8-86.8s86.7,39,86.8,86.8
		C596.1,559.9,557.1,598.8,509.3,598.8z"/>
	<path d="M509.3,716.1c-72,0-130.5,58.6-130.5,130.5S437.4,977,509.3,977s130.4-58.5,130.5-130.4
		C639.8,774.6,581.2,716.1,509.3,716.1z M509.3,933.4c-47.9,0-86.8-39-86.8-86.8c0-47.9,39-86.8,86.8-86.8s86.7,38.9,86.8,86.8
		C596.1,894.5,557.1,933.4,509.3,933.4z"/>
	<path d="M846.5,716.1c-72,0-130.5,58.6-130.5,130.5S774.6,977,846.5,977c72,0,130.5-58.5,130.5-130.4
		C977,774.6,918.5,716.1,846.5,716.1z M846.5,933.4c-47.9,0-86.8-39-86.8-86.8c0-47.9,39-86.8,86.8-86.8c47.9,0,86.8,38.9,86.8,86.8
		S894.3,933.4,846.5,933.4z"/>
	<path d="M178,47c-71.9,0-130.5,58.5-130.5,130.4c0,72,58.6,130.5,130.5,130.5s130.5-58.5,130.4-130.5
		C308.4,105.5,249.9,47,178,47z M178,264.3c-47.9,0-86.8-39-86.8-86.8c0-47.9,39-86.8,86.8-86.8s86.8,38.9,86.8,86.8
		C264.8,225.4,225.8,264.3,178,264.3z"/>
	<path d="M177.5,381.5C105.5,381.5,47,440.1,47,512s58.5,130.5,130.5,130.5c71.9,0,130.4-58.6,130.4-130.5
		C307.9,440,249.4,381.5,177.5,381.5z M177.5,598.8c-47.9,0-86.8-39-86.8-86.8c0-47.9,39-86.8,86.8-86.8s86.7,39,86.8,86.8
		C264.3,559.9,225.3,598.8,177.5,598.8z"/>
</g>
</svg>
