<?xml version="1.0" encoding="utf-8"?>
<!-- Generator: Adobe Illustrator 19.0.1, SVG Export Plug-In . SVG Version: 6.00 Build 0)  -->
<svg version="1.1" xmlns="http://www.w3.org/2000/svg" xmlns:xlink="http://www.w3.org/1999/xlink" x="0px" y="0px" viewBox="0 0 1024 1024" style="enable-background:new 0 0 1024 1024;" xml:space="preserve"><path fill="#fff" d="M856.3,281V153.9H36v148v353.4v127.1c0,47.3,38.5,85.8,85.8,85.8h778.4c47.3,0,85.8-38.5,85.8-85.8V281H856.3z M78,782.4V655.3V302V195.9h736.5v586.6c0,16,4.4,31,12.1,43.8H121.8C97.6,826.2,78,806.6,78,782.4z M943.9,782.4 c0,24.1-19.7,43.8-43.8,43.8s-43.8-19.7-43.8-43.8V323h87.6V782.4L943.9,782.4z M356.7,295.4H173.2v230.7h183.5L356.7,295.4 L356.7,295.4z M314.8,484.2h-99.6V337.3h99.6V484.2z M425,350.8h293v42H425V350.8z M571.5,470.7H425v-42h146.5V470.7z M176.2,580.8 H700v42H176.2V580.8z M176.2,658.8h377.3v42H176.2V658.8z"/></svg>