<?xml version="1.0" encoding="utf-8"?>
<!-- Generator: Adobe Illustrator 19.0.1, SVG Export Plug-In . SVG Version: 6.00 Build 0)  -->
<svg version="1.1" xmlns="http://www.w3.org/2000/svg" xmlns:xlink="http://www.w3.org/1999/xlink" x="0px" y="0px"
	 viewBox="0 0 1024 1024" style="enable-background:new 0 0 1024 1024;" xml:space="preserve">
<path fill="#005f9f" d="M880.5,985.8H142.1v-950h738.5L880.5,985.8L880.5,985.8z M197.2,930.6h628.2V91H197.2V930.6z M752.4,789.2H270.2v38.6h482.2
	V789.2z M573.2,523.8c0-13.5-4.9-25.2-14.6-34.9c-9.7-9.7-25.7-18.4-47.9-26c-30.7-9.3-53.9-21.7-69.6-37.2s-23.5-36.2-23.5-62
	c0-25.1,7.2-45.5,21.6-61.3c14.4-15.8,34.2-25.3,59.4-28.5v-50.4h36v50.6c25.5,3.7,45.3,14.6,59.4,32.7
	c14.1,18.2,21.1,42.5,21.1,73.1h-44.7c0-20.7-4.8-37.4-14.4-50.2c-9.6-12.8-22.9-19.2-39.9-19.2c-17.9,0-31.4,4.7-40.3,14
	c-8.9,9.4-13.3,22.2-13.3,38.4c0,14.7,4.6,26.7,13.8,35.8c9.2,9.1,25.8,17.8,49.8,26c31.2,10,54.3,22.5,69.3,37.5
	c15.1,15,22.6,35.3,22.6,61c0,26.2-7.8,46.9-23.5,62.4c-15.7,15.4-37.2,24.6-64.5,27.5V657h-35.8v-43.6
	c-26.2-2.7-47.6-12.3-64.3-28.6c-16.7-16.3-24.8-40.3-24.2-72l0.5-1.1h43.3c0,23.4,5.9,40.1,17.7,50.1c11.8,10,26.3,14.9,43.4,14.9
	c19.6,0,34.9-4.7,46-14C567.7,553.3,573.2,540.4,573.2,523.8z"/>
</svg>
