<?xml version="1.0" encoding="utf-8"?>
<!-- Generator: Adobe Illustrator 19.0.1, SVG Export Plug-In . SVG Version: 6.00 Build 0)  -->
<svg version="1.1" xmlns="http://www.w3.org/2000/svg" xmlns:xlink="http://www.w3.org/1999/xlink" x="0px" y="0px" viewBox="0 0 1024 1024" style="enable-background:new 0 0 1024 1024;" xml:space="preserve"><path fill="#fff" d="M669.8,733.7c-63,43.7-137,66.8-214,66.8C248,800.5,79,631.5,79,423.7C79,215.9,248.1,46.9,455.9,46.9 c207.7,0,376.8,169,376.8,376.8c0,107.9-46.3,210.6-127.2,282.2l238.5,238.5L912.2,976L669.8,733.7z M455.9,91.7 c-183.1,0-332.1,149-332.1,332.1c0,183.1,149,332.1,332.1,332.1c183.1,0,332.1-149,332.1-332.1c0-44.7-8.8-88.2-26.1-129.1 c-16.8-39.5-40.8-75.1-71.2-105.5c-30.5-30.5-66-54.5-105.6-71.2C544.1,100.5,500.7,91.7,455.9,91.7z"/></svg>