<?xml version="1.0" encoding="utf-8"?>
<!-- Generator: Adobe Illustrator 19.0.1, SVG Export Plug-In . SVG Version: 6.00 Build 0)  -->
<svg version="1.1" xmlns="http://www.w3.org/2000/svg" xmlns:xlink="http://www.w3.org/1999/xlink" x="0px" y="0px" viewBox="0 0 1024 1024" style="enable-background:new 0 0 1024 1024;" xml:space="preserve"><path fill="#666" d="M680.5,621.2c-20.2,0-38.8,7.1-53.4,18.8l-199.3-115c0.7-4.2,1.1-8.5,1.1-12.9c0-4.4-0.4-8.6-1.1-12.8 l199.4-115.1c14.6,11.7,33.1,18.7,53.3,18.7c47.2,0,85.4-38.2,85.4-85.4c0-47.2-38.2-85.4-85.4-85.4c-47.2,0-85.4,38.2-85.4,85.4 c0,4.4,0.4,8.7,1.1,12.9L396.9,445.4c-14.6-11.7-33.2-18.8-53.4-18.8c-47.2,0-85.4,38.2-85.4,85.4c0,47.2,38.2,85.4,85.4,85.4 c20.1,0,38.6-7,53.2-18.7l199.4,115.1c-0.6,4.2-1,8.4-1,12.7c0,47.2,38.2,85.4,85.4,85.4c47.2,0,85.4-38.2,85.4-85.4 C765.9,659.4,727.7,621.2,680.5,621.2z"/></svg>