<?xml version="1.0" encoding="utf-8"?>
<!-- Generator: Adobe Illustrator 18.1.1, SVG Export Plug-In . SVG Version: 6.00 Build 0)  -->
<svg version="1.1" id="ICON" xmlns="http://www.w3.org/2000/svg" xmlns:xlink="http://www.w3.org/1999/xlink" x="0px" y="0px"
	 viewBox="0 0 300 300" enable-background="new 0 0 300 300" xml:space="preserve">
<g>
	<path fill="#fff" d="M149.8,299.6C67.2,299.6,0,232.4,0,149.8C0,67.2,67.2,0,149.8,0c82.6,0,149.8,67.2,149.8,149.8
		C299.6,232.4,232.4,299.6,149.8,299.6z M149.8,10.1c-77.1,0-139.8,62.7-139.8,139.8s62.7,139.8,139.8,139.8
		c77.1,0,139.8-62.7,139.8-139.8S226.9,10.1,149.8,10.1z"/>
</g>
<g id="checkmark-thick_1_">
	<g>
		<path fill="#fff" d="M238.1,90c-2.5-2.4-6.5-2.4-8.9,0.2L126.6,196.4l-56.6-49.5c-2.6-2.3-6.6-2-8.9,0.6
			c-2.3,2.6-2,6.6,0.6,8.9l61.1,53.4c1.2,1,2.7,1.6,4.2,1.6c1.7,0,3.3-0.6,4.6-1.9L238.3,98.9C240.7,96.4,240.7,92.4,238.1,90z"/>
	</g>
</g>
</svg>
