<?xml version="1.0" encoding="utf-8"?>
<!-- Generator: Adobe Illustrator 19.0.1, SVG Export Plug-In . SVG Version: 6.00 Build 0)  -->
<svg version="1.1" xmlns="http://www.w3.org/2000/svg" xmlns:xlink="http://www.w3.org/1999/xlink" x="0px" y="0px"
	 viewBox="0 0 1024 1024" style="enable-background:new 0 0 1024 1024;" xml:space="preserve">
<path fill="#666" d="M1002,937.1V398L694.4,592.1L1002,937.1z M64.4,960.8h895.3L646.1,609.1L512,693.8l-134.1-84.6L64.4,960.8z M329.6,592.1
	L22,398v539.1L329.6,592.1z M268.4,483.8L43.3,341.9L511,70.2l469.7,271.7L753.6,485.1V277.7H268.4V483.8z M606,383.5
	c-7.4-18-18.7-31.7-33.8-41.3c-15.2-9.5-33.3-14.3-54.5-14.3c-20.3,0-38.6,5.1-54.8,15.3c-16.2,10.2-29,24.6-38.5,43.3
	c-9.4,18.7-14.7,39.7-15.7,63.2c-1,24.1,2.3,45.2,9.9,63.2s19.1,31.8,34.4,41.4c15.3,9.6,33.6,14.4,54.9,14.4
	c8.9,0,17.8-1.1,26.5-3.2c8.7-2.1,15.7-4.9,21-8.2l-4.7-14.7c-5.1,3-11.5,5.4-19.2,7.3c-7.7,1.9-15.4,2.8-23.1,2.8
	c-17.8,0-33-4.1-45.5-12.3c-12.6-8.2-21.9-20.1-28-35.6s-8.7-33.9-7.7-55c0.9-20.9,5.2-39.4,12.9-55.4c7.7-16,18.1-28.3,31.4-36.7
	c13.3-8.5,28.5-12.7,45.6-12.7c28.4,0,49.6,8.7,63.5,26.1s20.1,42.6,18.5,75.7c-0.5,15.3-3.8,27.8-9.7,37.3
	c-6,9.5-13.8,14.3-23.4,14.3c-12.5,0-18-9.8-16.4-29.5l6.6-70.8c-6.8-5.4-12.9-9-18.4-10.8s-11.6-2.7-18.5-2.7
	c-8.9,0-17.5,3.2-25.6,9.5s-14.8,15-19.9,26c-5.2,11-8.4,23.6-9.6,37.6c-1.6,17.5,0.7,31.1,6.9,41c6.2,9.9,15.4,14.8,27.5,14.8
	c6.3,0,12.4-1.8,18.3-5.3c5.9-3.5,11.2-8.9,15.8-16.2c4.5,14.3,14.7,21.5,30.6,21.5c15.4,0,27.7-6,36.9-17.9s14.3-28.2,15.3-48.8
	C616.6,422.5,613.4,401.5,606,383.5z M496.7,409c6.5-10.1,14.8-15.2,24.7-15.2c5.5,0,10.6,1.2,15.3,3.7l-5.9,64.2l-0.1,1.1
	c-3.1,8.1-7,14.3-11.7,18.6c-4.7,4.3-9.6,6.5-14.8,6.5c-7.5,0-13-3.2-16.4-9.7c-3.5-6.5-4.6-15.8-3.4-27.8
	C486.1,432.9,490.2,419.1,496.7,409z"/>
</svg>
