<?xml version="1.0" encoding="utf-8"?>
<!-- Generator: Adobe Illustrator 19.0.1, SVG Export Plug-In . SVG Version: 6.00 Build 0)  -->
<svg version="1.1" xmlns="http://www.w3.org/2000/svg" xmlns:xlink="http://www.w3.org/1999/xlink" x="0px" y="0px" viewBox="0 0 1024 1024" style="enable-background:new 0 0 1024 1024;" xml:space="preserve"><path fill="#fff" d="M602.3,57.3H419.7v182.5h182.5V57.3z M563.3,200H459.6V96.3h103.7V200z M828.2,57.3H645.7v182.5h182.5V57.3z M789.2,200 H685.6V96.3h103.7V200z M690,280.6L690,280.6H332l0,0H91v443.9h87.7v240.1h211.8h39.4h162.2h39.4h211.7V724.5H931V280.6H690z M390.5,924.8H218.6V707.6v-22.3v-122h-39.9v122.3H130V320.5h163V659h-0.4h97.8V924.8z M429.5,924.8V641.5v-22.3V496.8h-39v122.3 H332V320.5h358v298.6h-58.5V496.8h-39v122.3l0,0v305.7H429.5z M892,685.6h-48.7V563.3h-39.9v122v22.3v217.2H631.5V659h98.4V320.5 H892V685.6z M376.3,57.3H193.8v182.5h182.5V57.3z M336.4,200H232.8V96.3h103.7V200z"/></svg>