<?xml version="1.0" encoding="utf-8"?>
<!-- Generator: Adobe Illustrator 21.0.0, SVG Export Plug-In . SVG Version: 6.00 Build 0)  -->
<svg version="1.1" id="Layer_1" xmlns="http://www.w3.org/2000/svg" xmlns:xlink="http://www.w3.org/1999/xlink" x="0px" y="0px"
	 viewBox="0 0 1024 1024" style="enable-background:new 0 0 1024 1024;" xml:space="preserve">
<style type="text/css">
	.st0{fill:#005F9F;}
</style>
<g>
	<path class="st0" d="M956,854.6H422.6H422c-3.9-13.8-11.2-26.2-21.2-36.1v-0.1c-15-14.9-35.7-24.2-58.3-24.2
		c-22.7,0-43.3,9.2-58.3,24.2l-0.1,0.1c-9.9,9.8-17.4,22.3-21.2,36.1H70.2c-12.2,0-22.2,9.9-22.2,22.2c0,12.2,10,22,22.2,22.1h192.7
		c3.9,13.9,11.3,26.2,21.2,36.2l0.1,0.1c15,14.9,35.6,24.2,58.3,24.2c22.6,0,43.3-9.3,58.3-24.2v-0.1c10-10,17.4-22.3,21.2-36.2h0.6
		H956c12.2,0,22.2-9.9,22.2-22.1C978.2,864.5,968.2,854.6,956,854.6z M369.6,903.8l-0.1,0.1c-6.9,6.8-16.5,11.1-27.1,11.1
		c-10.6,0-20.2-4.2-27.1-11.1l-0.1-0.1c-6.8-6.8-11.1-16.4-11.1-27c0-10.7,4.2-20.3,11.1-27.1l0.1-0.2c6.9-6.8,16.4-11.1,27.1-11.1
		c10.6,0,20.2,4.2,27.1,11.1l0.1,0.2c6.8,6.8,11.1,16.4,11.1,27.1C380.7,887.3,376.5,896.9,369.6,903.8z"/>
	<path class="st0" d="M684.7,377l-159.5-92l-1.2-0.8l-159.3-91.9c-3.6-2.4-7.8-3.8-12.5-3.8c-12.2,0-22.1,9.9-22.1,22.1v185.6v185.6
		c0,3.8,1,7.6,3,11c6.1,10.6,19.7,14.1,30.2,8.1L524,508.1V508l160.6-92.6c3.4-2,6.2-4.7,8.2-8.2C698.8,396.6,695.3,383.1,684.7,377
		z M502,469.8l-127.6,73.8V396.2V248.9l127.5,73.6l1.1,0.5l126.7,73.1L502,469.8z"/>
	<path class="st0" d="M942.2,79.7C911,48.4,867.7,29,820.3,29H205.9C158.4,29,115.1,48.4,84,79.7c-31.3,31.2-50.7,74.4-50.7,121.9
		v389.1c0,47.4,19.4,90.7,50.7,121.9c31.1,31.2,74.4,50.6,121.9,50.6h614.4c47.4,0,90.7-19.4,121.9-50.6
		c31.3-31.2,50.7-74.5,50.7-121.9V201.6C992.9,154.1,973.5,110.9,942.2,79.7z M919.1,590.8c0,27.1-11.1,51.8-29,69.7
		c-17.9,17.9-42.7,29.1-69.8,29.1H205.9c-27.2,0-51.9-11.2-69.8-29.1c-17.9-17.9-29-42.6-29-69.7V201.7c0-27.2,11.1-51.9,29-69.8
		c17.9-17.9,42.7-29,69.8-29h614.4c27,0,51.8,11.1,69.8,28.9c17.9,17.9,29,42.7,29,69.8V590.8z"/>
</g>
</svg>
