<?xml version="1.0" encoding="iso-8859-1"?>
<!-- Generator: Adobe Illustrator 22.1.0, SVG Export Plug-In . SVG Version: 6.00 Build 0)  -->
<svg version="1.1" id="&#x5716;&#x5C64;_1" xmlns="http://www.w3.org/2000/svg" xmlns:xlink="http://www.w3.org/1999/xlink" x="0px"
	 y="0px" viewBox="0 0 78 78" style="enable-background:new 0 0 78 78;" xml:space="preserve">
<g>
	<g>
		<defs>
			<rect id="SVGID_1_" y="7.5" width="78" height="63"/>
		</defs>
		<clipPath id="SVGID_2_">
			<use xlink:href="#SVGID_1_"  style="overflow:visible;"/>
		</clipPath>
		<path style="clip-path:url(#SVGID_2_);" d="M58.117,37.672c-1.09-0.328-1.836-0.551-1.265-1.98
			c1.234-3.11,1.359-5.789,0.023-7.703c-2.512-3.586-9.383-3.395-17.262-0.098c0-0.004-2.472,1.086-1.84-0.879
			c1.211-3.894,1.028-7.156-0.855-9.039c-4.273-4.277-15.637,0.16-25.383,9.902C4.238,35.172,0,42.911,0,49.598
			c0,12.793,16.406,20.57,32.457,20.57c21.039,0,35.035-12.222,35.035-21.929C67.492,42.375,62.555,39.047,58.117,37.672
			L58.117,37.672z M32.5,65.582C19.695,66.848,8.637,61.059,7.805,52.649c-0.832-8.406,8.883-16.246,21.683-17.512
			c12.809-1.269,23.867,4.52,24.696,12.926C55.016,56.473,45.309,64.317,32.5,65.582L32.5,65.582z M32.5,65.582"/>
		<path style="clip-path:url(#SVGID_2_);" d="M72.09,14.258L72.09,14.258C67.008,8.625,59.512,6.481,52.594,7.95
			c-1.602,0.343-2.621,1.918-2.278,3.515c0.34,1.598,1.914,2.621,3.516,2.278c4.918-1.043,10.246,0.484,13.859,4.488
			c3.61,4,4.586,9.457,3.043,14.242c-0.504,1.559,0.348,3.227,1.911,3.73c1.554,0.504,3.222-0.347,3.726-1.902
			c0-0.004,0-0.008,0-0.012C78.543,27.559,77.172,19.887,72.09,14.258L72.09,14.258z M72.09,14.258"/>
	</g>
	<path d="M54.789,18.231c-1.379,0.293-2.254,1.652-1.957,3.031c0.293,1.371,1.648,2.254,3.023,1.953v0.004
		c1.645-0.351,3.434,0.16,4.641,1.496c1.211,1.344,1.539,3.172,1.016,4.774h0.004c-0.43,1.339,0.3,2.777,1.64,3.214
		c1.34,0.426,2.778-0.304,3.211-1.644c1.059-3.281,0.399-7.016-2.082-9.758C61.812,18.559,58.16,17.516,54.789,18.231L54.789,18.231
		z M54.789,18.231"/>
	<path d="M33.781,41.606c-6.093-1.586-12.984,1.453-15.629,6.824c-2.695,5.477-0.09,11.555,6.067,13.543
		c6.379,2.055,13.894-1.098,16.508-7.008C43.305,49.188,40.086,43.235,33.781,41.606L33.781,41.606z M29.125,55.594
		c-1.238,1.977-3.891,2.84-5.887,1.93c-1.968-0.895-2.55-3.192-1.312-5.121c1.222-1.918,3.785-2.774,5.769-1.942
		C29.699,51.317,30.344,53.598,29.125,55.594L29.125,55.594z M33.207,50.356c-0.449,0.765-1.437,1.133-2.215,0.816
		c-0.762-0.316-1-1.172-0.566-1.926c0.445-0.746,1.398-1.113,2.156-0.812C33.359,48.719,33.633,49.586,33.207,50.356L33.207,50.356z
		 M33.207,50.356"/>
</g>
</svg>
