<?xml version="1.0" encoding="iso-8859-1"?>
<!-- Generator: Adobe Illustrator 22.1.0, SVG Export Plug-In . SVG Version: 6.00 Build 0)  -->
<svg version="1.1" id="Capa_1" xmlns="http://www.w3.org/2000/svg" xmlns:xlink="http://www.w3.org/1999/xlink" x="0px" y="0px"
	 viewBox="-49 141 512 512" style="enable-background:new -49 141 512 512;" xml:space="preserve">
<path d="M143,173C36.952,173-49,244.648-49,333c0,50.944,28.736,96.128,73.312,125.376L-1,509l68.96-29.536
	c14.784,5.248,30.144,9.568,46.56,11.584c-2.24-9.76-3.52-19.776-3.52-30.048c0-88.224,86.112-160,192-160
	c9.696,0,19.168,0.8,28.512,1.952C314.616,228.968,236.696,173,143,173z M79,293c-13.248,0-24-10.752-24-24
	c0-13.248,10.752-24,24-24s24,10.752,24,24C103,282.248,92.248,293,79,293z M207,293c-13.248,0-24-10.752-24-24
	c0-13.248,10.752-24,24-24c13.248,0,24,10.752,24,24C231,282.248,220.248,293,207,293z"/>
<path d="M463,461c0-70.688-71.648-128-160-128s-160,57.312-160,128s71.648,128,160,128c14.528,0,28.352-2.048,41.76-4.96L431,621
	l-29.824-59.616C438.552,537.96,463,501.928,463,461z M255,453c-13.248,0-24-10.752-24-24s10.752-24,24-24s24,10.752,24,24
	S268.248,453,255,453z M351,453c-13.248,0-24-10.752-24-24s10.752-24,24-24s24,10.752,24,24S364.248,453,351,453z"/>
</svg>
