<?xml version="1.0" encoding="utf-8"?>
<!-- Generator: Adobe Illustrator 22.1.0, SVG Export Plug-In . SVG Version: 6.00 Build 0)  -->
<svg version="1.1" id="圖層_1" xmlns="http://www.w3.org/2000/svg" xmlns:xlink="http://www.w3.org/1999/xlink" x="0px" y="0px"
	 viewBox="0 0 248 248" style="enable-background:new 0 0 248 248;" xml:space="preserve">
<style type="text/css">
	.st0{clip-path:url(#SVGID_2_);}
</style>
<g>
	<g>
		<defs>
			<rect id="SVGID_1_" y="36" width="247.9" height="175.9"/>
		</defs>
		<clipPath id="SVGID_2_">
			<use xlink:href="#SVGID_1_"  style="overflow:visible;"/>
		</clipPath>
		<path class="st0" d="M238.3,51.4c-8.9-10.6-25.5-15-57-15H66.7c-32.3,0-49.1,4.6-58,15.9C0,63.5,0,79.7,0,102.3v42.9
			C0,188.8,10.3,211,66.7,211h114.6c27.4,0,42.5-3.8,52.4-13.2c10.1-9.6,14.4-25.4,14.4-52.6v-42.9C248,78.5,247.3,62.1,238.3,51.4
			L238.3,51.4z M159.2,129.7l-52,27.2c-1.2,0.6-2.4,0.9-3.7,0.9c-1.4,0-2.9-0.4-4.1-1.2c-2.4-1.4-3.9-4-3.9-6.8V95.6
			c0-2.8,1.5-5.4,3.8-6.8c2.4-1.5,5.4-1.6,7.8-0.3l52,27c2.6,1.4,4.3,4.1,4.3,7.1C163.5,125.5,161.9,128.3,159.2,129.7L159.2,129.7z
			 M159.2,129.7"/>
	</g>
</g>
</svg>
