<?xml version="1.0" encoding="utf-8"?>
<!-- Generator: Adobe Illustrator 22.0.1, SVG Export Plug-In . SVG Version: 6.00 Build 0)  -->
<svg version="1.1" id="Layer_1" xmlns="http://www.w3.org/2000/svg" xmlns:xlink="http://www.w3.org/1999/xlink" x="0px" y="0px"
	 viewBox="0 0 2005 2005" style="enable-background:new 0 0 2005 2005;" xml:space="preserve">
<style type="text/css">
	.st0{fill:#FEFEFE;}
</style>
<g>
	<path class="st0" d="M2.5,476.3c0,265.5,0.4,473.8,0.9,473.8c1.3,0,2.1-8,2.1-21c0-7.3,0.6-14,1.5-17.5c0.8-3.2,1.5-9.7,1.5-14.6
		c0-4.9,0.5-9.8,1.1-10.9s1.5-6.8,2-12.7c1.5-18.4,2.6-26.7,3.8-28.8c0.6-1.1,1.1-4.3,1.1-7.1c0-2.7,0.5-6.2,1.1-7.8
		c0.6-1.5,1.5-5.7,2-9.3c0.9-6.2,1.8-10.7,5.5-26.7c0.8-3.7,1.9-9,2.4-11.8c0.5-2.8,1.3-6,2-7.2c0.6-1.1,1.1-3.8,1.1-5.9
		c0-2.1,0.7-4.7,1.5-5.7c0.8-1.1,1.5-3.4,1.5-5.2c0-1.8,0.4-3.5,1-3.9c0.5-0.3,1-1.9,1-3.4c0-1.5,0.7-4.7,1.5-7.1
		c0.8-2.3,1.5-5.7,1.5-7.5c0-1.8,0.7-3.8,1.5-4.5c0.8-0.7,1.5-2.4,1.5-3.9s0.4-3.1,0.9-3.6c0.9-0.9,1.8-4.1,4.2-14.4
		c0.6-2.5,1.4-4.9,1.9-5.4s0.9-2.3,0.9-4c0-1.7,0.7-3.9,1.5-5c0.8-1.1,1.5-2.7,1.5-3.6c0-0.9,0.7-3,1.5-4.5c0.8-1.6,1.5-3.6,1.5-4.5
		c0-0.9,0.5-2,1-2.3c0.5-0.3,1-1.8,1-3.3c0-1.5,0.7-3.6,1.5-4.6c0.8-1.1,1.5-2.9,1.5-4.2c0-1.2,0.6-3.5,1.4-5c0.8-1.6,2.2-4.6,3-6.8
		c0.9-2.2,2-4.8,2.6-5.7c0.5-1,0.9-3.1,0.9-4.7c0-1.7,0.4-3,0.9-3s1.2-1,1.6-2.2c0.8-2.6,3.2-8.5,4.5-11c0.5-1,0.9-2.6,0.9-3.6
		c0.1-1.2,0.6-2.3,1.5-3.1c0.8-0.7,1.5-2,1.5-3c0-1,1.1-3.8,2.5-6.4c1.4-2.6,2.5-5.5,2.5-6.4c0-0.9,0.7-2.6,1.5-3.6
		c0.8-1.1,1.5-2.9,1.5-4.2s0.4-2.4,0.9-2.6c1.3-0.5,7.1-11.8,7.1-13.8c0-1,0.7-2.3,1.5-3c0.9-0.8,1.4-1.9,1.5-3.1
		c0-1,0.4-1.9,0.9-1.9s1.2-1.3,1.6-2.9c0.3-1.6,1.3-3.5,2.1-4.1c0.8-0.7,1.4-1.6,1.4-2.1c0-0.5,0.6-1.6,1.4-2.3
		c0.8-0.8,2-3.4,2.7-5.9c0.7-2.5,1.7-4.5,2.1-4.5c0.4,0,1-1,1.4-2.2c0.4-1.2,1.8-3.9,3.1-6c1.3-2,2.3-4.6,2.3-5.7c0-1.1,0.4-2,1-2
		c0.5,0,1.3-1.1,1.6-2.5c0.3-1.3,1.2-3,2-3.6c0.8-0.6,1.4-2,1.4-3c0-1,0.4-1.9,0.9-1.9c0.5,0,1.2-1.1,1.5-2.5
		c0.3-1.4,1.1-2.5,1.6-2.5c0.5,0,1-0.7,1-1.5c0-0.8,0.4-1.5,0.8-1.5c0.4,0,1.8-2.2,3-4.9c1.2-2.7,2.6-5.2,3.2-5.5
		c0.6-0.4,1-1.7,1-3.1c0-1.3,0.4-2.4,0.9-2.4c1.1,0,7.1-9.5,7.1-11.4c0-0.7,0.7-1.9,1.5-2.6c0.8-0.7,1.5-1.8,1.5-2.6
		c0-0.7,1.1-2.5,2.5-4c1.4-1.5,2.5-3.5,2.5-4.5c0-1,0.6-2.2,1.3-2.6c1.2-0.7,4.2-5.8,10.7-18c5.2-9.8,19.9-30.4,29.9-41.7
		c1.9-2.2,4.7-5.6,6.2-7.5c1.5-1.9,3.6-4.5,4.7-5.8c1.1-1.3,2.1-3,2.1-3.7s0.7-1.3,1.5-1.3c0.8,0,1.5-0.5,1.5-1c0-0.6,1.8-2.9,4-5.2
		c2.2-2.3,4-4.6,4-5.2c0-0.6,2.5-3.7,5.5-6.9c3-3.2,5.5-6.5,5.5-7.2c0-0.7,0.4-1.4,1-1.4c0.6,0,1-0.7,1-1.5c0-0.8,0.7-1.5,1.5-1.5
		c0.8,0,1.5-0.3,1.5-0.8c0-0.4,1.8-2.8,4-5.2c2.2-2.5,4-4.8,4-5.2c0-1.1,3.9-4.7,5-4.7c0.6,0,1-0.5,1-1.1c0-1.4,2.5-3.9,3.9-3.9
		c0.6,0,1.1-0.6,1.1-1.2s1.8-3.3,4-5.7c2.2-2.5,4-4.8,4-5.1c0-0.3,5-5.8,11.2-12.1c5.3-5.4,10.6-10.9,15.9-16.3
		c7.5-7.9,38.4-37.9,41.4-40.2c4.3-3.4,16.4-14.2,18.7-16.8c1.1-1.3,3.3-3,4.8-3.8c1.5-0.8,4.9-3.4,7.5-5.9c2.6-2.5,5.1-4.5,5.5-4.5
		c0.4,0,0.8-0.7,0.8-1.5c0-0.8,0.8-1.5,1.7-1.5c1,0,4.4-2.5,7.7-5.5c3.3-3,6.4-5.5,7-5.5c0.6,0,2.9-1.8,5.3-4c2.4-2.2,4.6-4,5-4
		c0.4,0,2.6-1.8,5-4c2.4-2.2,4.9-4,5.7-4c0.9-0.1,1.7-0.5,2.2-1.3c0.4-0.7,4.4-3.9,8.8-7.2c4.4-3.3,8.1-6.3,8.3-6.7
		c0.2-0.4,0.9-0.8,1.7-0.8c0.7,0,1.9-0.6,2.7-1.3c0.7-0.7,3.3-2.6,5.8-4.1c3.5-2.3,6.8-4.6,10.1-7.1c3.1-2.4,5.9-4.3,6.1-4.3
		c0.3,0,5.4-3.3,11.5-7.2c16-10.5,27.3-17.5,31.1-19.3c0.8-0.4,2.6-1.5,3.8-2.5c1.3-1,4.7-2.9,7.5-4.3c2.8-1.4,5.8-3,6.6-3.5
		c5.4-3.4,15.8-9.2,23.9-13.3c5.2-2.6,10.1-5.1,11-5.6c0.8-0.4,3.3-1.7,5.5-2.7c2.2-1,4.2-2.1,4.5-2.5c0.3-0.3,2.3-1.4,4.5-2.3
		c2.2-1,4.7-2.1,5.5-2.6c0.8-0.5,2.2-1.2,3-1.5c0.8-0.3,5.1-2.3,9.5-4.5c4.4-2.1,8.7-3.9,9.6-3.9s2.1-0.7,2.8-1.5
		c0.7-0.8,2.1-1.5,3.1-1.5c1,0,2.1-0.4,2.4-0.9c0.3-0.5,1.9-1.2,3.5-1.6c1.6-0.4,3-1.1,3-1.6s0.5-0.9,1.1-0.9c0.6,0,2.7-0.7,4.7-1.6
		l7.1-3.1c1.8-0.8,3.5-1.6,5.2-2.4c1-0.5,2.2-0.8,3.3-0.9c0.9,0,2.8-0.6,4.3-1.3c4.3-2.1,8.6-4,13.1-5.7c5.2-1.9,10.2-4,13.1-5.5
		c1.5-0.8,3.7-1.4,5-1.4c1.3,0,3.2-0.7,4.3-1.5c1.1-0.8,2.9-1.5,4.1-1.5c1.2,0,2.5-0.3,2.9-0.7c1.1-1.1,9.9-4.3,11.7-4.3
		c0.9,0,2.9-0.7,4.5-1.5c1.6-0.8,3.8-1.5,5-1.5c1.2,0,2.5-0.5,2.8-1c0.3-0.5,1.4-1,2.3-1c0.9,0,3-0.7,4.5-1.5c1.6-0.8,4-1.5,5.5-1.5
		c1.5,0,3.5-0.6,4.6-1.4c1.4-0.9,2.9-1.5,4.5-1.9c1.4-0.3,5-1.3,8-2.2c3.6-1.1,7.3-2.1,11-3c3.7-0.9,7.3-1.9,11-3
		c3.1-0.9,6.3-1.8,9.5-2.5c2.2-0.5,6.9-1.6,10.5-2.5c4-1,8-1.9,12-2.7c3-0.5,5.9-1.4,6.4-1.9s2.7-0.9,4.8-0.9c2.1,0,4.7-0.5,5.7-1
		c1-0.5,4.7-1.4,8.2-2c3.5-0.6,9.7-1.7,13.8-2.6c4.1-0.9,10-1.9,13-2.3c3.8-0.6,7.7-1.2,11.5-1.9c5.4-1,21.6-3.4,31.9-4.7
		c14.7-1.8,32.9-3.8,38.4-4.1c3.6-0.2,13.7-1.1,22.4-2c21.8-2.1,125.7-1.5,152.1,0.8c26.7,2.4,39.1,3.7,42.1,4.3
		c1.5,0.3,6.2,1,10.5,1.4c19.6,2.2,51.1,7.7,77.2,13.4c4.1,0.9,9.3,2,11.5,2.4c2.2,0.4,9.6,2.2,16.5,4c6.9,1.8,14.4,3.6,16.7,4.1
		s5.1,1.3,6.2,1.9c1.1,0.6,3.2,1,4.7,1.1c1.9,0.1,3.7,0.6,5.3,1.5c1.4,0.8,3.7,1.4,5.2,1.5c1.5,0,2.9,0.4,3.2,0.9
		c0.3,0.5,2,1.1,3.8,1.5c3.9,0.7,28.5,8.4,30.7,9.6c0.8,0.4,3.1,1.1,5,1.6c1.9,0.4,4.1,1.1,5,1.5c0.8,0.4,3.8,1.5,6.5,2.5
		c6.7,2.2,18.1,6.3,22.4,8c13,5,19.7,7.7,21.2,8.5c1,0.5,2.1,1,2.7,1c0.9,0,22.4,9.3,41.5,17.9c12.1,5.5,60.3,29.9,62.8,31.9
		c0.5,0.4,3.9,2.3,7.5,4.3c10.7,5.8,19.3,10.6,25.5,14.4c12,7.4,22.6,14.1,25.9,16.3c2.2,1.5,9.8,6.6,17,11.3
		c7.1,4.7,14.1,9.5,15.5,10.5c1.4,1,8.6,6.2,15.9,11.6c4.8,3.5,9.7,7,14.5,10.6c0.6,0.5,4.6,3.6,9.1,7.1c4.4,3.4,10.5,8.2,13.5,10.6
		l9.3,7.5c2.2,1.7,4.4,3.6,5,4.2c3.8,3.4,7.7,6.7,11.6,10c23,19.6,27.2,23.6,55.4,51.8c23.8,23.9,27.9,28.2,46,48.9
		c8.9,10.2,29.4,34.9,33.8,40.9c1.6,2.2,3.8,5,4.9,6.3c1.1,1.3,7.3,9.6,13.7,18.5c6.4,8.9,13.3,18.4,15.3,21.1
		c3.3,4.6,14.5,21.3,16.9,25.2c0.5,0.9,2.7,4.3,4.7,7.5c2.1,3.2,3.7,6,3.7,6.3c0,0.2,2.8,4.8,6.3,10.1c3.5,5.3,6.6,10.4,7,11.2
		c0.4,0.8,1.6,2.8,2.6,4.5s2.3,3.7,2.7,4.5c0.4,0.8,2.4,4.4,4.4,8c5.7,10.1,10.8,19.5,16.7,30.9c2.2,4.3,4.5,8.7,6.7,13
		c3.8,7.3,20.4,42.6,20.4,43.5c0,0.4,1.3,3.4,2.9,6.8c5.1,10.8,22.1,53.4,22.1,55.3c0,0.5,0.7,2.3,1.5,3.8c0.8,1.6,1.5,3.8,1.5,4.9
		c0,1.1,0.4,2.5,0.9,3c1.2,1.3,7.1,18.5,7.1,20.5c0,0.9,0.7,2.9,1.5,4.5c0.8,1.6,1.5,3.5,1.5,4.4c0,0.8,0.9,4,2.1,7
		c1.2,3,2.5,7,2.9,9c0.5,1.9,1.3,5.5,1.9,8c0.6,2.5,1.5,5.4,2,6.5c0.5,1.1,1.1,3.1,1.4,4.5c0.3,1.4,1.7,7.2,3.2,13
		c1.5,5.8,3,12,3.5,14c0.5,1.9,1.4,5.5,2,8c1.9,7.2,4,16.1,4.9,21.5c0.5,2.7,1.6,8.6,2.5,13c2.9,14.9,4.7,24.9,5.4,31.5
		c0.4,3.6,1.1,7.1,1.5,7.8c0.4,0.7,1.1,4.9,1.6,9.4c0.5,4.5,1.3,10.7,1.8,13.7c0.9,5.6,2.1,16.2,4.2,36.9
		c1.1,10.6,2.7,36.5,2.9,45.1c0,2.1,0.5,3.7,1.1,3.7c0.7,0,1-159.3,1-475.8V2.5H2.5V476.3 M966.1,315.8c-11.4,0.7-20.9,1.6-44.9,3.9
		c-12.5,1.2-24.8,2.8-29.9,3.9c-8.7,1.8-16.5,3.2-20.4,3.7c-2.2,0.3-6.5,1.1-9.5,1.9c-3,0.8-9.1,2.1-13.5,3
		c-9.2,1.9-12.1,2.6-19.1,4.8c-2.8,0.9-6.1,1.6-7.2,1.6c-1.5,0.1-3,0.4-4.4,0.9c-1.3,0.5-4.8,1.6-7.8,2.5
		c-9.8,2.9-25.3,7.8-31.9,10.3c-3.6,1.3-6.9,2.4-7.4,2.4c-1.3,0-33.8,13-46.4,18.6c-18.6,8.3-47.6,22.8-61.5,30.9
		c-4.1,2.4-8.2,4.7-12.3,7.1c-7.4,4.1-26.8,16.5-38.2,24.5c-4.5,3.2-9.1,6.3-10.1,7c-3.4,2.2-14,10.1-15.4,11.4
		c-0.7,0.7-1.6,1.3-2,1.3c-0.4,0-2.1,1.2-3.8,2.7c-1.7,1.5-4.5,3.9-6.3,5.2c-1.7,1.4-3.5,2.7-5.2,4.1c-1.1,0.9-3.8,3.2-6.1,5
		c-2.3,1.8-4.6,3.8-5.2,4.3c-0.6,0.6-2.6,2.3-4.6,3.8c-19.8,16.1-69.4,66.5-81.3,82.5c-1.1,1.5-5.6,7.1-10,12.6
		c-11.6,14.4-11.7,14.5-21.7,29.8c-5.3,8.1-10.8,16-16.3,23.9c-7.4,10.3-18.4,28-21.8,34.9c-1.1,2.2-2.5,4.7-3.1,5.5
		c-3,3.7-26.1,51.3-30.8,63.3c-2.6,6.6-3.4,8.7-6.9,16.7c-2.9,6.6-5.4,13.4-7.6,20.2c-1.2,3.8-2.8,8.4-3.6,10.1
		c-0.8,1.7-1.4,3.9-1.4,4.8s-0.4,2.4-0.9,3.3c-1.1,2.1-3,7.7-4.1,11.7c-0.4,1.6-1.3,4.3-1.8,6c-1.1,3.1-3.2,10.9-5.2,18.5
		c-0.6,2.5-1.7,6.7-2.5,9.5c-1.1,4.3-2.1,8.6-3,13c-0.9,4.4-2.1,9.4-2.6,11c-0.6,2-0.9,4.1-0.9,6.3c0,1.8-0.7,4.8-1.5,6.8
		c-0.9,2.4-1.4,4.9-1.5,7.4c0,2.1-0.4,5-1,6.4c-1,2.5-1.5,6.4-4.6,32.4c-4.8,40.3-6.4,82.5-4.4,113.2c0.5,7.7,1.3,20.5,1.9,28.4
		c0.5,8,1.2,15.1,1.5,16c0.3,0.8,1,5.5,1.6,10.5c0.6,4.9,1.7,13.7,2.6,19.4s1.9,13,2.4,16.1s1.1,6.2,1.5,6.8
		c0.4,0.6,1.1,3.9,1.6,7.3s1.6,9.1,2.4,12.6c0.9,3.6,1.9,8.3,2.4,10.5c1.1,5.3,6,24.4,7,26.9c0.4,1.1,1.5,4.5,2.4,7.5
		c2.7,9.1,15.6,48.2,17.1,51.4c0.7,1.6,1.9,4.3,2.5,6c0.7,1.6,1.8,4.3,2.6,5.8c0.8,1.5,1.4,3.2,1.4,3.7c0,1.2,3.5,9,13,29.4
		c9.5,20.2,11.4,24,26.5,51.3c1,1.9,2.5,4.1,3.1,4.8s1.3,1.8,1.3,2.3c0,0.5,1.8,3.7,4,7c2.2,3.3,4,6.2,4,6.5c0,0.3,2.8,4.6,6.2,9.7
		c3.4,5.1,6.7,10,7.2,10.9c2.9,4.9,15.1,21.8,24.4,33.7c3.6,4.5,8.5,10.9,11,14c19.4,25,57.3,64.3,83.2,86.2c3.2,2.7,8,6.8,10.5,9
		c5.4,4.8,16.9,13.9,22.5,17.9c2.2,1.6,4.4,3.4,5,4c0.6,0.6,3.7,3,7,5.3l12.7,8.9c12,8.4,37.8,24.9,46.6,29.9
		c1.9,1.1,7.5,4.3,12.5,7.1c8.4,4.8,45,23.3,55.6,27.9c10.3,4.5,13.6,6,23,9.9c5.4,2.3,10.3,4.1,10.8,4.1c0.6,0,2.7,0.7,4.7,1.6
		l6.9,3c1.8,0.8,4.1,1.4,5,1.4c1,0,2.2,0.4,2.7,0.8c0.5,0.4,3.6,1.6,6.9,2.6c3.3,1,7.6,2.4,9.5,3.1c1.9,0.7,6.2,2,9.5,3
		c3.3,0.9,7.1,2,8.5,2.5c1.4,0.4,5.4,1.6,9,2.5c3.6,0.9,8.7,2.3,11.5,3c6.8,1.9,13.6,3.5,20.5,5c4.1,0.9,10.1,2.3,13.2,3
		c3.2,0.8,7,1.4,8.7,1.4c1.6,0,4.2,0.5,5.7,1c1.5,0.6,5.7,1.5,9.3,2c3.6,0.5,11.2,1.6,17,2.5c5.8,0.9,14.7,2,20,2.5
		c5.2,0.5,13.1,1.3,17.5,1.9c32.2,4,86,3.6,130.2-1c34.2-3.6,41.6-4.6,51.9-7c3.5-0.8,7-1.4,10.5-1.8c3.3-0.4,7.8-1.3,10-1.8
		c3.3-0.8,6.6-1.5,10-2.2c3.3-0.7,7.3-1.6,9-2.1c2.5-0.7,5-1.3,7.5-1.8c4.3-0.8,26.1-6.8,34.4-9.5c3.3-1.1,6.6-2.1,10-3.1
		c6.3-1.9,8.2-2.5,13-4.5c2.5-1,5-1.9,7.5-2.7c2.5-0.8,5-1.8,7.5-2.8c1.6-0.7,5.5-2.1,8.5-3c3-0.9,6.5-2.3,7.7-3.1
		c1.2-0.8,2.6-1.4,3.2-1.4s3.8-1.3,7.3-2.9c7.7-3.5,15.5-7,23.3-10.3c8.3-3.6,42.6-21.2,49.8-25.6c3.7-2.3,7-4.1,7.2-4.1
		c0.6,0,28.6-17.1,29.2-17.9c0.3-0.3,5.2-3.7,11-7.5c9.4-6.2,36.7-26,37.9-27.5c0.3-0.3,2.7-2.3,5.5-4.4c2.9-2.2,5.7-4.5,8.5-7
		c1.9-1.8,4.5-3.9,5.6-4.7c9.9-6.8,55.3-51.4,72.3-70.8c15.1-17.3,18.4-21.3,20-23.8c0.9-1.4,3.3-4.4,5.2-6.5c2-2.2,3.6-4.2,3.6-4.5
		c0-0.3,1.2-1.9,2.6-3.6c1.4-1.7,4.6-6.1,7.1-10c8.3-12.8,18.5-27.9,22.7-33.4c4.3-5.7,20.5-31.4,20.5-32.5c0-0.4,1.4-3,3.2-5.8
		c1.7-2.8,6.3-11.2,10.1-18.6c3.8-7.4,7.3-13.9,7.8-14.4c0.5-0.5,0.9-2,0.9-3.2c0-1.2,0.4-2.5,0.9-2.8c0.9-0.5,7.1-12.6,7.1-13.8
		c0-0.3,1.4-3.7,3.1-7.4c3.4-7.6,4-8.9,6.4-15.3c0.9-2.5,2.3-5.7,3.1-7.1c0.8-1.5,1.4-3.3,1.4-4.1c0-1.3,1.8-5.8,4-10
		c0.5-1,0.9-2.5,0.9-3.3c0-0.9,0.6-2.8,1.4-4.3c0.8-1.5,2.1-5.1,3.1-8.1c0.9-3,2.1-6.4,2.5-7.5c2-5.1,3.3-9.3,4.1-12.5
		c1.6-6.8,3.2-12.5,4-14.5c0.4-1.1,1.2-4,1.8-6.5c0.5-2.5,1.7-7.2,2.7-10.5c0.9-3.3,1.9-8,2.2-10.5c0.3-2.5,0.9-5,1.4-5.6
		c0.9-1.1,1.6-4.4,3.7-16.3c0.9-4.8,2.4-12.9,4.7-25c0.8-4.1,1.4-9.4,1.4-11.7s0.4-6.1,0.9-8.5c6.9-31.4,7.8-123.7,1.7-169.8
		c-0.9-6.8-1.8-13.6-2.6-20.4c-0.6-4.7-1.3-9.4-1.6-10.4c-0.3-1.1-0.9-4.4-1.4-7.5c-0.9-6.3-3.3-18.5-5.5-28
		c-1-4.1-1.8-8.3-2.6-12.5c-0.6-3.3-1.5-6.4-2-6.9c-0.5-0.5-0.9-2-0.9-3.3c0-1.3-0.7-4.7-1.5-7.5c-0.8-2.8-1.9-6.5-2.4-8.2
		c-3.6-12.4-12.7-41.2-14-43.9c-0.5-1.1-2.5-6.5-4.5-12c-5.4-14.7-10.3-26.8-15.2-37.4c-11.2-24.1-23.4-48-33-64.3
		c-1.9-3.2-3.8-6.5-5.7-9.7c-18.2-31.9-56.8-83.1-83.9-111.5c-5-5.2-10.5-11.2-12.3-13.3c-3.1-3.6-31.7-30.8-39-37.1
		c-1.9-1.6-8.6-7.3-14.9-12.4c-6.3-5.2-11.7-9.7-12-10.1c-5.3-6.4-75.7-53.6-92.8-62.1c-8.3-4.3-16.5-8.6-24.7-13
		c-3.1-1.7-24.2-11.7-31.7-15.1c-2.7-1.2-10.2-4.4-16.5-6.9c-6.3-2.5-12.3-5.1-13.2-5.6c-1-0.5-2.2-1-2.8-1c-0.6,0-2.5-0.6-4.3-1.4
		c-4.6-2.1-28.8-10.4-41.1-14c-3.8-1.2-7.7-2.3-11.5-3.5c-3.5-1.1-6.9-2-10.5-2.9c-4.8-1.1-9.7-2.3-14.5-3.5
		c-18.6-4.7-25.6-6.3-33.4-7.6c-2.7-0.4-7.7-1.3-11-1.9c-15.3-2.8-17.1-3.1-47.9-7C1050,315.5,993.7,314,966.1,315.8 M848.4,516.7
		c12.2,1.8,21.3,3.8,26.9,5.9c2.5,0.9,5.8,2.1,7.5,2.5c1.6,0.4,5.5,2,8.7,3.4c3.1,1.4,6,2.6,6.3,2.6c0.4,0,2.1,1,3.8,2.2
		c1.7,1.2,4.7,3.1,6.6,4.1c5.4,2.9,24.4,15.7,24.8,16.7c0.2,0.5,0.7,0.9,1.1,0.9c0.8,0,11.4,7,34,22.5c6,4.1,11.9,8.1,18,12.1
		c3,2,5.7,3.9,6,4.2c0.5,0.7,8.9,6.3,10.5,7.1c2.4,1.2,14,9.4,14.3,10.2c0.2,0.4,0.7,0.8,1.2,0.8c0.7,0,9.7,5.9,22.9,15
		c8.4,5.7,23.1,15.7,40.9,27.7c11.8,7.9,23,15.6,24.9,17.1c1.9,1.4,4.3,3.1,5.2,3.6c5.8,3.5,30.6,20.5,31.6,21.8
		c0.7,0.9,1.7,1.6,2.2,1.6s3.8,2,7.4,4.5c3.6,2.5,6.8,4.5,7,4.5s4.5,2.9,9.5,6.5c4.9,3.6,9.2,6.5,9.4,6.5s3.7,2.4,7.7,5.2
		c4,2.9,19.9,13.7,35.2,24c11.4,7.6,22.7,15.2,34,22.9c3.3,2.3,6.8,4.7,7.6,5.2c0.9,0.6,8,5.4,15.9,10.7
		c26.9,18.3,45.8,31.2,47.5,32.2c0.9,0.5,5.5,3.7,10.1,7c4.8,3.4,9.7,6.7,14.7,10c11.8,7.5,23.8,15.8,24.9,17.2
		c0.6,0.7,3.6,2.6,6.6,4.2c3,1.5,6.8,3.8,8.5,5c1.7,1.2,3.3,2.2,3.6,2.2c0.9,0,14.1,9.2,14.5,10.1c0.2,0.5,0.9,0.9,1.5,0.9
		c8.1,0,49.5,55.7,49.5,66.6c0,0.5,0.7,2.3,1.5,3.9c0.8,1.6,1.5,3.8,1.5,4.9c0,1.1,0.3,2.4,0.7,2.8c7.5,7.5,7.6,75.9,0.1,90.6
		c-0.5,1.1-0.8,2.3-0.9,3.5c0,1-0.7,3-1.5,4.6c-0.8,1.6-1.5,3.3-1.5,3.7c0,1.8-9.3,20.3-13.7,27.2c-13.4,21.1-33.1,38.9-59.7,54.2
		c-6.6,3.8-12.7,7.5-13.5,8.2c-1.5,1.3-8.7,6.3-28.8,19.9c-6.2,4.2-12.3,8.4-18.5,12.6c-3.8,2.7-13.3,9-21,14.1
		c-7.7,5.1-15.3,10.3-16.8,11.5c-1.6,1.2-5.4,3.8-8.5,5.7c-3.1,1.9-5.8,3.7-6.1,4c-0.3,0.3-4.8,3.4-10,6.9
		c-6.3,4.3-12.6,8.6-18.9,12.9c-8.1,5.6-16.3,11.1-24.4,16.6c-8.1,5.5-16.2,11-24.2,16.5c-3.9,2.7-7.7,5.3-11.7,7.9
		c-2.1,1.3-16.5,11-50.7,34.3c-5.4,3.7-10,6.6-10.3,6.6c-0.3,0-1.1,0.6-1.9,1.4c-0.7,0.7-5.3,4-10.2,7.2c-4.8,3.2-9.2,6.2-9.8,6.7
		c-1.1,0.9-15.6,10.5-18.3,12.2c-0.9,0.6-1.9,1.3-2.1,1.6c-0.5,0.6-4.7,3.5-28.9,19.9c-5.2,3.5-9.7,6.7-10,6.9
		c-0.7,0.6-1.4,1.1-2.2,1.5c-0.9,0.5-7.7,5.1-15,10c-7.3,5-20.9,14.2-30.2,20.5c-9.3,6.3-20,13.6-23.8,16.2
		c-3.7,2.6-7.2,4.7-7.7,4.7c-0.5,0-0.9,0.3-0.9,0.8c0,0.4-1.5,1.7-3.2,2.9c-1.8,1.2-7.3,4.8-12.2,8c-4.9,3.2-9.2,6.1-9.5,6.4
		c-1.1,1.2-17.2,11.9-18,11.9c-0.5,0-1,0.3-1.2,0.8c-0.9,2.3-29.9,18.1-33.2,18.1c-0.8,0-1.7,0.4-2,0.9c-0.3,0.5-2,1.2-3.8,1.6
		c-1.8,0.4-3.9,1.1-4.7,1.5c-0.8,0.5-3.8,1.3-6.5,1.9c-37,8-63.9,6.7-95.8-4.7c-26.9-9.6-57.4-31.7-70.1-50.7
		c-1.5-2.3-3.2-4.4-4.9-6.5c-1.2-1.4-2.2-2.9-2.2-3.3c0-0.5-1.1-2.3-2.4-4c-2.8-3.7-11.6-21.9-11.6-23.9c0-0.8-0.3-1.6-0.8-2.3
		c-1.5-1.7-5.9-18.1-7.4-27.4c-3.3-20.3-2.1-54.8,2.2-62.8c0.6-1,1-2.9,1-4.2c0-2.4,3.2-12.4,4.3-13.5c0.4-0.4,0.6-1.3,0.6-2.1
		s1.3-4.2,2.9-7.6c1.6-3.3,3.1-6.7,3.5-7.6s1.9-3.7,3.6-6.5c1.3-2.1,2.5-4.3,3.7-6.5c5.2-11.3,32.3-38.9,46.4-47.4
		c1.6-0.9,28.7-19.3,50-33.7c5.4-3.7,10.2-6.7,10.7-6.7c0.5,0,0.9-0.3,0.9-0.8c0-0.4,1.7-1.7,3.7-2.7c2-1.1,4.2-2.4,4.7-3
		c2-1.8,8.4-6.5,9-6.5c0.3,0,4-2.4,8.3-5.3c21.3-14.6,27.7-18.9,29.7-19.6c1.2-0.5,2.5-1.3,2.9-1.9c0.4-0.6,3.2-2.8,6.3-4.9
		c36.7-24.6,52.9-35.6,54.6-37.1c1.1-1,2.5-1.9,3-2.1c0.6-0.2,7.7-4.9,15.8-10.4c7.6-5.1,15.2-10.2,22.8-15.2
		c4.4-2.9,9-6.1,10.2-7.2c1.2-1.1,2.4-2,2.7-2c0.5,0,14.2-9.1,42.6-28.2c7.9-5.3,14.7-9.7,15.2-9.7c1.1,0,1.1-2.1,0.1-3.5
		c-0.4-0.6-12.2-8.7-26.2-18c-12.3-8.2-24.6-16.5-36.9-24.8c-14.5-10-23-15.7-25.1-17c-3.5-2.2-28.3-18.9-28.8-19.4
		c-0.3-0.3-9.9-6.9-21.4-14.6c-10.2-6.8-20.3-13.6-30.4-20.4c-3.7-2.5-7.4-5-11.1-7.4c-2.2-1.3-47.7-32.2-53.7-36.4
		c-5.3-3.6-10.7-7.2-16-10.8c-31.7-21.2-35.4-23.6-35.8-24.2c-0.3-0.3-3.3-2.3-6.6-4.3c-3.4-2.1-7-4.5-8-5.4c-1-0.9-3.6-3-5.8-4.6
		c-5.8-4.3-20.3-19.1-25.5-26c-8.5-11.3-21.8-35.4-21.8-39.5c0-0.8-0.4-1.9-0.8-2.5c-0.4-0.5-1.6-3.6-2.6-6.9
		c-1-3.3-2.2-7.5-2.8-9.3c-5.1-16.5-5.9-48-1.7-67.7c3.4-16,3.4-15.9,6.9-25.7c0.4-1.1,2.1-5,3.8-8.7c1.7-3.7,3.1-7,3.1-7.3
		c0-0.3,1.1-2,2.4-3.8c1.3-1.8,2.7-4.2,3.1-5.4c0.4-1.2,1.1-2.2,1.6-2.2c0.5,0,0.9-0.5,0.9-1c0-3.5,28.8-35.9,32-35.9
		c0.5,0,1.4-0.6,2.1-1.3c3-2.9,9.7-7.7,10.6-7.7c0.6,0,1.2-0.3,1.4-0.8c1.4-3.2,34.9-18.2,40.5-18.2c1,0,2.3-0.4,2.8-0.9
		C790,516.9,829.8,514,848.4,516.7 M2000.2,1048.6c-0.3,3.7-0.6,11.3-0.6,16.9s-0.7,13.7-1.5,18c-0.8,4.3-1.5,11.7-1.5,16.4
		c0,4.7-0.4,9.9-1,11.5s-1.4,7.2-2,12.4c-0.8,6.7-1.6,13.3-2.6,19.9c-0.8,5.8-1.7,11.6-2.4,17.5c-0.5,3.8-1.4,8.6-2,10.5
		c-0.7,2.5-1,5-1.1,7.5c0,2.2-0.4,4.5-0.9,5c-0.5,0.5-1.4,3.9-2,7.4c-2.6,16.3-3.2,19.2-4.1,20.9c-0.5,1-1,3.1-1,4.7
		c-0.1,1.9-0.6,3.7-1.5,5.3c-0.8,1.4-1.4,4.1-1.5,6.1c0,2-0.7,5.2-1.5,7.2c-0.8,2-1.5,4.8-1.5,6.4c0,1.6-0.4,3.3-0.9,3.8
		c-1.1,1.1-3,8.2-3.8,13.9c-0.3,2.2-1.1,4.9-1.9,6c-0.8,1.1-1.4,3.3-1.4,5c0,1.7-0.7,3.9-1.5,5c-0.8,1.1-1.5,3.2-1.5,4.7
		c0,1.5-0.5,3-1,3.4c-0.5,0.3-1,1.8-1,3.3c0,1.5-0.7,4-1.5,5.5c-0.8,1.6-1.5,3.8-1.5,5c0,1.2-0.7,3-1.5,4.1
		c-0.8,1.1-1.5,3.1-1.5,4.6c0,1.5-0.7,4-1.5,5.5c-0.8,1.6-1.5,3.7-1.5,4.6c0,1-0.4,2.5-0.9,3.5c-2.1,4.1-4.1,9.4-4.1,10.6
		c0,0.7-0.7,2.6-1.5,4.2c-0.8,1.6-1.5,3.6-1.5,4.5c0,0.9-0.4,1.9-0.9,2.2c-0.5,0.3-1.2,2.1-1.5,4c-0.4,1.9-1.1,3.5-1.6,3.5
		c-0.5,0-1,1.2-1,2.6s-0.7,3.2-1.5,4.1c-0.8,0.8-1.5,2.6-1.5,3.9s-0.4,2.6-1,3c-0.5,0.3-1,1.4-1,2.4c0,1-0.7,2.4-1.5,3.1
		c-0.8,0.7-1.5,2.3-1.5,3.5s-0.6,3.6-1.4,5.1c-0.8,1.5-2.1,4.4-2.9,6.3c-0.8,1.9-2.7,6.2-4.2,9.5c-2.2,4.8-4.3,9.6-6.3,14.5
		c-0.6,1.4-2.4,5.4-4.1,9.1c-1.7,3.6-3.1,7.1-3.1,7.7c0,0.6-0.4,1.2-1,1.2c-0.5,0-1.3,1.2-1.6,2.7c-0.4,1.5-0.9,3-1.3,3.2
		c-0.3,0.3-2.3,4-4.4,8.2c-2.1,4.2-4.2,8-4.7,8.3c-0.5,0.3-0.9,1.4-0.9,2.5s-0.4,1.9-1,1.9c-0.5,0-1,0.8-1,1.9
		c-0.1,1.2-0.6,2.3-1.5,3.1c-0.8,0.7-1.5,2-1.5,3c0,1-0.7,2.3-1.5,3c-0.9,0.8-1.4,1.9-1.5,3.1c0,1-0.4,1.9-0.9,1.9
		c-0.5,0-1.2,1-1.6,2.2c-0.4,1.2-1.8,3.7-3.1,5.4c-1.3,1.7-2.4,3.9-2.4,4.7s-0.4,1.6-1,1.6c-0.5,0-1.3,1.1-1.6,2.5
		c-0.3,1.4-0.9,2.5-1.3,2.5c-0.9,0-4.1,7.2-4.1,9.3c0,0.9-0.7,1.7-1.5,1.7c-0.8,0-1.5,0.7-1.5,1.5c0,0.8-0.4,1.5-1,1.5
		c-0.5,0-1.3,1.1-1.6,2.5c-0.3,1.4-1,2.5-1.5,2.5s-0.9,1.1-0.9,2.4c0,1.3-0.7,2.6-1.5,3c-0.9,0.4-1.4,1.2-1.5,2.1
		c0,0.8-0.4,1.5-1,1.5c-0.5,0-1.3,1.1-1.6,2.5c-0.3,1.4-1,2.5-1.5,2.5c-0.5,0-1.7,1.9-2.8,4.2c-1.1,2.3-3.8,7.4-6,11.2
		c-2.2,3.8-4.4,7.9-4.9,9c-0.5,1.1-2.5,4.4-4.5,7.3c-2,2.9-3.6,5.5-3.6,5.7c0,1.1-19.1,25.7-24.5,31.5c-1.9,2-3.4,4.4-3.4,5.2
		c0,0.8-0.5,1.5-1,1.5c-1.4,0-6.8,6-7.6,8.4c-0.8,2.4-2.9,4.5-4.3,4.5c-0.6,0-1.1,0.6-1.1,1.3c0,0.7-1.1,2.4-2.5,3.7
		c-1.4,1.3-2.5,2.9-2.5,3.6c0,1.3-6.5,8.3-7.8,8.3c-0.4,0-1.3,1.4-2.1,3.1c-0.8,1.7-3.8,5.6-6.7,8.5c-2.9,3-5.3,5.8-5.3,6.3
		c0,0.5-0.4,0.9-0.9,1c-0.5,0-1.2,0.9-1.6,2.1c-0.4,1.1-3.6,5.1-7.3,8.8c-6.2,6.3-14.1,15.2-18.6,20.9c-2.7,3.4-51.3,51.5-56.5,55.9
		c-2.3,1.9-6.5,5.7-9.4,8.5c-5.7,5.4-7.2,6.7-15.4,13.4c-3,2.4-6.6,5.5-8,6.9c-1.4,1.3-5.2,4.5-8.5,7c-3.3,2.5-7,5.6-8.2,6.9
		c-1.2,1.3-2.6,2.3-3,2.3c-0.7,0-3.5,2.3-10.9,9c-1.2,1.1-2.5,1.9-3,1.9s-2.8,1.8-5.1,3.9c-2.3,2.2-5.1,4.2-6.1,4.5
		c-1,0.3-3.4,2.1-5.3,3.9c-1.9,1.8-4.4,3.7-5.6,4c-1.2,0.4-2.2,1.1-2.2,1.6c0,0.5-0.5,0.9-1.1,0.9c-0.9,0-8,5-9.9,7
		c-0.3,0.3-2.9,2.1-5.7,4c-2.9,1.9-5.2,3.8-5.2,4.2s-0.6,0.7-1.4,0.7c-0.8,0-2,0.6-2.7,1.3c-2.2,2.1-32.4,21.5-43,27.5
		c-2.3,1.3-4.4,2.8-4.5,3.2c-0.2,0.5-1.2,0.8-2.2,0.8c-1,0-2.2,0.6-2.7,1.3c-0.8,1.3-3.5,2.9-13.2,7.9c-3,1.5-5.9,3.2-6.5,3.7
		c-0.6,0.5-3.9,2.3-7.3,4.1c-3.4,1.8-6.2,3.6-6.2,4.1c0,0.5-0.9,0.9-2,0.9c-1.1,0-3.7,1.1-5.7,2.3c-2,1.3-4.7,2.7-6,3.1
		c-1.2,0.4-2.2,1.1-2.2,1.6c0,0.5-0.8,0.9-1.9,0.9c-1.2,0.1-2.3,0.6-3.1,1.5c-0.7,0.8-1.8,1.5-2.6,1.5c-0.7,0-6.1,2.5-12,5.5
		c-5.9,3-11.3,5.5-12,5.5c-0.8,0-1.4,0.4-1.4,1c0,0.5-0.5,1-1.1,1c-1.1,0-2.1,0.4-13.4,5.5c-3.3,1.5-7.6,3.4-9.5,4.1
		c-1.9,0.8-4.8,2.1-6.3,2.9c-1.6,0.8-3.4,1.4-4.1,1.4c-0.7,0-1.8,0.7-2.5,1.5c-0.8,0.9-1.9,1.4-3.1,1.5c-1.3,0.1-2.5,0.4-3.6,1
		c-1,0.5-3.5,1.7-5.7,2.6c-2.2,0.9-5.1,2.2-6.5,2.9c-1.4,0.7-5.1,2-8.2,3c-3.2,1-5.7,2.1-5.7,2.5c0,0.4-1.5,1-3.2,1.3
		c-1.8,0.3-7.1,1.9-11.7,3.7c-4.7,1.7-9.9,3.6-11.7,4.1c-1.8,0.5-3.5,1.4-3.8,1.9c-0.3,0.5-1.6,1-2.9,1c-1.3,0-3.6,0.7-5.2,1.5
		c-1.6,0.8-4.1,1.5-5.5,1.5c-1.5,0-3,0.5-3.3,1c-0.3,0.5-1.6,1-2.8,1c-1.5,0.1-2.9,0.5-4.2,1.3c-1.1,0.7-7.3,2.8-13.9,4.6
		c-6.6,1.8-12.9,3.6-14,4.1c-1.1,0.5-3.6,1.2-5.5,1.5c-1.9,0.4-3.9,1-4.5,1.3c-0.9,0.6-3.5,1.2-16,4.1c-2.2,0.5-6.9,1.6-10.5,2.5
		c-3.6,0.9-8.3,2-10.5,2.4c-4.3,0.9-8.7,1.9-13,3c-4.9,1.2-11.4,2.6-14.5,3.1c-12.8,2.1-18.6,3.2-21.5,4c-1.7,0.5-4.3,0.9-5.9,0.9
		c-1.6,0-5.6,0.6-8.9,1.4c-3.3,0.8-11.4,2.1-18,3l-18.9,2.6c-8.9,1.2-24.5,2.7-40.4,3.9c-6.9,0.5-16.7,1.4-21.9,1.9
		c-12.2,1.3-113.9,1.3-126,0.1c-7.9-0.8-15.8-1.5-23.7-2.1c-29.3-2.2-54.9-5.3-73.1-9c-2.7-0.5-6.2-1-7.9-1c-1.7,0-5.8-0.6-9.2-1.4
		c-5.2-1.1-10.3-2.2-15.5-3.1c-5-0.9-10-1.9-15-3c-3.8-0.9-7.6-1.7-11.5-2.5c-3.7-0.7-7.3-1.6-11-2.6c-2.5-0.7-5-1.3-7.5-1.9
		c-3-0.7-6-1.4-9-2.1c-3.6-0.9-7.1-1.7-10.7-2.5c-2.3-0.5-5.1-1.4-6.2-1.9c-1.2-0.6-2.6-1-3.9-1c-1.1,0-6.2-1.3-11.3-2.9
		c-6.1-1.9-12.2-3.8-18.3-5.6c-4.9-1.5-14.1-4.4-20.4-6.6c-5.5-1.9-11-3.7-16.5-5.5c-5.7-1.8-11.2-4-13.7-5.3
		c-1-0.5-2.4-0.9-3.2-0.9s-3-0.6-4.8-1.4c-3.7-1.6-7.5-3.1-11.3-4.5c-8.5-3.3-9.9-3.9-15.6-6.4c-2-0.9-3.9-1.6-4.2-1.6
		c-0.3,0-3.2-1.2-6.3-2.6c-3.2-1.4-7.1-3.2-8.8-3.9c-29.9-13.3-60.8-28.6-88.3-43.8c-36.9-20.4-89.1-54.9-119.7-78.9l-14.5-11.4
		c-4.3-3.4-8.6-6.8-12.8-10.3c-2.1-1.8-5.2-4.3-6.9-5.7c-2.8-2.3-5.5-4.6-8.1-7c-3.8-3.4-7.6-6.7-11.4-10
		c-12.1-10.4-20.5-18.4-43-40.9c-32.4-32.4-44-45.1-68.3-74.8c-1.1-1.3-3.4-4-5-6c-23.7-27.6-72.7-99.9-91.7-135.2
		c-2.1-3.8-4.1-7.4-4.5-8c-3.8-5-32.9-63.9-41-83.3c-0.6-1.4-1.6-3.8-2.3-5.5c-5.5-12.8-12-29.2-19.2-47.9l-2.9-7.5
		c-0.7-1.9-3.6-10.7-6.5-19.5c-2.8-8.8-5.8-17.4-6.5-19.2c-0.8-1.8-1.4-4-1.4-5s-1.3-5.7-2.9-10.7c-4-12.3-7.1-23.3-7.7-27.5
		c-0.3-1.9-0.9-3.9-1.3-4.5c-0.4-0.5-1.1-3.2-1.5-6c-0.4-2.7-1-5.4-1.3-6c-0.7-1-2.6-8.8-4.1-16.5c-0.6-3.2-1.3-6.3-2-9.5
		c-2.4-10.6-4.5-21.2-6.4-31.9c-1.4-7.7-3.1-16.7-3.7-19.9c-0.8-4.3-1.4-8.6-1.9-13c-0.4-3.8-1.7-14.6-2.9-23.9
		c-1.2-9.3-2.6-21-3.2-25.9c-0.6-4.9-1.4-16.4-1.8-25.5c-0.4-9.1-1.3-17.4-1.9-18.5c-0.8-1.4-1.1,120.4-1.2,471.1l0,473.1h2000
		v-477.8c0-264-0.4-477.8-0.9-477.8C2001.2,1041.9,2000.5,1044.9,2000.2,1048.6"/>
	<path d="M809.5,516.8c-12.4,1.4-18.7,2.8-33.9,7.5c-9.5,2.9-27.4,11.8-37.2,18.5c-12.2,8.2-31.1,26.1-37.2,35.2l-4.7,7.1
		c-2,2.9-6,10-9.8,17c-14.4,26.9-19.4,77.6-10.3,105.9c0.8,2.5,1.5,5.4,1.5,6.3c0,0.9,0.4,2.4,0.9,3.4c0.5,1,1.7,4,2.6,6.7
		c8.4,24.2,30,54.2,49.8,69c4.3,3.3,41.4,28.4,54.9,37.2c4.6,3,19,12.7,31.9,21.4c8.6,5.9,17.2,11.7,25.9,17.5
		c1.3,0.8,6.5,4.4,11.7,7.9c5.1,3.5,15.6,10.6,23.3,15.7c6.5,4.3,13,8.6,19.4,13c4.2,2.9,8.5,5.7,12.9,8.5c4.1,2.6,8.5,5.6,9.8,6.7
		c1.3,1.1,2.5,2.1,2.7,2.1c0.2,0,5,3.1,10.7,7c5.7,3.8,16.9,11.3,24.8,16.7s17.7,12,21.7,15c4,2.9,7.5,5.3,7.7,5.3
		c0.8,0,21.9,14.4,22.3,15.2c0.2,0.4,0.8,0.7,1.3,0.7c3.3,0,23.8,15.8,23.8,18.4c0,1.2-10.5,8.9-20.9,15.5c-3,1.9-5.7,3.7-6,4
		c-0.9,1-9.8,7-10.3,7c-0.3,0-3.6,2.1-7.3,4.7c-17.1,11.8-34.4,23.4-51.7,34.9c-7.7,5.1-14.4,9.6-15,10.1c-0.5,0.5-5,3.5-10,6.8
		l-18.5,12.4c-3.7,2.5-7.4,5-11.2,7.4c-0.9,0.6-9.5,6.4-19.2,13c-6.4,4.4-12.8,8.7-19.2,13c-2.8,1.8-12.4,8.2-25.5,17.2
		c-7,4.8-13.5,9.2-14.5,9.7c-3,1.8-22.6,14.9-23.1,15.5c-0.3,0.3-7,4.9-15,10.2c-27.4,18.3-34.9,23.6-43.1,30.5
		c-7.3,6.1-10.5,9.4-20.5,21.1c-8.8,10.2-21.7,35.5-26.1,50.9c-0.7,2.5-1.9,6.5-2.6,9c-7,23.1-5.4,59.2,3.8,87.2
		c30.9,94.2,148.7,133.8,233.7,78.5c3.9-2.5,7.8-5,8.7-5.6c0.9-0.6,5.9-3.9,11-7.5c13-9,26.1-17.9,39.2-26.7
		c5.5-3.7,10.2-6.9,10.5-7.2c0.3-0.3,5.2-3.7,11-7.6c5.8-3.9,14.1-9.5,18.5-12.5c8-5.5,15.9-10.9,23.9-16.3c8-5.4,16-10.9,23.9-16.3
		c10.4-7.2,25.3-17.3,27.3-18.6c2.3-1.4,12-8,23-15.6c15-10.3,48.4-33.1,50.2-34.2c2.5-1.5,31.2-21.1,39.8-27.1
		c4.2-2.9,8.2-5.3,8.7-5.3c0.6,0,1.1-0.4,1.1-0.8c0-0.5,3.5-3.1,7.7-5.9c4.3-2.8,12.5-8.3,18.3-12.4c4-2.8,8.1-5.6,12.1-8.3
		c0.9-0.5,7.3-4.9,14.4-9.7c6.1-4.2,12.2-8.3,18.4-12.5l7.1-4.7c4.9-3.3,20.5-13.9,27.7-18.9c16.9-11.7,36.1-24.4,36.9-24.4
		c0.4,0,1-0.4,1.1-0.9c0.5-1.3,15-10.9,30.5-20.1c32.5-19.5,48.5-33.9,62.8-56.8c6.6-10.6,18.3-37.5,18.3-42.1
		c0-0.9,0.6-4.3,1.4-7.5c5.2-22.2,4.9-42.3-1.4-73.1c-0.5-2.5-1.9-7-3-10c-1.2-3-2.5-6.7-3-8.1c-8.3-26.5-39.2-62.2-67.8-78.4
		c-7.7-4.3-15.3-9-22.6-14c-3.3-2.3-6.7-4.5-10.1-6.7c-2.3-1.4-19.8-13.2-24.7-16.7c-4.7-3.4-14.3-9.8-16.7-11.2
		c-2-1.2-24.8-16.6-26.2-17.8c-1.2-1-18.3-12.5-32.4-22c-5.8-3.8-10.7-7.3-11-7.6c-0.5-0.6-9.5-6.6-18.5-12.4c-2.2-1.4-6-4-8.5-5.7
		c-7.4-5.3-25.5-17.6-41.4-28.3c-8.2-5.5-15.1-10.4-15.3-10.8c-0.2-0.4-0.9-0.8-1.7-0.8c-0.7,0-1.5-0.3-1.7-0.8
		c-0.3-0.7-20.9-14.9-25.6-17.7c-3.3-2-15.8-10.4-25.7-17.3c-10.1-7-20.2-13.9-30.3-20.8l-30.7-20.8c-4-2.7-8.1-5.5-12.1-8.2
		c-4.2-3-21.2-14.6-40.7-27.7c-11.5-7.8-25.2-17-30.4-20.6c-5.2-3.6-13.7-9.4-19-12.9c-5.2-3.5-9.7-6.6-10-6.9
		c-2.7-2.8-33.7-22.2-41.4-25.9C868.4,518,840.2,513.3,809.5,516.8"/>
	<path d="M936.7,6.6c-3.8,0.5-12.8,1.3-20,1.9c-12,0.9-32.6,3-43.4,4.5c-16.4,2.2-27.2,3.8-32.4,4.7c-3.3,0.6-8.5,1.5-11.5,1.9
		c-3,0.4-8.9,1.5-13,2.3c-4.1,0.9-10.3,2-13.8,2.6c-3.5,0.5-7.1,1.4-8.2,2c-1,0.5-3.6,1-5.7,1c-2.1,0-4.3,0.4-4.8,0.9
		s-3.4,1.4-6.4,1.9c-3,0.5-8.4,1.7-12,2.7c-3.6,0.9-8.3,2.1-10.5,2.5c-3.2,0.7-6.4,1.5-9.5,2.5c-3.6,1.1-7.3,2.1-11,3
		c-3.7,0.9-7.3,1.9-11,3c-3,0.9-6.6,1.9-8,2.2c-1.6,0.4-3.1,1-4.5,1.9c-1.1,0.7-3.2,1.4-4.6,1.4c-1.5,0-3.9,0.7-5.5,1.5
		c-1.6,0.8-3.6,1.5-4.5,1.5c-0.9,0-2,0.5-2.3,1c-0.3,0.5-1.6,1-2.8,1c-1.2,0-3.5,0.7-5,1.5c-1.6,0.8-3.6,1.5-4.5,1.5
		c-1.9,0-10.7,3.2-11.7,4.3c-0.4,0.4-1.7,0.7-2.9,0.7c-1.2,0-3,0.7-4.1,1.5c-1.3,0.9-2.7,1.4-4.3,1.5c-1.3,0-3.5,0.7-5,1.4
		c-3,1.6-7.9,3.7-13.1,5.5c-4,1.4-9.2,3.7-13.1,5.7c-1.5,0.7-3.4,1.3-4.3,1.3c-1.2,0.1-2.3,0.4-3.3,0.8c-1.7,0.8-3.5,1.6-5.2,2.4
		l-7.1,3.1c-2,0.9-4.1,1.6-4.7,1.6c-0.6,0-1.1,0.4-1.1,0.9c0,0.5-1.3,1.2-3,1.6s-3.2,1.1-3.5,1.6c-0.3,0.5-1.4,0.9-2.4,0.9
		c-1,0-2.4,0.7-3.1,1.5c-0.7,0.8-2,1.5-2.8,1.5c-1.4,0-15.8,6.5-20.1,9.1c-1,0.6-2,1.1-3,1.5c-4.3,1.7-8.5,3.7-9,4.3
		c-0.3,0.3-2.3,1.4-4.5,2.5c-2.2,1-4.7,2.2-5.5,2.7c-0.8,0.5-5.8,3-11,5.6c-8.1,4.1-18.6,9.9-23.9,13.3c-0.8,0.5-3.8,2.1-6.6,3.5
		c-2.8,1.4-6.2,3.3-7.5,4.3c-1.2,0.9-2.5,1.8-3.8,2.5c-3.9,1.8-15.1,8.8-31.1,19.3c-6,4-11.2,7.2-11.5,7.2c-0.3,0-3,1.9-6.1,4.3
		c-3.3,2.5-6.7,4.9-10.1,7.1c-2.5,1.5-5.1,3.4-5.8,4.1c-0.7,0.7-1.9,1.3-2.7,1.3c-0.7,0-1.5,0.4-1.7,0.8c-0.2,0.4-3.9,3.5-8.3,6.7
		c-4.4,3.3-8.3,6.5-8.8,7.2c-0.5,0.7-1.3,1.2-2.2,1.3c-0.8,0-3.3,1.8-5.7,4c-2.4,2.2-4.6,4-5,4c-0.4,0-2.6,1.8-5,4
		c-2.4,2.2-4.7,4-5.3,4c-0.6,0-3.7,2.5-7,5.5c-3.3,3-6.8,5.5-7.7,5.5c-1,0-1.7,0.7-1.7,1.5s-0.3,1.5-0.8,1.5c-0.4,0-2.9,2-5.5,4.5
		c-2.6,2.4-6,5.1-7.5,5.9c-1.8,1-3.4,2.3-4.8,3.8c-2.3,2.6-14.4,13.5-18.7,16.8c-3,2.4-33.9,32.4-41.4,40.2
		c-2.6,2.7-9.7,10-15.9,16.3c-6.2,6.3-11.2,11.8-11.2,12.1c0,0.3-1.8,2.6-4,5.1c-2.2,2.5-4,5.1-4,5.7c0,0.7-0.5,1.2-1.1,1.2
		c-1.4,0-3.9,2.5-3.9,3.9c0,0.6-0.4,1.1-1,1.1c-1.1,0-5,3.6-5,4.7c0,0.4-1.8,2.8-4,5.2c-2.2,2.5-4,4.8-4,5.2c0,0.4-0.7,0.8-1.5,0.8
		c-0.8,0-1.5,0.7-1.5,1.5c0,0.8-0.4,1.5-1,1.5c-0.5,0-1,0.6-1,1.4c0,0.8-2.5,4-5.5,7.2c-3,3.2-5.5,6.3-5.5,6.9c0,0.6-1.8,2.9-4,5.2
		c-2.2,2.3-4,4.6-4,5.2c0,0.6-0.7,1-1.5,1c-0.8,0-1.5,0.6-1.5,1.3c0,0.7-0.9,2.4-2.1,3.7c-1.1,1.3-3.3,3.9-4.7,5.8
		c-2,2.5-4.1,5-6.2,7.5c-9.9,11.4-24.6,32-29.9,41.7c-6.5,12.2-9.5,17.3-10.7,18c-0.7,0.4-1.3,1.6-1.3,2.6s-1.1,3-2.5,4.5
		c-1.4,1.5-2.5,3.3-2.5,4c0,0.7-0.7,1.9-1.5,2.6c-0.8,0.7-1.5,1.9-1.5,2.6c0,1.8-5.9,11.4-7.1,11.4c-0.5,0-0.9,1.1-0.9,2.4
		s-0.5,2.7-1,3.1c-0.6,0.4-2,2.9-3.2,5.5c-1.2,2.7-2.5,4.9-3,4.9c-0.4,0-0.8,0.7-0.8,1.5c0,0.8-0.4,1.5-1,1.5
		c-0.5,0-1.3,1.1-1.6,2.5c-0.3,1.4-1,2.5-1.5,2.5c-0.5,0-0.9,0.8-0.9,1.9c-0.1,1.2-0.6,2.2-1.4,3c-0.8,0.6-1.7,2.3-2,3.6
		c-0.3,1.3-1.1,2.5-1.6,2.5c-0.5,0-1,0.9-1,2c0,1.1-1.1,3.7-2.3,5.7c-1.3,2-2.7,4.7-3.1,6c-0.4,1.2-1,2.2-1.4,2.2
		c-0.4,0-1.3,2-2.1,4.5c-0.7,2.5-2,5.2-2.7,5.9c-0.8,0.8-1.4,1.8-1.4,2.3c0,0.5-0.6,1.5-1.4,2.1c-0.8,0.6-1.7,2.5-2.1,4.1
		c-0.4,1.6-1.1,2.9-1.6,2.9s-0.9,0.8-0.9,1.9c-0.1,1.2-0.6,2.3-1.5,3.1c-0.8,0.7-1.5,2-1.5,3c0,2-5.8,13.3-7.1,13.8
		c-0.5,0.2-0.9,1.3-0.9,2.6s-0.7,3.1-1.5,4.2c-0.8,1.1-1.5,2.7-1.5,3.6c0,0.9-1.1,3.8-2.5,6.4c-1.4,2.6-2.5,5.5-2.5,6.4
		c0,0.9-0.7,2.3-1.5,3c-0.9,0.8-1.4,1.9-1.5,3.1c0,1-0.4,2.7-0.9,3.6c-1.3,2.5-3.8,8.3-4.5,11c-0.4,1.2-1.1,2.2-1.6,2.2
		c-0.5,0-0.9,1.4-0.9,3s-0.4,3.8-0.9,4.7c-0.5,1-1.7,3.5-2.6,5.7c-0.9,2.3-1.9,4.6-3,6.8c-0.8,1.6-1.4,3.8-1.4,5
		c0,1.2-0.7,3.1-1.5,4.2c-0.8,1.1-1.5,3.1-1.5,4.6c0,1.5-0.5,3-1,3.3c-0.5,0.3-1,1.4-1,2.3c0,0.9-0.7,3-1.5,4.5
		c-0.8,1.6-1.5,3.6-1.5,4.5c0,0.9-0.7,2.6-1.5,3.6c-0.8,1.1-1.5,3.3-1.5,5c0,1.7-0.4,3.5-0.9,4c-0.5,0.5-1.4,3-1.9,5.4
		c-2.4,10.4-3.3,13.5-4.2,14.4c-0.5,0.5-0.9,2.1-0.9,3.6s-0.7,3.2-1.5,3.9c-0.8,0.7-1.5,2.7-1.5,4.5c0,1.8-0.7,5.2-1.5,7.5
		c-0.8,2.3-1.5,5.5-1.5,7.1s-0.4,3.1-1,3.4c-0.6,0.3-1,2.1-1,3.9c0,1.8-0.7,4.1-1.5,5.2c-0.8,1.1-1.5,3.6-1.5,5.7
		c0,2.1-0.5,4.7-1.1,5.9c-0.6,1.1-1.5,4.4-1.9,7.2c-0.7,3.9-1.5,7.7-2.3,11.6c-3.5,15-4.6,20.8-5.5,27c-0.5,3.6-1.4,7.8-2,9.3
		c-0.6,1.5-1.1,5-1.1,7.8c0,2.7-0.5,5.9-1.1,7.1c-1.1,2.1-2.2,10.4-3.8,28.8c-0.5,5.8-1.4,11.5-2,12.7c-0.6,1.1-1.1,6-1.1,10.8
		c0,4.8-0.5,10.6-1.1,12.8c-0.6,2.2-1.4,12-1.8,21.9c-0.5,12.3-1.1,18-1.9,18.3c-1.7,0.6-1.7,100.2,0,103.3
		c0.6,1.2,1.5,9.6,1.9,18.6c0.4,9.1,1.2,20.5,1.8,25.5c0.6,4.9,2,16.6,3.2,25.9c1.2,9.3,2.4,20.1,2.9,23.9c0.4,3.8,1.3,9.7,1.9,13
		c0.6,3.3,2.3,12.3,3.7,19.9c1.9,10.7,4.1,21.3,6.4,31.9c0.6,2.7,1.5,7,2,9.5c1.5,7.6,3.4,15.4,4.1,16.5c0.3,0.5,0.9,3.2,1.3,6
		c0.4,2.7,1.1,5.4,1.5,6c0.4,0.6,1,2.6,1.3,4.5c0.6,4.2,3.7,15.1,7.7,27.5c1.6,5,2.9,9.8,2.9,10.7c0,0.9,0.6,3.2,1.4,5
		c0.8,1.8,3.7,10.5,6.5,19.2c2.8,8.8,5.7,17.5,6.5,19.5l2.9,7.5c5.9,15.5,13.1,33.7,16.9,42.4c0.6,1.4,1.6,3.8,2.3,5.5
		c2.7,6.4,3.4,8.2,5.5,13c7.6,17.4,34.8,71.9,37.8,75.8c0.4,0.5,2.5,4.1,4.5,8c19,35.3,68,107.6,91.7,135.2c1.7,2,4,4.7,5.1,6
		c32.3,39.3,79.1,88,111.3,115.6c3.5,3,8.7,7.5,11.5,10c2.7,2.4,5.4,4.7,8.1,7c1.7,1.4,4.8,3.9,6.9,5.7c2.1,1.8,7.9,6.4,12.8,10.3
		l14.5,11.4c30.6,24,82.8,58.5,119.7,78.9c27.5,15.2,58.3,30.5,88.3,43.8c1.6,0.7,5.6,2.5,8.8,3.9c3.2,1.4,6,2.6,6.3,2.6
		c0.3,0,2.2,0.7,4.2,1.6c5.7,2.5,7.1,3.1,15.6,6.4c4.4,1.7,9.5,3.8,11.3,4.5c1.8,0.8,3.9,1.4,4.8,1.4c0.8,0,2.3,0.4,3.2,1
		c2.5,1.4,8,3.5,13.7,5.3c2.7,0.9,10.2,3.4,16.5,5.5c6.3,2.2,15.5,5.1,20.5,6.6c4.9,1.5,13.2,4,18.2,5.6c5.1,1.6,10.2,2.9,11.3,2.9
		c1.1,0,2.9,0.5,3.9,1c1.1,0.6,3.8,1.4,6.2,1.9c2.3,0.5,7.2,1.6,10.7,2.5c3.6,0.9,7.6,1.8,9,2.1c1.4,0.3,4.7,1.1,7.5,1.9
		c3.6,1,7.3,1.8,11,2.6c3.3,0.6,8.5,1.7,11.5,2.5c3,0.7,9.7,2,15,3c5.2,0.9,12.2,2.3,15.5,3.1c3.3,0.8,7.4,1.4,9.2,1.4
		c1.7,0,5.3,0.4,7.9,1c18.2,3.7,43.8,6.8,73.1,9c8,0.6,18.6,1.5,23.6,2.1c12.1,1.3,113.8,1.2,126-0.1c5.2-0.6,15.1-1.4,21.9-1.9
		c15.9-1.2,31.5-2.7,40.4-3.9l18.9-2.6c6.6-0.9,14.7-2.3,18-3c3.3-0.8,7.3-1.4,8.9-1.4c1.6,0,4.2-0.4,5.9-0.9c2.9-0.9,8.7-2,21.5-4
		c3-0.5,9.5-1.9,14.5-3.1c4.3-1,8.6-2,13-3c2.2-0.5,6.9-1.5,10.5-2.4c3.5-0.9,7-1.7,10.5-2.5c12.5-2.9,15.1-3.6,16-4.1
		c0.5-0.3,2.6-0.9,4.5-1.3c1.9-0.4,4.4-1.1,5.5-1.5c1.1-0.5,7.4-2.3,14-4.1c6.6-1.8,12.9-3.8,13.9-4.6c1.3-0.8,2.7-1.2,4.2-1.3
		c1.2,0,2.5-0.4,2.8-1c0.3-0.6,1.8-1,3.3-1c1.5,0,4-0.7,5.5-1.5c1.6-0.8,3.9-1.5,5.2-1.5c1.3,0,2.6-0.4,2.9-1c0.3-0.5,2-1.4,3.8-1.9
		c3.9-1.3,7.8-2.7,11.7-4.1c4.7-1.7,9.9-3.4,11.7-3.7c1.8-0.3,3.2-0.9,3.2-1.3c0-0.4,2.6-1.6,5.7-2.5c3.2-1,6.9-2.3,8.2-3
		c1.4-0.7,4.3-2,6.5-2.9c2.2-0.9,4.8-2.1,5.7-2.6c1-0.5,2.6-1,3.6-1c1.2-0.1,2.3-0.6,3.1-1.5c0.7-0.8,1.8-1.5,2.5-1.5
		c0.7,0,2.6-0.6,4.1-1.4c1.5-0.8,4.4-2.1,6.3-2.9c1.9-0.8,6.2-2.7,9.5-4.1c11.3-5.1,12.3-5.5,13.4-5.5c0.6,0,1.1-0.4,1.1-1
		c0-0.5,0.6-1,1.4-1c0.8,0,6.2-2.5,12-5.5c5.9-3,11.2-5.5,12-5.5c0.7,0,1.9-0.7,2.6-1.5c0.8-0.9,1.9-1.4,3.1-1.5
		c1,0,1.9-0.4,1.9-0.9c0-0.5,1-1.3,2.2-1.6c1.2-0.4,3.9-1.8,6-3.1c2-1.3,4.6-2.3,5.7-2.3c1.1,0,2-0.4,2-0.9s2.8-2.3,6.2-4.1
		c3.4-1.8,6.7-3.6,7.3-4.1s3.5-2.1,6.5-3.7c9.6-5,12.4-6.7,13.2-7.9c0.4-0.7,1.6-1.3,2.7-1.3c1,0,2-0.4,2.2-0.9
		c0.2-0.5,2.2-1.9,4.5-3.2c10.6-6,40.8-25.4,43-27.5c0.7-0.7,2-1.3,2.7-1.3c0.8,0,1.4-0.3,1.4-0.8s2.4-2.3,5.2-4.2
		c2.9-1.9,5.5-3.7,5.7-4c1.8-1.9,9-7,9.9-7c0.6,0,1.1-0.4,1.1-0.9c0-0.5,1-1.2,2.2-1.6c1.2-0.4,3.7-2.2,5.6-4
		c1.9-1.8,4.3-3.6,5.3-3.9c1-0.3,3.8-2.4,6.1-4.5c2.3-2.2,4.6-3.9,5.1-3.9s1.9-0.9,3-1.9c7.4-6.7,10.2-9,10.9-9c0.4,0,1.8-1,3-2.3
		c1.2-1.3,4.9-4.3,8.2-6.9c3.3-2.5,7.1-5.7,8.5-7c1.4-1.3,5-4.5,8-6.9c8.2-6.7,9.7-7.9,15.4-13.4c3.1-2.9,6.2-5.7,9.4-8.5
		c5.2-4.4,53.8-52.5,56.5-55.9c4.5-5.8,12.4-14.6,18.6-20.9c3.7-3.7,6.9-7.7,7.3-8.8c0.4-1.1,1.1-2.1,1.6-2.1c0.5,0,0.9-0.4,0.9-1
		c0-0.5,2.4-3.4,5.3-6.3c2.9-3,6-6.8,6.7-8.5c0.8-1.7,1.7-3.1,2.1-3.1c1.3,0,7.8-7,7.8-8.3c0-0.7,1.1-2.3,2.5-3.6
		c1.4-1.3,2.5-2.9,2.5-3.7c0-0.7,0.5-1.3,1.1-1.3c1.5,0,3.5-2.2,4.3-4.5c0.8-2.4,6.2-8.4,7.6-8.4c0.6,0,1-0.7,1-1.5
		c0-0.9,1.5-3.2,3.4-5.2c5.4-5.8,24.5-30.4,24.5-31.5c0-0.2,1.6-2.8,3.6-5.7c2-2.9,4-6.2,4.5-7.3c0.5-1.1,2.7-5.1,4.9-9
		c2.2-3.8,4.9-8.9,6-11.2c1.1-2.3,2.4-4.2,2.8-4.2c0.5,0,1.1-1.1,1.5-2.5c0.3-1.4,1.1-2.5,1.6-2.5c0.5,0,1-0.7,1-1.5
		c0-0.8,0.7-1.8,1.5-2.1c0.8-0.3,1.5-1.6,1.5-3c0-1.3,0.4-2.4,0.9-2.4c0.5,0,1.2-1.1,1.5-2.5c0.3-1.4,1.1-2.5,1.6-2.5
		c0.5,0,1-0.7,1-1.5c0-0.8,0.7-1.5,1.5-1.5c0.8,0,1.5-0.7,1.5-1.7c0-2.1,3.2-9.3,4.1-9.3c0.4,0,1-1.1,1.3-2.5
		c0.3-1.4,1.1-2.5,1.6-2.5c0.5,0,1-0.7,1-1.6s1.1-3,2.4-4.7c1.3-1.7,2.7-4.2,3.1-5.4s1.1-2.2,1.6-2.2c0.5,0,0.9-0.8,0.9-1.9
		s0.7-2.4,1.5-3.1c0.8-0.7,1.5-2,1.5-3c0-1,0.7-2.3,1.5-3c0.9-0.8,1.4-1.9,1.5-3.1c0-1,0.4-1.9,1-1.9c0.5,0,1-0.9,1-1.9
		c0-1.1,0.4-2.2,0.9-2.5c0.5-0.3,2.6-4,4.7-8.3c2.1-4.2,4.1-7.9,4.4-8.2c0.3-0.3,0.9-1.7,1.3-3.2c0.4-1.5,1.1-2.7,1.6-2.7
		c0.5,0,1-0.5,1-1.2c0-0.6,1.4-4.1,3.1-7.7c1.7-3.6,3.5-7.7,4.1-9.1c1.7-4.2,3.5-8.2,6.3-14.5c1.5-3.3,3.4-7.6,4.2-9.5
		s2.1-4.8,2.9-6.3c0.8-1.6,1.4-3.9,1.4-5.1c0-1.3,0.7-2.8,1.5-3.5c0.9-0.8,1.4-1.9,1.5-3.1c0-1,0.5-2.1,1-2.4c0.5-0.3,1-1.7,1-3
		s0.7-3,1.5-3.9c0.8-0.8,1.5-2.7,1.5-4.1s0.4-2.6,1-2.6c0.5,0,1.3-1.6,1.6-3.5c0.4-1.9,1.1-3.7,1.5-4c0.5-0.3,0.9-1.3,0.9-2.2
		c0-0.9,0.7-3,1.5-4.5c0.8-1.6,1.5-3.5,1.5-4.2c0-1.3,2.1-6.6,4.1-10.6c0.5-1,0.9-2.5,0.9-3.5c0-1,0.7-3,1.5-4.6
		c0.8-1.6,1.5-4.1,1.5-5.5c0-1.5,0.7-3.6,1.5-4.6c0.8-1.1,1.5-2.9,1.5-4.1c0-1.2,0.7-3.4,1.5-5c0.8-1.6,1.5-4.1,1.5-5.5
		c0-1.5,0.5-3,1-3.3c0.5-0.3,1-1.8,1-3.4c0-1.5,0.7-3.6,1.5-4.7c0.8-1.1,1.5-3.3,1.5-5c0-1.7,0.6-3.9,1.4-5c0.8-1.1,1.6-3.8,1.9-6
		c0.7-5.7,2.7-12.8,3.8-13.9c0.5-0.5,0.9-2.2,0.9-3.8c0-1.6,0.7-4.4,1.5-6.4c0.8-2,1.5-5.2,1.5-7.2c0-2,0.7-4.7,1.5-6.1
		c0.8-1.4,1.4-3.8,1.5-5.3c0-1.5,0.5-3.7,1-4.7c0.9-1.8,1.5-4.7,4.1-20.9c0.6-3.6,1.4-6.9,2-7.4c0.5-0.5,0.9-2.8,0.9-5
		c0-2.2,0.5-5.6,1.1-7.5c0.6-1.9,1.5-6.6,2-10.5c0.5-3.8,1.6-11.7,2.4-17.5c0.8-5.8,2-14.7,2.6-19.9c0.6-5.2,1.5-10.8,2-12.4
		c0.5-1.6,1-7,1-12c0-5,0.5-10.9,1-13.1c0.6-2.2,1.4-13,1.9-23.9c0.5-12.2,1.3-20.1,1.9-20.3c1.4-0.5,1.5-87.6,0.1-88.1
		c-0.5-0.2-1.4-8.9-2-19.3c-0.5-10.4-1.5-23.9-2.1-29.9c-1.9-19.8-3.2-30.8-4.1-36.4c-0.7-4.5-1.3-9.1-1.8-13.7
		c-0.5-4.5-1.2-8.7-1.6-9.4c-0.4-0.7-1.1-4.2-1.5-7.8c-0.8-6.6-2.5-16.6-5.4-31.5c-0.9-4.4-2-10.2-2.5-13c-1-5.4-3-14.3-4.9-21.4
		c-0.7-2.7-1.4-5.3-2-8c-0.4-1.9-2-8.2-3.5-14c-1.1-4.3-2.2-8.6-3.2-13c-0.3-1.5-0.8-3-1.4-4.5c-0.5-1.1-1.4-4-2-6.5
		c-0.6-2.5-1.5-6.1-1.9-8c-0.5-1.9-1.8-6-2.9-9c-1.2-3-2.1-6.2-2.1-7c0-0.8-0.7-2.8-1.5-4.4c-0.8-1.6-1.5-3.6-1.5-4.5
		c0-2.1-6-19.3-7.1-20.5c-0.5-0.5-0.9-1.9-0.9-3c0-1.1-0.7-3.3-1.5-4.9c-0.8-1.6-1.5-3.3-1.5-3.8c0-1.9-17-44.4-22.1-55.3
		c-1.6-3.4-2.9-6.4-2.9-6.8c0-0.9-16.6-36.2-20.4-43.5c-0.7-1.4-3.8-7.2-6.7-13c-5.4-10.4-10.9-20.7-16.7-30.9c-1.5-2.6-3-5.3-4.4-8
		c-0.8-1.5-1.7-3-2.7-4.5c-1-1.4-1.9-2.9-2.6-4.5c-0.4-0.8-3.5-5.9-7-11.2c-3.5-5.3-6.3-9.9-6.3-10.1c0-0.3-1.7-3.1-3.7-6.3
		c-2.1-3.2-4.2-6.6-4.7-7.5c-2.4-3.9-13.6-20.7-16.9-25.2c-2-2.7-8.9-12.2-15.3-21.1c-6.4-8.9-12.6-17.2-13.7-18.5
		c-1.7-2.1-3.4-4.2-4.9-6.3c-4.4-6-24.9-30.7-33.8-40.9c-18.1-20.6-22.2-25-46-48.9c-28.2-28.3-32.4-32.2-55.4-51.8
		c-3.9-3.3-7.7-6.6-11.6-10c-1.6-1.4-3.3-2.8-5-4.2l-9.3-7.5c-4.5-3.6-9-7.1-13.5-10.6c-3-2.3-6.1-4.7-9.1-7.1
		c-4.8-3.6-9.6-7.1-14.5-10.6c-5.3-3.9-10.6-7.7-15.9-11.6c-1.4-1-8.3-5.7-15.5-10.5c-5.7-3.8-11.3-7.5-17-11.3
		c-3.3-2.2-13.9-8.9-25.9-16.3c-6.2-3.8-14.8-8.7-25.5-14.4c-3.6-1.9-6.9-3.8-7.5-4.3c-2.6-2-50.7-26.5-62.8-31.9
		c-19.1-8.6-40.7-17.9-41.5-17.9c-0.5,0-1.7-0.4-2.7-1c-1.5-0.8-8.2-3.5-21.2-8.5c-4.3-1.7-15.7-5.7-22.4-8c-2.7-0.9-5.7-2-6.5-2.5
		c-0.8-0.4-3.1-1.1-5-1.5c-1.9-0.4-4.1-1.1-5-1.5c-2.2-1.1-26.9-8.8-30.7-9.6c-1.8-0.3-3.5-1-3.8-1.5c-0.3-0.5-1.7-0.9-3.2-0.9
		c-1.5,0-3.8-0.7-5.2-1.5c-1.6-0.9-3.4-1.4-5.3-1.5c-1.5,0-3.7-0.5-4.7-1.1c-1.1-0.6-3.8-1.4-6.2-1.9s-9.9-2.3-16.7-4.1
		c-6.9-1.8-14.3-3.6-16.5-4c-2.2-0.4-7.4-1.5-11.5-2.4c-26.1-5.7-57.6-11.2-77.2-13.4c-4.3-0.5-9-1.1-10.5-1.4
		c-2.9-0.6-15.3-1.9-42.1-4.3C1065.8,6,948.9,5.1,936.7,6.6 M1040.9,316.2c14,0.8,29.5,1.9,34.4,2.5c30.7,3.9,32.6,4.2,47.9,7
		c3.3,0.6,8.2,1.5,11,1.9c7.8,1.3,14.9,2.9,33.4,7.6c5.8,1.5,12.3,3.1,14.5,3.5c3.5,0.8,7,1.8,10.5,2.9c3.6,1.1,8.7,2.7,11.5,3.5
		c12.2,3.7,36.5,12,41.1,14c1.7,0.8,3.6,1.4,4.3,1.4c0.6,0,1.9,0.4,2.8,1c1,0.5,6.9,3,13.2,5.6c5.5,2.2,11,4.5,16.5,6.9
		c7.5,3.4,28.5,13.5,31.7,15.1c8.2,4.4,16.4,8.7,24.7,13c17.1,8.6,87.5,55.7,92.8,62.1c0.3,0.3,5.7,4.9,12,10.1
		c5,4.1,10,8.3,14.9,12.5c7.3,6.3,35.9,33.6,39,37.1c1.8,2.1,7.3,8,12.3,13.3c27.1,28.3,65.7,79.6,83.9,111.5c0.5,1,3.1,5.3,5.7,9.7
		c9.6,16.4,21.8,40.3,33,64.3c4.9,10.5,9.8,22.6,15.2,37.4c2,5.5,4,10.9,4.5,12c1.2,2.7,10.4,31.5,14,43.9c0.5,1.6,1.6,5.3,2.4,8.2
		c0.9,2.8,1.5,6.2,1.5,7.5s0.4,2.8,0.9,3.3c0.5,0.5,1.4,3.6,2,6.9c0.6,3.3,1.7,8.9,2.6,12.5c2.2,9.4,4.6,21.6,5.5,28
		c0.4,3,1,6.4,1.4,7.5c0.3,1.1,1.1,5.8,1.6,10.4c0.6,4.7,1.7,13.9,2.6,20.5c6.2,46.1,5.3,138.5-1.7,169.8c-0.6,2.8-0.9,5.6-0.9,8.5
		c0,2.3-0.6,7.6-1.4,11.7c-2.3,12-3.8,20.1-4.7,25c-2.1,11.9-2.9,15.2-3.7,16.3c-0.5,0.6-1.2,3.2-1.4,5.6c-0.3,2.5-1.3,7.2-2.2,10.5
		c-1,3.5-1.8,7-2.7,10.5c-0.5,2.5-1.3,5.4-1.8,6.5c-0.8,2-2.4,7.7-4,14.5c-0.8,3.2-2.1,7.3-4.1,12.5c-0.4,1.1-1.5,4.5-2.5,7.5
		c-0.9,3-2.3,6.7-3.1,8.1c-0.8,1.5-1.4,3.4-1.4,4.3c0,0.9-0.4,2.4-0.9,3.3c-2.2,4.1-4,8.6-4,10c0,0.8-0.6,2.6-1.4,4.1
		c-1.1,2.3-2.2,4.7-3.1,7.1c-2.5,6.4-3,7.7-6.4,15.3c-1.7,3.7-3.1,7.1-3.1,7.4c0,1.2-6.2,13.2-7.1,13.8c-0.5,0.3-0.9,1.6-0.9,2.8
		s-0.4,2.7-0.9,3.2c-0.5,0.5-4,7-7.8,14.4c-3.8,7.4-8.3,15.8-10.1,18.6c-1.7,2.8-3.2,5.4-3.2,5.8c0,1.2-16.1,26.8-20.5,32.5
		c-4.2,5.5-14.4,20.6-22.7,33.4c-2.5,3.8-5.7,8.3-7.1,10c-1.4,1.6-2.6,3.2-2.6,3.6c0,0.3-1.6,2.3-3.6,4.5c-2,2.2-4.3,5.1-5.2,6.5
		c-1.6,2.5-4.9,6.5-20,23.8c-16.9,19.4-62.4,64-72.3,70.8c-1.2,0.8-3.7,2.9-5.6,4.7c-1.9,1.8-5.7,4.9-8.5,7c-2.7,2.1-5.2,4-5.5,4.4
		c-1.2,1.5-28.5,21.3-37.9,27.5c-5.8,3.8-10.7,7.2-11,7.5c-0.7,0.8-28.6,17.9-29.2,17.9c-0.3,0-3.5,1.8-7.2,4.1
		c-7.2,4.4-41.5,22-49.8,25.6c-7.8,3.3-15.5,6.8-23.3,10.3c-3.5,1.6-6.7,2.9-7.3,2.9c-0.5,0-2,0.6-3.2,1.4s-4.7,2.2-7.7,3.1
		c-3,0.9-6.8,2.3-8.5,3c-2.5,1-5,1.9-7.5,2.8c-2.5,0.8-5.8,2.1-7.5,2.7c-4.8,2-6.6,2.6-13,4.5c-3.3,1-6.7,2-10,3.1
		c-8.3,2.7-30.1,8.7-34.4,9.5c-2.5,0.5-5,1-7.5,1.8c-1.6,0.5-5.7,1.5-9,2.1c-3.3,0.7-7.8,1.6-10,2.2c-2.2,0.6-6.7,1.4-10,1.8
		c-3.5,0.5-7,1.1-10.5,1.8c-10.3,2.4-17.7,3.4-51.9,7c-44.2,4.6-98,5-130.2,1c-4.4-0.5-12.2-1.4-17.5-1.9c-6.7-0.7-13.3-1.5-20-2.5
		c-5.7-0.8-11.3-1.7-17-2.5c-3.6-0.5-7.8-1.4-9.3-2c-1.8-0.6-3.8-1-5.7-1c-1.6,0-5.5-0.6-8.7-1.4c-3.1-0.8-9.1-2.1-13.2-3
		c-6.9-1.5-13.7-3.1-20.5-5c-2.7-0.7-7.9-2.1-11.5-3c-3-0.8-6-1.6-9-2.5c-2.8-0.9-5.6-1.7-8.5-2.5c-3.2-0.9-6.4-1.9-9.5-3
		c-3.1-1.1-6.3-2.1-9.5-3.1c-3.3-1-6.4-2.2-6.9-2.6c-0.5-0.4-1.7-0.8-2.7-0.8c-1,0-3.2-0.6-5-1.4l-6.9-3c-2-0.9-4.1-1.6-4.7-1.6
		c-0.6,0-5.4-1.9-10.8-4.1c-7.7-3.2-15.4-6.5-23-9.9c-10.6-4.7-47.2-23.1-55.6-27.9c-4.9-2.9-10.6-6.1-12.5-7.1
		c-8.8-5-34.6-21.5-46.6-29.9l-12.7-8.9c-3.3-2.3-6.4-4.7-7-5.3c-0.5-0.6-2.8-2.4-5-4c-5.6-4-17.1-13.2-22.5-17.9c-3.5-3-7-6-10.5-9
		c-25.9-22-63.8-61.3-83.2-86.2c-3.6-4.7-7.3-9.4-11-14c-9.3-11.9-21.6-28.8-24.4-33.7c-0.6-1-3.8-5.9-7.2-10.9
		c-3.4-5.1-6.2-9.4-6.2-9.7c0-0.3-1.8-3.2-4-6.5c-2.2-3.3-4-6.4-4-7c0-0.5-0.6-1.6-1.3-2.3c-0.7-0.8-2.1-2.9-3.1-4.8
		c-15.1-27.3-17-31.1-26.5-51.3c-9.5-20.4-13-28.2-13-29.4c0-0.5-0.6-2.2-1.4-3.7c-0.9-1.9-1.8-3.9-2.6-5.8c-0.8-2-1.7-4-2.5-6
		c-1.4-3.2-14.4-42.3-17.1-51.4c-0.7-2.5-1.5-5-2.4-7.5c-1-2.5-5.9-21.6-7-26.9c-0.7-3.5-1.5-7-2.4-10.5c-1-4.2-1.8-8.4-2.4-12.6
		c-0.5-3.4-1.2-6.7-1.6-7.3c-0.4-0.6-1.1-3.7-1.5-6.8s-1.5-10.4-2.4-16.1c-1-6.5-1.8-13-2.6-19.5c-0.6-4.9-1.3-9.7-1.6-10.5
		c-0.3-0.8-1-8-1.5-16c-0.5-8-1.4-20.8-1.9-28.4c-2-30.7-0.4-72.9,4.4-113.2c3.1-26.1,3.6-29.9,4.6-32.4c0.6-1.4,1-4.3,1-6.4
		c0-2.1,0.7-5.4,1.5-7.4c0.8-2,1.5-5,1.5-6.8c0-1.8,0.4-4.6,0.9-6.3c0.5-1.7,1.7-6.7,2.6-11c0.9-4.4,2.2-10.2,3-13
		c0.7-2.7,1.9-7,2.5-9.5c1.9-7.6,4.1-15.3,5.2-18.5c0.6-1.6,1.4-4.3,1.8-6c1.1-4,3.1-9.6,4.1-11.7c0.5-1,0.9-2.5,0.9-3.3
		s0.6-3,1.4-4.8c0.8-1.7,2.4-6.3,3.6-10.1c2.2-6.9,4.7-13.6,7.6-20.2c3.5-8,4.4-10.1,6.9-16.7c4.7-12.1,27.8-59.7,30.8-63.3
		c0.7-0.8,2.1-3.3,3.1-5.5c3.4-6.9,14.4-24.6,21.8-34.9c5.6-7.9,11-15.9,16.3-23.9c10-15.3,10.1-15.4,21.7-29.8
		c4.4-5.4,8.9-11.1,10-12.6c11.9-16,61.5-66.4,81.3-82.5c1.9-1.6,4-3.3,4.6-3.8c0.6-0.5,2.9-2.5,5.2-4.3c2.3-1.8,5-4.1,6.1-5
		c1.1-0.9,3.4-2.8,5.2-4.1c1.8-1.4,4.6-3.7,6.3-5.2c1.7-1.5,3.4-2.7,3.8-2.7c0.4,0,1.3-0.6,2-1.3c1.4-1.3,12-9.2,15.4-11.4
		c1-0.7,5.6-3.8,10.1-7c11.4-8,30.7-20.4,38.2-24.5c1.4-0.8,6.9-3.9,12.3-7.1c13.9-8.1,42.9-22.6,61.5-30.9
		c12.7-5.6,45.1-18.7,46.4-18.7c0.5,0,3.8-1.1,7.4-2.4c6.7-2.4,22.1-7.4,31.9-10.3c2.6-0.8,5.2-1.6,7.8-2.5c1.4-0.5,2.9-0.8,4.4-0.9
		c1.1,0,4.4-0.7,7.2-1.6c7-2.2,9.9-2.9,19.1-4.8c4.4-0.9,10.4-2.3,13.5-3.1c3.1-0.8,6.3-1.4,9.5-1.9c3.9-0.5,11.7-1.9,20.4-3.7
		c7.3-1.5,18.3-2.8,50.4-5.9C975.5,314.6,1003.3,314.1,1040.9,316.2 M815.7,515.9c1,0.3,2.5,0.3,3.5,0c1-0.3,0.2-0.5-1.7-0.5
		C815.5,515.5,814.8,515.7,815.7,515.9 M714.7,561.9l-3.4,3.7l3.7-3.4c2.1-1.9,3.7-3.6,3.7-3.7C718.7,557.7,717.9,558.4,714.7,561.9
		 M944.1,561.5c0,0.3,1.4,1.5,3,2.6c1.6,1.2,3,1.9,3,1.6c0-0.3-1.3-1.5-3-2.6C945.5,561.9,944.1,561.2,944.1,561.5 M960.1,572.4
		c0,0.3,1.4,1.5,3,2.6c1.6,1.2,3,1.9,3,1.6c0-0.3-1.3-1.5-3-2.6C961.5,572.9,960.1,572.2,960.1,572.4 M972.3,580.6
		c0.3,0.5,2.7,2.5,5.3,4.4c2.6,1.9,4.5,3,4.2,2.4s-2.7-2.5-5.3-4.4S972,580.1,972.3,580.6 M1041.9,628.2c0,0.2,1.9,1.7,4.2,3.2
		c2.3,1.5,3.7,2.2,3.1,1.4C1048,631.3,1041.9,627.5,1041.9,628.2 M1059.9,640.3c0,0.3,1.4,1.5,3,2.6c1.6,1.2,3,1.9,3,1.6
		s-1.3-1.5-3-2.6C1061.2,640.7,1059.9,640,1059.9,640.3 M1071.8,648.3c0,0.3,1.3,1.5,3,2.6c1.6,1.2,3,1.9,3,1.6s-1.3-1.5-3-2.6
		C1073.2,648.7,1071.8,648,1071.8,648.3 M1081.8,655.2c0,0.2,1.9,1.7,4.2,3.2c2.3,1.5,3.7,2.2,3.1,1.4
		C1087.9,658.3,1081.8,654.5,1081.8,655.2 M671.2,669.3c0,6,0.2,8.4,0.4,5.2c0.2-3.2,0.2-8.1,0-11S671.2,663.3,671.2,669.3
		 M1099.8,667.2c0,0.3,1.4,1.5,3,2.6c1.6,1.2,3,1.9,3,1.6c0-0.3-1.3-1.5-3-2.6C1101.1,667.7,1099.8,666.9,1099.8,667.2
		 M1116.1,678.7c0.8,1.2,18.7,13.3,19.1,12.9c0.2-0.2-4.2-3.4-9.7-7.1C1120,680.7,1115.8,678.1,1116.1,678.7 M672.1,688.8
		c0,1.9,0.2,2.7,0.5,1.7c0.3-1,0.3-2.5,0-3.5C672.3,686.1,672.1,686.9,672.1,688.8 M1136.7,692.1c0,0.3,1.3,1.5,3,2.6
		c1.7,1.2,3,1.9,3,1.6c0-0.3-1.3-1.5-3-2.6C1138,692.6,1136.7,691.9,1136.7,692.1 M1152.6,703.1c0,0.3,1.3,1.5,3,2.6
		c1.6,1.2,3,1.9,3,1.6c0-0.3-1.3-1.5-3-2.6C1154,703.6,1152.6,702.8,1152.6,703.1 M1164.7,711.4c0,0.4,3,2.7,6.6,5.1
		c3.6,2.4,6.3,3.9,6,3.4C1176.3,718.5,1164.6,710.5,1164.7,711.4 M1181.2,722.9c4.4,3.3,5.3,3.6,1.9,0.6c-1.7-1.5-3.4-2.7-3.9-2.7
		C1178.7,720.7,1179.6,721.7,1181.2,722.9 M1199.5,735c0,0.3,1.4,1.5,3,2.6c1.6,1.2,3,1.9,3,1.6c0-0.3-1.3-1.5-3-2.6
		C1200.9,735.5,1199.5,734.8,1199.5,735 M1209.5,742c0,0.2,1.9,1.7,4.2,3.2c2.3,1.5,3.7,2.2,3.1,1.4
		C1215.6,745.1,1209.5,741.2,1209.5,742 M1220.5,749.5c4.2,3.4,7.3,5.6,11.2,8c6.3,3.8,4.1,1.6-3.5-3.6
		C1219.9,748.3,1216.8,746.6,1220.5,749.5 M1236.4,760.1c0,0.3,2.6,2.2,5.7,4.2c3.2,2.1,6,4,6.2,4.3c1,1.1,13,9,13,8.5
		c0-0.5-7.6-5.9-18.6-13.3C1239.3,761.5,1236.4,759.9,1236.4,760.1 M715.7,780.1c3.5,3.6,6.7,6.5,6.9,6.5c0.3,0-2.4-2.9-5.9-6.5
		c-3.5-3.6-6.7-6.5-6.9-6.5S712.2,776.5,715.7,780.1 M1265,779.7c4.4,3.3,5.3,3.6,1.9,0.6c-1.7-1.5-3.4-2.7-3.9-2.7
		S1263.4,778.5,1265,779.7 M1271.3,783.9c0,0.3,4.6,3.6,10.2,7.4c5.6,3.7,10.8,7.3,11.5,8c0.7,0.7,1.5,1.2,1.8,1.2
		c1.5,0-1.7-2.5-10.8-8.5c-3.9-2.5-7.7-5.1-11.5-7.7C1271.9,783.7,1271.3,783.6,1271.3,783.9 M1298.3,802.5c1.4,1.1,3.4,2.6,4.5,3.1
		c1.4,0.7,1.2,0.4-0.5-1.1c-1.4-1.2-2.9-2.2-4.5-3.1C1296.4,800.7,1296.6,801,1298.3,802.5 M1305.7,807.2c2.5,2.4,12.7,9.4,13.1,8.9
		c0.3-0.3-2.1-2.2-5.3-4.3C1306.1,806.9,1304.5,805.9,1305.7,807.2 M756.6,810.8c0,0.3,1.3,1.5,3,2.6c1.7,1.2,3,1.9,3,1.6
		s-1.3-1.5-3-2.6C758,811.3,756.6,810.6,756.6,810.8 M1320.2,816.8c0,0.3,1.3,1.5,3,2.6c1.6,1.2,3,1.9,3,1.6s-1.3-1.5-3-2.6
		C1321.6,817.3,1320.2,816.6,1320.2,816.8 M1329.9,823.7c1.6,1.2,4.2,3.2,5.8,4.3c16,11.1,22.7,15.5,23.1,15
		c0.3-0.3-2.3-2.2-5.7-4.3c-3.4-2.1-10.4-6.8-15.5-10.5C1328.8,821.8,1323.9,818.9,1329.9,823.7 M1360.1,843.8c0,0.3,1.3,1.5,3,2.6
		s3,1.9,3,1.6c0-0.3-1.3-1.5-3-2.6C1361.5,844.2,1360.1,843.5,1360.1,843.8 M809.2,846.5c1.2,1.5,7.3,5.3,7.3,4.6
		c0-0.2-1.9-1.7-4.2-3.2C809.9,846.3,808.5,845.7,809.2,846.5 M1368.1,849.6c1.9,1.8,9,6.1,9,5.4c0-0.3-2.4-1.9-5.2-3.7
		C1368.9,849.6,1367.3,848.8,1368.1,849.6 M823.5,856.2c3.7,3.2,9,6.5,9,5.8c0-0.3-2.8-2.3-6.2-4.6
		C821.8,854.5,821,854.1,823.5,856.2 M836.4,864.7c0,0.3,1.3,1.5,3,2.6c1.6,1.2,3,1.9,3,1.6s-1.3-1.5-3-2.6
		C837.8,865.2,836.4,864.4,836.4,864.7 M889,900.4c1.4,1.7,7.7,5.4,6.9,4.1c-0.4-0.6-2.3-2-4.3-3.2
		C889.6,900.1,888.4,899.7,889,900.4 M909.2,913.7c0,0.3,1.9,1.7,4.2,3.2c2.3,1.5,5.1,3.5,6.2,4.5c1.1,1,2.1,1.5,2.4,1.2
		c0.3-0.3-0.6-1.3-1.9-2.2C915.5,917.1,909.2,913.3,909.2,913.7 M925.3,925c3.3,2.6,10.9,7.2,10.9,6.7c0-0.5-12-8.6-12.7-8.6
		C923.2,923.2,924,924,925.3,925 M943.2,937.2c1.9,1.6,3.9,3,4.4,3s-0.8-1.3-2.9-3C939.8,933.3,938.6,933.3,943.2,937.2
		 M958.1,946.5c0,0.4,10.3,7.8,15.2,10.9c6.2,3.9,2.1,0.5-6.2-5.2C962.2,948.9,958.1,946.3,958.1,946.5 M977.1,959.5
		c0,0.3,1.3,1.5,3,2.6c1.6,1.2,3,1.9,3,1.6c0-0.3-1.4-1.5-3-2.6C978.4,959.9,977.1,959.2,977.1,959.5 M991.7,969.9
		c5.5,4,12.3,8.2,12.3,7.7c0-0.6-14.8-10.5-15.6-10.5C988,967.1,989.5,968.4,991.7,969.9 M1005,978.5c0,0.2,1.3,1.3,3,2.5
		c1.6,1.2,3,1.8,3,1.3c0-0.5-1.4-1.6-3-2.5C1006.3,978.9,1005,978.3,1005,978.5 M1012.1,983.4c3.2,2.7,23,15.5,21.4,13.9
		c-1.5-1.6-20.3-14.2-21.1-14.2C1012,983.1,1011.8,983.2,1012.1,983.4 M1019.2,1013c-13.8,9.3-21.6,14.9-20.7,14.9
		c0.6,0,7.5-4.5,11-7.3c0.6-0.4,4.8-3.3,9.5-6.3c7.7-5,12.2-8.4,10.9-8.3C1029.6,1006.1,1024.8,1009.2,1019.2,1013 M992.3,1031
		c-3.4,2.2-4.5,3.6-1.5,2c2.3-1.3,5.9-4,5.2-4C995.7,1029,994.1,1029.9,992.3,1031 M1468,1031.6c-0.1,1.4-0.3,2.7-0.7,4
		c-0.5,1.7-0.5,1.7,0.6,0.1c0.6-1,1-2.8,0.7-4C1468.1,1029.4,1468.1,1029.4,1468,1031.6 M982.8,1037.5c-2,1.4-3.7,2.7-3.7,3
		c0,0.3,1.8-0.7,4-2.2c3.5-2.3,4.7-3.4,3.7-3.4C986.6,1034.9,984.8,1036.1,982.8,1037.5 M974,1043.6l-2.4,2.7l3.2-2.2
		c3.3-2.3,3.9-3.1,2.4-3.1C976.8,1040.9,975.3,1042.1,974,1043.6 M962.1,1051.5c-4.7,3.1-9.2,6.2-10,7.1c-1.4,1.4,16.4-10,18.4-11.8
		C972.7,1044.8,970.1,1046.2,962.1,1051.5 M944.4,1063.4c-2.9,1.9-5.2,3.6-5.2,3.9c0,0.6,10-5.6,10.6-6.6
		C950.5,1059.5,950.1,1059.7,944.4,1063.4 M932.4,1071.4c-2.9,1.9-5.2,3.6-5.2,3.9c0,0.6,10-5.6,10.6-6.6
		C938.5,1067.4,938.1,1067.6,932.4,1071.4 M921.2,1079c-3.2,2.9-3.3,3-0.5,1.3c3.4-2.1,6-4.5,4.8-4.4
		C925.1,1075.9,923.1,1077.3,921.2,1079 M913.7,1084.4l-3,2.6l3.2-2.1c1.8-1.2,3.2-2.3,3.2-2.6
		C917.2,1081.5,916.8,1081.7,913.7,1084.4 M899.6,1093.6c-8.4,5.9-12,8.8-6.8,5.6c7.4-4.6,17.1-11.8,15.2-11.3
		C907.9,1087.9,904.1,1090.5,899.6,1093.6 M880.8,1106.3l-3,2.6l3.2-2.1c1.8-1.2,3.2-2.3,3.2-2.6
		C884.3,1103.4,883.9,1103.7,880.8,1106.3 M873.8,1111.3l-3,2.6l3.2-2.1c1.8-1.2,3.2-2.3,3.2-2.6
		C877.3,1108.4,876.9,1108.7,873.8,1111.3 M852.9,1125.3l-3,2.6l3.2-2.1c1.8-1.2,3.2-2.3,3.2-2.6
		C856.4,1122.4,855.9,1122.6,852.9,1125.3 M1369.9,1149.7l-2.4,2.1l3-1.8c3.9-2.3,4-2.4,2.8-2.4
		C1372.8,1147.6,1371.2,1148.6,1369.9,1149.7 M1360.4,1155.9c-3.4,2.3-6.2,4.6-6.2,5.1s1,0,2.2-1c1.2-1.1,4.1-3.2,6.5-4.7
		c2.3-1.5,4.2-2.9,4.2-3.2C1367.1,1151.4,1367.2,1151.4,1360.4,1155.9 M1346.4,1165.4c-5.7,4-7.9,6-4.8,4.3c3.3-1.7,12-8.2,11-8.1
		C1352.1,1161.8,1349.3,1163.4,1346.4,1165.4 M790.3,1167.1c-2.1,1.4-3.7,2.7-3.7,3c0,0.3,1.8-0.7,4-2.2c3.5-2.3,4.7-3.4,3.7-3.4
		C794.1,1164.6,792.3,1165.7,790.3,1167.1 M1331.6,1175.4c-6.2,4.5-23.2,16.1-31.3,21.5c-7.7,5-11.1,7.8-7.5,5.9
		c1.9-1,17.1-11.1,34.7-23.1c6.9-4.7,9.7-7,8.4-7C1335.7,1172.6,1333.7,1173.8,1331.6,1175.4 M773.1,1179.1l-3,2.6l3.2-2.1
		c1.8-1.2,3.2-2.3,3.2-2.6C776.6,1176.3,776.1,1176.5,773.1,1179.1 M761.1,1187.1l-3,2.6l3.2-2.1c1.8-1.2,3.2-2.3,3.2-2.6
		C764.6,1184.2,764.2,1184.5,761.1,1187.1 M1281.6,1209.3c-5.2,3.6-8.2,6.2-5.3,4.6c4.2-2.4,12-7.6,12-8
		C1288.3,1205,1286.6,1205.8,1281.6,1209.3 M1262.3,1222.6c-5.7,3.9-11.1,7.8-11.9,8.6c-0.8,0.8-0.2,0.6,1.5-0.5s7.4-5,12.8-8.6
		s9.4-6.6,8.9-6.6C1273.2,1215.5,1268.1,1218.7,1262.3,1222.6 M709.2,1228.7l-2.9,3.2l3.2-2.9c1.8-1.6,3.2-3.1,3.2-3.2
		C712.7,1225,711.9,1225.7,709.2,1228.7 M1241.9,1236.3c-2.7,2.1-10.6,7.5-17.5,12.1c-6.9,4.6-12.9,8.8-13.5,9.3
		c-1.6,1.6,6.4-3.4,15-9.2c4.4-3,11.2-7.7,15.2-10.3c4-2.7,7.2-5.1,7.2-5.3C1248.4,1231.8,1246.6,1232.8,1241.9,1236.3 M1203,1263
		c-5.8,4.1-8.3,6.4-4,3.8c5.2-3.2,10.8-7.4,9.9-7.3C1208.4,1259.5,1205.7,1261.1,1203,1263 M1189.5,1272.4c-3,2.2-5.1,4-4.7,4
		c0.8,0,10.7-7,10.7-7.6C1195.5,1268.1,1195.2,1268.2,1189.5,1272.4 M1180.1,1278.9l-3,2.6l3.2-2.2c1.8-1.2,3.2-2.3,3.2-2.6
		C1183.5,1276,1183.1,1276.3,1180.1,1278.9 M1172.3,1283.8c-2.1,1.4-3.7,2.7-3.7,3c0,0.6,6.9-3.6,7.5-4.6
		C1177,1280.8,1176.3,1281.1,1172.3,1283.8 M1155.6,1295.1c-2,1.5-4.6,3.5-6,4.5c-2.4,1.8-2.4,1.8,0.6,0.1c4.6-2.7,10.5-6.6,10.5-7
		C1160.6,1291.8,1158.9,1292.6,1155.6,1295.1 M1143.2,1303.8l-3,2.6l3.2-2.1c1.8-1.2,3.2-2.3,3.2-2.6
		C1146.6,1300.9,1146.2,1301.2,1143.2,1303.8 M1135.9,1308.7c-4.6,3.3-5.3,4.2-1.4,2c1.8-1,3.8-2.5,4.4-3.1
		C1140.3,1305.7,1139.6,1306,1135.9,1308.7 M672.1,1314.7c0,2.2,0.2,3,0.5,1.7c0.2-1.2,0.2-3,0-4
		C672.3,1311.5,672.1,1312.5,672.1,1314.7 M1108.2,1327.8l-3,2.6l3.2-2.1c1.8-1.2,3.2-2.3,3.2-2.6
		C1111.7,1324.9,1111.3,1325.1,1108.2,1327.8 M671.1,1330.7c0,2.7,0.2,3.7,0.4,2.2c0.2-1.7,0.2-3.3,0-5
		C671.3,1326.7,671.1,1327.9,671.1,1330.7 M672.1,1349.1c0,1.9,0.2,2.7,0.5,1.7s0.3-2.5,0-3.5S672.1,1347.2,672.1,1349.1
		 M1072.6,1351.7c-2.1,1.3-3.7,2.7-3.7,2.9c0,0.7,6.9-3.5,7.5-4.6C1077.2,1348.8,1076.8,1348.9,1072.6,1351.7 M1056.6,1362.7
		c-2.1,1.3-3.7,2.7-3.7,2.9c0,0.7,6.9-3.5,7.5-4.6C1061.2,1359.8,1060.9,1359.9,1056.6,1362.7 M1048.1,1368.5
		c-4.6,3.3-5.3,4.2-1.4,2c1.8-1,3.8-2.5,4.4-3.1C1052.6,1365.6,1051.9,1365.9,1048.1,1368.5 M1028.7,1381.6
		c-2.1,1.3-3.7,2.7-3.7,2.9c0,0.7,6.9-3.5,7.5-4.6C1033.3,1378.7,1032.9,1378.9,1028.7,1381.6 M1011.5,1393.6l-3,2.6l3.2-2.1
		c1.8-1.2,3.2-2.3,3.2-2.6C1015,1390.7,1014.5,1391,1011.5,1393.6 M992.5,1406.6l-3,2.6l3.2-2.1c1.8-1.2,3.2-2.3,3.2-2.6
		C996,1403.7,995.6,1403.9,992.5,1406.6 M703.7,1427.3c0,0.2,1.5,1.6,3.2,3.2l3.2,2.9l-2.9-3.2
		C704.6,1427.2,703.7,1426.5,703.7,1427.3 M814.2,1485.5c1.8,0.2,4.9,0.2,7,0c2.1-0.2,0.6-0.4-3.2-0.4
		C814.1,1485.1,812.4,1485.3,814.2,1485.5 M837.2,1485.5c1.8,0.2,4.5,0.2,6,0c1.5-0.2,0-0.4-3.3-0.4
		C836.6,1485.1,835.4,1485.3,837.2,1485.5"/>
</g>
</svg>
