<?xml version="1.0" encoding="utf-8"?>
<!-- Generator: Adobe Illustrator 21.0.0, SVG Export Plug-In . SVG Version: 6.00 Build 0)  -->
<svg version="1.1" id="Layer_1" xmlns="http://www.w3.org/2000/svg" xmlns:xlink="http://www.w3.org/1999/xlink" x="0px" y="0px"
	 viewBox="0 0 1024 1024" style="enable-background:new 0 0 1024 1024;" xml:space="preserve">
<style type="text/css">
	.st0{fill:#80c342;}
</style>
<g>
	<g>
		<path class="st0" d="M513.1,984C252.3,984,40.2,771.8,40.2,511c0-260.8,212.1-472.9,472.9-472.9C773.8,38.1,986,250.3,986,511
			C986,771.8,773.8,984,513.1,984z M513.1,89C280.3,89,91,278.3,91,511c0,232.7,189.3,422.1,422.1,422.1
			c232.8,0,422.1-189.4,422.1-422.1C935.2,278.3,745.8,89,513.1,89z"/>
	</g>
	<g>
		<path class="st0" d="M517.7,819.2c-45.6,0-81.3-25.2-81.3-57.5V442.6c0-32.2,35.7-57.5,81.3-57.5c45.6,0,81.3,25.2,81.3,57.5
			v319.1C599,794,563.3,819.2,517.7,819.2z M517.7,410.5c-29.8,0-55.9,15-55.9,32v319.1c0,17.1,26.1,32.1,55.9,32.1
			c29.8,0,55.9-15,55.9-32.1V442.6C573.6,425.5,547.5,410.5,517.7,410.5z"/>
	</g>
	<g>
		<path class="st0" d="M517.7,365.5c-44.8,0-81.3-36.5-81.3-81.3c0-44.8,36.5-81.3,81.3-81.3c44.8,0,81.3,36.5,81.3,81.3
			C599,329,562.5,365.5,517.7,365.5z M517.7,228.3c-30.8,0-55.9,25.1-55.9,55.9c0,30.8,25.1,55.9,55.9,55.9
			c30.8,0,55.9-25.1,55.9-55.9C573.6,253.4,548.5,228.3,517.7,228.3z"/>
	</g>
</g>
</svg>
