<?xml version="1.0" encoding="utf-8"?>
<!-- Generator: Adobe Illustrator 21.0.0, SVG Export Plug-In . SVG Version: 6.00 Build 0)  -->
<svg version="1.1" id="Layer_1" xmlns="http://www.w3.org/2000/svg" xmlns:xlink="http://www.w3.org/1999/xlink" x="0px" y="0px"
	 viewBox="0 0 1024 1024" style="enable-background:new 0 0 1024 1024;" xml:space="preserve">
<style type="text/css">
	.st0{fill-rule:evenodd;clip-rule:evenodd;fill:#80c342;}
	.st1{fill:#80c342;}
	.st2{fill:#FFFFFF;}
	.st3{fill:#80c342;stroke:#80c342;stroke-width:3;stroke-miterlimit:10;}
</style>
<path class="st0" d="M775.7,10.7c-1.7,0-3.3,0-5,0c-15.1,0-27.5,11.5-27.5,25.7v133c0,14.2,12.3,25.7,27.5,25.7c1.7,0,3.3,0,5,0
	c15.1,0,27.5-11.5,27.5-25.7v-133C803.2,22.3,790.8,10.7,775.7,10.7L775.7,10.7z M447.7,733.9c-34,0-68.1,0-102.1,0
	c0,31.8,0,63.6,0,95.5c34,0,68.1,0,102.1,0C447.7,797.5,447.7,765.7,447.7,733.9L447.7,733.9z M625.5,733.9c-34,0-68.1,0-102.1,0
	c0,31.8,0,63.6,0,95.5c34,0,68.1,0,102.1,0C625.5,797.5,625.5,765.7,625.5,733.9L625.5,733.9z M269.9,733.9H167.8v95.5h102.1V733.9
	L269.9,733.9z M803.2,590.7H701.1v95.5h102.1V590.7L803.2,590.7z M447.7,590.7c-34,0-68.1,0-102.1,0c0,31.8,0,63.7,0,95.5
	c34,0,68.1,0,102.1,0C447.7,654.3,447.7,622.5,447.7,590.7L447.7,590.7z M625.5,590.7c-34,0-68.1,0-102.1,0c0,31.8,0,63.7,0,95.5
	c34,0,68.1,0,102.1,0C625.5,654.3,625.5,622.5,625.5,590.7L625.5,590.7z M269.9,590.7H167.8v95.5h102.1V590.7L269.9,590.7z
	 M803.2,447.4H701.1v95.5h102.1V447.4L803.2,447.4z M447.7,447.4c-34,0-68.1,0-102.1,0c0,31.8,0,63.7,0,95.5c34,0,68.1,0,102.1,0
	C447.7,511.1,447.7,479.3,447.7,447.4L447.7,447.4z M625.5,447.4c-34,0-68.1,0-102.1,0c0,31.8,0,63.7,0,95.5c34,0,68.1,0,102.1,0
	C625.5,511.1,625.5,479.3,625.5,447.4L625.5,447.4z M200.3,10.7c-1.7,0-3.3,0-5,0c-15.1,0-27.5,11.5-27.5,25.7v133
	c0,14.2,12.3,25.7,27.5,25.7c1.7,0,3.3,0,5,0c15.1,0,27.4-11.5,27.4-25.7v-133C227.8,22.3,215.4,10.7,200.3,10.7L200.3,10.7z
	 M871.2,379.4V890c0,5.7-5,10.3-11,10.3h-753c-6,0-11-4.6-11-10.3V379.4c0-5.6,5-10.3,11-10.3h753
	C866.3,369.2,871.2,373.8,871.2,379.4L871.2,379.4z M871.2,929.7v6h-775v-6H871.2L871.2,929.7z M871.2,965.5v6h-775v-6H871.2
	L871.2,965.5z M859.6,92.9c39.4,0,71.4,30.1,71.4,66.9v774.3c0,36.8-32.1,66.8-71.4,66.8c-250.6,0-501.1,0-751.7,0
	c-39.4,0-71.5-30-71.5-66.8V159.8c0-36.8,32.1-66.9,71.5-66.9H145c0,31.3,0,62.5,0,93.8c0,19.9,17.3,36,38.5,36c9.6,0,19.2,0,28.8,0
	c21.2,0,38.4-16.1,38.4-36c0-31.3,0-62.5,0-93.8h469.7c0,31.3,0,62.5,0,93.8c0,19.9,17.3,36,38.5,36c9.6,0,19.2,0,28.7,0
	c21.2,0,38.5-16.1,38.5-36c0-31.3,0-62.5,0-93.8H859.6z"/>
<circle class="st1" cx="-1132" cy="-200.1" r="0"/>
<g>
	<circle class="st2" cx="747.8" cy="749" r="231.1"/>
	<g>
		<path class="st3" d="M994.3,749h-26c0,61-24.6,116-64.6,156c-40,40-95,64.6-156,64.6c-61,0-116-24.6-156-64.6
			c-40-40-64.6-95-64.6-156c0-61,24.6-116,64.6-156c40-40,95-64.6,156-64.6c61,0,116,24.6,156,64.6c40,40,64.6,95,64.6,156H994.3h26
			c0-150.5-122-272.5-272.5-272.5c-150.5,0-272.5,122-272.5,272.5c0,150.5,122,272.5,272.5,272.5c150.5,0,272.5-122,272.5-272.5
			H994.3z"/>
		<path class="st3" d="M715.5,636.2v225.6c0,17.8,14.4,32.2,32.2,32.2c17.8,0,32.2-14.4,32.2-32.2V636.2c0-17.8-14.4-32.2-32.2-32.2
			C730,604,715.5,618.4,715.5,636.2"/>
		<path class="st3" d="M635,781.2h225.6c17.8,0,32.2-14.4,32.2-32.2c0-17.8-14.4-32.2-32.2-32.2H635c-17.8,0-32.2,14.4-32.2,32.2
			C602.8,766.8,617.2,781.2,635,781.2"/>
	</g>
</g>
</svg>
