<?xml version="1.0" encoding="utf-8"?>
<!-- Generator: Adobe Illustrator 19.0.1, SVG Export Plug-In . SVG Version: 6.00 Build 0)  -->
<svg version="1.1" xmlns="http://www.w3.org/2000/svg" xmlns:xlink="http://www.w3.org/1999/xlink" x="0px" y="0px"
	 viewBox="0 0 1024 1024" style="enable-background:new 0 0 1024 1024;" xml:space="preserve">
<path fill="#80c342" d="M177.8,642.5c-71.9,0-130.5-58.5-130.5-130.4s58.5-130.5,130.5-130.5c71.9,0,130.4,58.5,130.4,130.5
	C308.2,583.9,249.7,642.5,177.8,642.5z M177.8,425.2C130,425.2,91,464.1,91,512c0,47.8,38.9,86.8,86.8,86.8
	c47.8,0,86.8-38.9,86.8-86.8C264.5,464.2,225.6,425.2,177.8,425.2z M177.8,977c-71.9,0-130.5-58.5-130.5-130.4
	s58.5-130.5,130.5-130.5c71.9,0,130.4,58.5,130.4,130.5C308.2,918.5,249.7,977,177.8,977z M177.8,759.8c-47.8,0-86.8,38.9-86.8,86.8
	c0,47.8,38.9,86.8,86.8,86.8c47.8,0,86.8-38.9,86.8-86.8C264.5,798.7,225.6,759.8,177.8,759.8z M984.3,156.1H400.1v43.7h584.2
	L984.3,156.1L984.3,156.1z M984.3,490.6H400.1v43.7h584.2L984.3,490.6L984.3,490.6z M984.3,825.2H400.1v43.7h584.2L984.3,825.2
	L984.3,825.2z M178,47c-71.9,0-130.5,58.5-130.5,130.4c0,72,58.6,130.5,130.5,130.5s130.5-58.5,130.4-130.5
	C308.4,105.5,249.9,47,178,47z M178,264.3c-47.9,0-86.8-39-86.8-86.8c0-47.9,39-86.8,86.8-86.8s86.8,38.9,86.8,86.8
	S225.8,264.3,178,264.3z"/>
</svg>
